<svg xmlns="http://www.w3.org/2000/svg" xmlns:xlink="http://www.w3.org/1999/xlink" width="2000" zoomAndPan="magnify" viewBox="0 0 1500 1499.999933" height="2000" preserveAspectRatio="xMidYMid meet" version="1.0"><defs><clipPath id="18a53f7ebb"><path d="M 610.941406 183.472656 L 889.058594 183.472656 L 889.058594 461.59375 L 610.941406 461.59375 Z M 610.941406 183.472656 " clip-rule="nonzero"/></clipPath><clipPath id="185ec8e97b"><path d="M 750 183.472656 C 673.199219 183.472656 610.941406 245.734375 610.941406 322.535156 C 610.941406 399.335938 673.199219 461.59375 750 461.59375 C 826.800781 461.59375 889.058594 399.335938 889.058594 322.535156 C 889.058594 245.734375 826.800781 183.472656 750 183.472656 Z M 750 183.472656 " clip-rule="nonzero"/></clipPath><clipPath id="7f00a4f3ac"><path d="M 0.941406 0.472656 L 279.058594 0.472656 L 279.058594 278.59375 L 0.941406 278.59375 Z M 0.941406 0.472656 " clip-rule="nonzero"/></clipPath><clipPath id="8616caac62"><path d="M 140 0.472656 C 63.199219 0.472656 0.941406 62.734375 0.941406 139.535156 C 0.941406 216.335938 63.199219 278.59375 140 278.59375 C 216.800781 278.59375 279.058594 216.335938 279.058594 139.535156 C 279.058594 62.734375 216.800781 0.472656 140 0.472656 Z M 140 0.472656 " clip-rule="nonzero"/></clipPath><clipPath id="e6856d35a0"><rect x="0" width="280" y="0" height="279"/></clipPath><clipPath id="b176e5842d"><path d="M 515 1077.46875 L 984.449219 1077.46875 L 984.449219 1316.515625 L 515 1316.515625 Z M 515 1077.46875 " clip-rule="nonzero"/></clipPath><clipPath id="b5b37798ec"><path d="M 515.546875 1077.46875 C 515.546875 1207.675781 622.296875 1316.515625 750 1316.515625 C 877.703125 1316.515625 984.449219 1207.675781 984.449219 1077.46875 Z M 515.546875 1077.46875 " clip-rule="nonzero"/></clipPath><clipPath id="69623f078b"><path d="M 0.519531 0.46875 L 469.449219 0.46875 L 469.449219 239.515625 L 0.519531 239.515625 Z M 0.519531 0.46875 " clip-rule="nonzero"/></clipPath><clipPath id="3652d93407"><path d="M 0.546875 0.46875 C 0.546875 130.675781 107.296875 239.515625 235 239.515625 C 362.703125 239.515625 469.449219 130.675781 469.449219 0.46875 Z M 0.546875 0.46875 " clip-rule="nonzero"/></clipPath><clipPath id="5ac35646fe"><rect x="0" width="470" y="0" height="240"/></clipPath><clipPath id="b981b94c0e"><path d="M 569 581.042969 L 930.875 581.042969 L 930.875 925.25 L 569 925.25 Z M 569 581.042969 " clip-rule="nonzero"/></clipPath><clipPath id="b38c312c69"><path d="M 855.875 925.25 L 644.167969 925.25 C 624.273438 925.25 605.199219 917.347656 591.132812 903.28125 C 577.066406 889.21875 569.167969 870.140625 569.167969 850.25 L 569.167969 656.042969 C 569.167969 636.152344 577.066406 617.074219 591.132812 603.007812 C 605.199219 588.945312 624.273438 581.042969 644.167969 581.042969 L 855.875 581.042969 C 875.769531 581.042969 894.84375 588.945312 908.910156 603.007812 C 922.976562 617.074219 930.875 636.152344 930.875 656.042969 L 930.875 850.25 C 930.875 870.140625 922.976562 889.21875 908.910156 903.28125 C 894.84375 917.347656 875.769531 925.25 855.875 925.25 Z M 855.875 925.25 " clip-rule="nonzero"/></clipPath><clipPath id="f9a1c1ea77"><path d="M 0.0390625 0.0429688 L 361.875 0.0429688 L 361.875 344.25 L 0.0390625 344.25 Z M 0.0390625 0.0429688 " clip-rule="nonzero"/></clipPath><clipPath id="1c48735960"><path d="M 286.875 344.25 L 75.167969 344.25 C 55.273438 344.25 36.199219 336.347656 22.132812 322.28125 C 8.066406 308.21875 0.167969 289.140625 0.167969 269.25 L 0.167969 75.042969 C 0.167969 55.152344 8.066406 36.074219 22.132812 22.007812 C 36.199219 7.945312 55.273438 0.0429688 75.167969 0.0429688 L 286.875 0.0429688 C 306.769531 0.0429688 325.84375 7.945312 339.910156 22.007812 C 353.976562 36.074219 361.875 55.152344 361.875 75.042969 L 361.875 269.25 C 361.875 289.140625 353.976562 308.21875 339.910156 322.28125 C 325.84375 336.347656 306.769531 344.25 286.875 344.25 Z M 286.875 344.25 " clip-rule="nonzero"/></clipPath><clipPath id="f67fad845f"><rect x="0" width="362" y="0" height="345"/></clipPath><clipPath id="cb2670d8ce"><path d="M 569.121094 488.484375 L 930.878906 488.484375 L 930.878906 850.242188 L 569.121094 850.242188 Z M 569.121094 488.484375 " clip-rule="nonzero"/></clipPath><clipPath id="4ad40e3108"><path d="M 750 488.484375 C 650.101562 488.484375 569.121094 569.464844 569.121094 669.363281 C 569.121094 769.261719 650.101562 850.242188 750 850.242188 C 849.898438 850.242188 930.878906 769.261719 930.878906 669.363281 C 930.878906 569.464844 849.898438 488.484375 750 488.484375 Z M 750 488.484375 " clip-rule="nonzero"/></clipPath><clipPath id="aa3fe36930"><path d="M 0.121094 0.484375 L 361.878906 0.484375 L 361.878906 362.242188 L 0.121094 362.242188 Z M 0.121094 0.484375 " clip-rule="nonzero"/></clipPath><clipPath id="59f47c9897"><path d="M 181 0.484375 C 81.101562 0.484375 0.121094 81.464844 0.121094 181.363281 C 0.121094 281.261719 81.101562 362.242188 181 362.242188 C 280.898438 362.242188 361.878906 281.261719 361.878906 181.363281 C 361.878906 81.464844 280.898438 0.484375 181 0.484375 Z M 181 0.484375 " clip-rule="nonzero"/></clipPath><clipPath id="9f844dcb59"><rect x="0" width="362" y="0" height="363"/></clipPath><clipPath id="f0f26576c5"><path d="M 569.121094 669.363281 L 930.878906 669.363281 L 930.878906 1031.121094 L 569.121094 1031.121094 Z M 569.121094 669.363281 " clip-rule="nonzero"/></clipPath><clipPath id="5ce6880e51"><path d="M 750 669.363281 C 650.101562 669.363281 569.121094 750.34375 569.121094 850.242188 C 569.121094 950.140625 650.101562 1031.121094 750 1031.121094 C 849.898438 1031.121094 930.878906 950.140625 930.878906 850.242188 C 930.878906 750.34375 849.898438 669.363281 750 669.363281 Z M 750 669.363281 " clip-rule="nonzero"/></clipPath><clipPath id="79b454f6f7"><path d="M 0.121094 0.363281 L 361.878906 0.363281 L 361.878906 362.121094 L 0.121094 362.121094 Z M 0.121094 0.363281 " clip-rule="nonzero"/></clipPath><clipPath id="c0c53dd4ae"><path d="M 181 0.363281 C 81.101562 0.363281 0.121094 81.34375 0.121094 181.242188 C 0.121094 281.140625 81.101562 362.121094 181 362.121094 C 280.898438 362.121094 361.878906 281.140625 361.878906 181.242188 C 361.878906 81.34375 280.898438 0.363281 181 0.363281 Z M 181 0.363281 " clip-rule="nonzero"/></clipPath><clipPath id="52e62d536d"><rect x="0" width="362" y="0" height="363"/></clipPath></defs><g clip-path="url(#18a53f7ebb)"><g clip-path="url(#185ec8e97b)"><g transform="matrix(1, 0, 0, 1, 610, 183)"><g clip-path="url(#e6856d35a0)"><g clip-path="url(#7f00a4f3ac)"><g clip-path="url(#8616caac62)"><path fill="#1c6c97" d="M 0.941406 0.472656 L 279.058594 0.472656 L 279.058594 278.59375 L 0.941406 278.59375 Z M 0.941406 0.472656 " fill-opacity="1" fill-rule="nonzero"/></g></g></g></g></g></g><g clip-path="url(#b176e5842d)"><g clip-path="url(#b5b37798ec)"><g transform="matrix(1, 0, 0, 1, 515, 1077)"><g clip-path="url(#5ac35646fe)"><g clip-path="url(#69623f078b)"><g clip-path="url(#3652d93407)"><path fill="#fc7300" d="M 469.449219 239.515625 L 0.691406 239.515625 L 0.691406 0.46875 L 469.449219 0.46875 Z M 469.449219 239.515625 " fill-opacity="1" fill-rule="nonzero"/></g></g></g></g></g></g><g clip-path="url(#b981b94c0e)"><g clip-path="url(#b38c312c69)"><g transform="matrix(1, 0, 0, 1, 569, 581)"><g clip-path="url(#f67fad845f)"><g clip-path="url(#f9a1c1ea77)"><g clip-path="url(#1c48735960)"><path fill="#a3e635" d="M 361.875 0.0429688 L 361.875 344.25 L 0.191406 344.25 L 0.191406 0.0429688 Z M 361.875 0.0429688 " fill-opacity="1" fill-rule="nonzero"/></g></g></g></g></g></g><g clip-path="url(#cb2670d8ce)"><g clip-path="url(#4ad40e3108)"><g transform="matrix(1, 0, 0, 1, 569, 488)"><g clip-path="url(#9f844dcb59)"><g clip-path="url(#aa3fe36930)"><g clip-path="url(#59f47c9897)"><path fill="#a3e635" d="M 0.121094 0.484375 L 361.878906 0.484375 L 361.878906 362.242188 L 0.121094 362.242188 Z M 0.121094 0.484375 " fill-opacity="1" fill-rule="nonzero"/></g></g></g></g></g></g><g clip-path="url(#f0f26576c5)"><g clip-path="url(#5ce6880e51)"><g transform="matrix(1, 0, 0, 1, 569, 669)"><g clip-path="url(#52e62d536d)"><g clip-path="url(#79b454f6f7)"><g clip-path="url(#c0c53dd4ae)"><path fill="#a3e635" d="M 0.121094 0.363281 L 361.878906 0.363281 L 361.878906 362.121094 L 0.121094 362.121094 Z M 0.121094 0.363281 " fill-opacity="1" fill-rule="nonzero"/></g></g></g></g></g></g></svg>