<?xml version="1.0" encoding="UTF-8"?>
<svg version="1.1" xmlns="http://www.w3.org/2000/svg" width="1472" height="832">
<path d="M0 0 C10.15546732 10.21841444 14.66221126 23.44747855 15.203125 37.65234375 C14.7249774 54.52032849 8.56615379 71.82241658 -2.109375 84.90234375 C-2.64046875 85.58296875 -3.1715625 86.26359375 -3.71875 86.96484375 C-8.4870507 92.77762936 -14.17231696 97.33080906 -20.109375 101.90234375 C-20.6559375 102.32386719 -21.2025 102.74539063 -21.765625 103.1796875 C-54.28714106 128.0882123 -91.9780589 147.82354576 -129.109375 164.90234375 C-127.96984375 164.68578125 -126.8303125 164.46921875 -125.65625 164.24609375 C-94.4197359 158.62131934 -67.74234059 163.52365432 -41.16796875 180.81640625 C-22.34718627 194.08057676 -8.0136844 212.29663323 3.68798828 231.88916016 C4.46638601 233.19217836 5.25083987 234.4916058 6.04248047 235.78662109 C21.7273006 261.51516986 30.50021895 291.42646212 39.890625 319.90234375 C40.43589844 319.00773437 40.98117187 318.113125 41.54296875 317.19140625 C46.36140621 309.41325653 51.40189664 302.41383958 57.890625 295.90234375 C58.56351563 295.20625 59.23640625 294.51015625 59.9296875 293.79296875 C75.82536332 278.43310223 96.70696414 274.4543225 118.03515625 274.6875 C139.1114141 275.23225478 157.01583756 283.44630986 171.734375 298.41015625 C173.890625 300.90234375 173.890625 300.90234375 177.890625 306.90234375 C178.220625 297.66234375 178.550625 288.42234375 178.890625 278.90234375 C185.490625 278.90234375 192.090625 278.90234375 198.890625 278.90234375 C198.890625 262.07234375 198.890625 245.24234375 198.890625 227.90234375 C216.050625 227.90234375 233.210625 227.90234375 250.890625 227.90234375 C250.890625 244.73234375 250.890625 261.56234375 250.890625 278.90234375 C260.460625 278.90234375 270.030625 278.90234375 279.890625 278.90234375 C279.890625 292.43234375 279.890625 305.96234375 279.890625 319.90234375 C270.320625 319.90234375 260.750625 319.90234375 250.890625 319.90234375 C250.98811923 325.68272542 251.09119278 331.46248113 251.20800781 337.24243164 C251.24603637 339.20428632 251.28093224 341.16620455 251.3125 343.12817383 C250.42899564 360.17430287 250.42899564 360.17430287 255.953125 375.27734375 C260.44113865 376.23224027 263.75578216 374.63699528 267.890625 372.90234375 C269.540625 372.24234375 271.190625 371.58234375 272.890625 370.90234375 C276.850625 383.77234375 276.850625 383.77234375 280.890625 396.90234375 C281.220625 357.96234375 281.550625 319.02234375 281.890625 278.90234375 C299.380625 278.90234375 316.870625 278.90234375 334.890625 278.90234375 C335.220625 283.19234375 335.550625 287.48234375 335.890625 291.90234375 C337.334375 290.52046875 338.778125 289.13859375 340.265625 287.71484375 C351.30410304 277.82523684 364.1154186 274.07506342 378.80078125 274.53125 C384.11730332 274.87674167 388.95317356 276.33724373 394 278.02734375 C397.02534004 279.09549055 397.02534004 279.09549055 400.890625 278.90234375 C418.050625 278.90234375 435.210625 278.90234375 452.890625 278.90234375 C452.890625 325.43234375 452.890625 371.96234375 452.890625 419.90234375 C435.730625 419.90234375 418.570625 419.90234375 400.890625 419.90234375 C400.560625 380.63234375 400.230625 341.36234375 399.890625 300.90234375 C395.270625 310.14234375 390.650625 319.38234375 385.890625 328.90234375 C382.890625 328.90234375 382.890625 328.90234375 379.953125 327.08984375 C372.31399682 322.54197295 362.33468305 320.47647156 353.61328125 322.40625 C347.47526181 324.19352688 342.84070938 326.57355542 339.55317688 332.18536377 C335.20265828 341.52119996 335.15633377 350.0553327 335.18359375 360.13671875 C335.17045213 361.86836466 335.15514043 363.59999533 335.13777161 365.331604 C335.09819647 369.84920464 335.08774907 374.3664018 335.08374023 378.88415527 C335.07270142 384.32605236 335.02482567 389.76773962 334.98325348 395.20947266 C334.92443116 403.44060873 334.91188057 411.67063952 334.890625 419.90234375 C317.400625 419.90234375 299.910625 419.90234375 281.890625 419.90234375 C281.560625 418.91234375 281.230625 417.92234375 280.890625 416.90234375 C279.1271875 417.79953125 279.1271875 417.79953125 277.328125 418.71484375 C261.94068592 425.46035136 242.80246642 426.30759411 226.890625 420.90234375 C223.64055564 419.526733 220.79397456 417.90255213 217.890625 415.90234375 C217.21515625 415.46792969 216.5396875 415.03351563 215.84375 414.5859375 C211.02209378 411.00707252 208.30266875 406.64146294 205.578125 401.40234375 C205.25255615 400.79285889 204.9269873 400.18337402 204.59155273 399.55541992 C197.09522205 384.11652519 198.51558765 366.65917326 198.68463135 349.98577881 C198.71574029 346.58627971 198.7291104 343.18671084 198.74414062 339.78710938 C198.77694318 333.15865279 198.82858364 326.53058851 198.890625 319.90234375 C193.940625 319.90234375 188.990625 319.90234375 183.890625 319.90234375 C184.365 321.73796875 184.839375 323.57359375 185.328125 325.46484375 C187.35485481 333.30740692 188.05261062 340.71447788 188.015625 348.77734375 C188.01949219 349.64359375 188.02335937 350.50984375 188.02734375 351.40234375 C188.02541016 352.63597656 188.02541016 352.63597656 188.0234375 353.89453125 C188.02230957 354.6407373 188.02118164 355.38694336 188.02001953 356.15576172 C187.890625 357.90234375 187.890625 357.90234375 186.890625 358.90234375 C183.87712262 358.99763987 180.88658394 359.02786279 177.87280273 359.01586914 C176.92656036 359.01601517 175.98031799 359.01616119 175.00540161 359.01631165 C171.86165108 359.01561211 168.71795899 359.00781784 165.57421875 359 C163.40088432 358.99813596 161.22754948 358.99671199 159.05421448 358.99571228 C153.32161305 358.99188596 147.58903677 358.98205472 141.85644531 358.9710083 C136.01172221 358.96079662 130.16699507 358.95621518 124.32226562 358.95117188 C112.845041 358.94043255 101.36783509 358.92335477 89.890625 358.90234375 C90.33819878 360.50063293 90.79428366 362.09654021 91.25390625 363.69140625 C91.50696533 364.58037598 91.76002441 365.4693457 92.02075195 366.38525391 C93.8448197 371.66342918 97.02247144 374.63953957 101.953125 377.21484375 C110.98604399 381.45405524 122.22440587 381.25422763 131.57421875 378.01953125 C136.67484496 375.55953277 141.17718181 371.98193766 144.7734375 367.6171875 C146.890625 365.90234375 146.890625 365.90234375 149.7109375 365.9296875 C153.33273617 367.03758415 156.48946052 368.60608608 159.765625 370.46484375 C161.07836196 371.18813445 162.39220575 371.90941917 163.70703125 372.62890625 C164.72627686 373.18819824 164.72627686 373.18819824 165.76611328 373.75878906 C169.37147421 375.69943611 173.03556278 377.52024889 176.703125 379.33984375 C177.73445557 379.85236694 177.73445557 379.85236694 178.78662109 380.37524414 C180.48721401 381.21910708 182.18883741 382.06089267 183.890625 382.90234375 C184.550625 383.23234375 185.210625 383.56234375 185.890625 383.90234375 C183.82672496 395.17639772 172.00468943 404.9159664 163.140625 411.15234375 C152.8116168 417.72891479 141.84765328 420.73632149 129.890625 422.90234375 C128.97023438 423.08796875 128.04984375 423.27359375 127.1015625 423.46484375 C105.29215699 426.43644158 84.68188725 422.31938297 66.52124023 409.84912109 C63.03713198 407.42921512 63.03713198 407.42921512 58.890625 406.90234375 C57.24938105 408.62830418 57.24938105 408.62830418 55.703125 410.90234375 C40.13381163 431.6506387 17.28648751 443.83420521 -8.109375 447.90234375 C-11.40288995 448.16056902 -14.67567364 448.18578089 -17.97822571 448.17649841 C-18.91933722 448.18173509 -19.86044874 448.18697177 -20.83007878 448.19236714 C-23.95618059 448.20726387 -27.08211722 448.20807002 -30.20825195 448.20874023 C-32.46134209 448.21636896 -34.71442963 448.22479768 -36.96751404 448.23396301 C-43.0714481 448.25585159 -49.17533206 448.2647 -55.27930093 448.26978946 C-59.10176127 448.27344142 -62.92420866 448.27968601 -66.74666405 448.28679085 C-77.36102856 448.30623798 -87.9753823 448.32275564 -98.5897646 448.32566738 C-99.26761639 448.32585495 -99.94546819 448.32604252 -100.64386095 448.32623577 C-102.0176415 448.32660199 -103.39142206 448.32696569 -104.76520262 448.32732689 C-105.44701437 448.3275097 -106.12882612 448.32769251 -106.83129883 448.32788086 C-107.85528747 448.32815168 -107.85528747 448.32815168 -108.89996275 448.32842798 C-119.9365218 448.33196201 -130.97288482 448.35894042 -142.00937603 448.39637875 C-153.38112587 448.43464063 -164.75274735 448.45338697 -176.12457436 448.45412689 C-182.49290104 448.45491583 -188.86097481 448.46347614 -195.22924232 448.49212456 C-201.23027462 448.51851749 -207.23084821 448.520393 -213.23191261 448.50446892 C-215.41780101 448.50267087 -217.60371708 448.50919373 -219.78954697 448.52528763 C-237.89963865 448.65035137 -255.96490002 446.78747635 -272.109375 437.90234375 C-273.6937648 360.62474685 -259.8940679 270.81805269 -206.109375 211.90234375 C-205.62275391 211.36512695 -205.13613281 210.82791016 -204.63476562 210.27441406 C-196.6561522 201.57844795 -187.85958199 194.78491404 -178.07128906 188.23046875 C-175.04147945 186.1794279 -172.07758817 184.04131721 -169.109375 181.90234375 C-169.71072266 182.13832275 -170.31207031 182.37430176 -170.93164062 182.61743164 C-231.33964285 206.17221482 -231.33964285 206.17221482 -251.359375 199.83984375 C-256.17973924 197.66714289 -260.14964897 194.3544126 -264.109375 190.90234375 C-264.85316406 190.26554688 -265.59695313 189.62875 -266.36328125 188.97265625 C-279.07009482 177.26028896 -288.11729897 158.61243656 -289.28637695 141.27783203 C-289.85310975 115.33456581 -284.72704872 94.53064868 -266.49902344 75.33398438 C-251.44663542 59.82674556 -232.88317735 50.18991325 -214.109375 39.90234375 C-212.16533565 38.8320838 -210.22132412 37.76177332 -208.27734375 36.69140625 C-203.74092953 34.19931077 -199.19304765 31.72919007 -194.63818359 29.27099609 C-192.26533106 27.98675094 -189.89998786 26.68955905 -187.53515625 25.390625 C-137.99214132 -1.55524333 -51.4134103 -43.2696831 0 0 Z M94.953125 317.77734375 C92.5073265 321.1900788 92.5073265 321.1900788 90.890625 326.90234375 C105.740625 326.90234375 120.590625 326.90234375 135.890625 326.90234375 C132.80111241 319.69348104 130.59252157 314.91477769 123.42578125 311.6328125 C113.60103176 308.80195248 102.07543837 309.95514987 94.953125 317.77734375 Z " fill="#FC7300" transform="translate(457.109375,259.09765625)"/>
<path d="M0 0 C10.15546732 10.21841444 14.66221126 23.44747855 15.203125 37.65234375 C14.7249774 54.52032849 8.56615379 71.82241658 -2.109375 84.90234375 C-2.64046875 85.58296875 -3.1715625 86.26359375 -3.71875 86.96484375 C-8.4870507 92.77762936 -14.17231696 97.33080906 -20.109375 101.90234375 C-20.6559375 102.32386719 -21.2025 102.74539063 -21.765625 103.1796875 C-74.08348711 143.25041371 -177.90015746 206.61602083 -247.109375 200.90234375 C-253.95347063 199.61100495 -258.96797308 195.38459157 -264.109375 190.90234375 C-264.85316406 190.26554688 -265.59695313 189.62875 -266.36328125 188.97265625 C-279.07009482 177.26028896 -288.11729897 158.61243656 -289.28637695 141.27783203 C-289.85310975 115.33456581 -284.72704872 94.53064868 -266.49902344 75.33398438 C-251.44663542 59.82674556 -232.88317735 50.18991325 -214.109375 39.90234375 C-212.16533565 38.8320838 -210.22132412 37.76177332 -208.27734375 36.69140625 C-203.74092953 34.19931077 -199.19304765 31.72919007 -194.63818359 29.27099609 C-192.26533106 27.98675094 -189.89998786 26.68955905 -187.53515625 25.390625 C-137.99214132 -1.55524333 -51.4134103 -43.2696831 0 0 Z " fill="#91D256" transform="translate(457.109375,259.09765625)"/>
<path d="M0 0 C0.93070312 0.28875 1.86140625 0.5775 2.8203125 0.875 C9.76030657 3.31161234 15.2595443 7.4858336 21 12 C21.62648438 12.44859375 22.25296875 12.8971875 22.8984375 13.359375 C38.3187369 25.08749004 45.24769759 45.91738282 48.5859375 64.2109375 C50.88791641 85.27621623 48.94589021 106.63477884 40 126 C39.58234375 126.928125 39.1646875 127.85625 38.734375 128.8125 C32.45980448 141.50588404 21.91843635 152.41528797 8.4765625 157.2734375 C-18.3467535 165.33759007 -45.82738637 158.84305457 -70.12939453 146.03222656 C-74.99250034 143.34869597 -79.53344599 140.29319222 -84 137 C-85.25490234 136.07960937 -85.25490234 136.07960937 -86.53515625 135.140625 C-103.99744744 121.74641116 -118.98446359 104.54188108 -122 82 C-123.217005 65.28958515 -117.30329065 49.62959248 -107 36.5625 C-105.67643391 35.03315876 -104.34354383 33.51182069 -103 32 C-102.44441406 31.29101562 -101.88882812 30.58203125 -101.31640625 29.8515625 C-77.76312852 0.79027996 -35.28768882 -11.52251064 0 0 Z " fill="#5482A6" transform="translate(365,80)"/>
<path d="M0 0 C5.12961115 4.39680956 9.84839866 8.45164809 12 15 C12.9590625 14.01 12.9590625 14.01 13.9375 13 C28.11311651 -1.09575389 41.31378285 -9.2668952 61.55639648 -9.3190918 C68.90343774 -9.21068709 75.1954909 -7.83365859 82 -5 C82.87914062 -4.649375 83.75828125 -4.29875 84.6640625 -3.9375 C96.02737137 1.12849529 103.82524522 9.47310251 108.34695435 21.02394104 C112.08076825 32.32213494 111.25581302 44.33808299 111.1953125 56.07421875 C111.19157682 58.21083951 111.18873247 60.34746199 111.18673706 62.48408508 C111.17914431 68.07519357 111.15953374 73.66619618 111.1373291 79.25726318 C111.11315511 85.9830176 111.10406893 92.70880766 111.09242249 99.4345932 C111.07310645 109.6231355 111.03475345 119.81144603 111 130 C95.49 130 79.98 130 64 130 C63.94392578 121.151875 63.94392578 121.151875 63.88671875 112.125 C63.85642809 108.37887752 63.82527305 104.63280193 63.79101562 100.88671875 C63.7367719 94.94615084 63.68565865 89.00567566 63.65356445 83.06494141 C63.62747662 78.2731667 63.5870355 73.48170491 63.53681374 68.69012451 C63.52018204 66.86582341 63.5086448 65.04146823 63.50238609 63.21710205 C63.49270462 60.65351884 63.46459787 58.09072952 63.43237305 55.52734375 C63.43380814 54.77999466 63.43524323 54.03264557 63.4367218 53.26264954 C63.31887109 46.59499731 61.52012326 41.3248944 57.875 35.75 C52.70645168 30.80617117 47.52306855 28.78833184 40.375 28.5625 C34.10602243 28.82516666 30.12767024 30.21082275 25.25 34.3125 C19.58099133 41.08381591 18.86034858 47.5512114 18.79467773 56.0949707 C18.78477814 56.89549362 18.77487854 57.69601654 18.76467896 58.52079773 C18.73319723 61.15576258 18.70835945 63.79074544 18.68359375 66.42578125 C18.6630127 68.25709999 18.64201593 70.0884141 18.62062073 71.91972351 C18.56551889 76.73158004 18.51605733 81.54347859 18.46777344 86.35540771 C18.40862198 92.13328888 18.3424596 97.91109352 18.27747345 103.68891144 C18.17961357 112.45922741 18.09065518 121.22959326 18 130 C2.82 130 -12.36 130 -28 130 C-28.03738281 124.50859375 -28.07476562 119.0171875 -28.11328125 113.359375 C-28.14359347 109.85934493 -28.17476252 106.35936372 -28.20898438 102.859375 C-28.26310107 97.31643277 -28.31421812 91.77358718 -28.34643555 86.23046875 C-28.37263949 81.7563757 -28.41315967 77.28261127 -28.46318626 72.80872345 C-28.47974033 71.11053843 -28.49132536 69.41229672 -28.49761391 67.71404266 C-28.54426413 56.26326215 -29.20567645 45.62711049 -34 35 C-35.81601365 33.79996657 -35.81601365 33.79996657 -38 33 C-38.804375 32.484375 -39.60875 31.96875 -40.4375 31.4375 C-45.79686163 28.43102884 -51.97771135 28.34002316 -58 29 C-63.31807449 30.67269351 -67.0052334 33.23055689 -70 38 C-72.72469547 43.40406056 -73.44357852 47.5878569 -73.43237305 53.59741211 C-73.4425647 54.42748779 -73.45275635 55.25756348 -73.46325684 56.11279297 C-73.493256 58.83437972 -73.50263263 61.55561375 -73.51171875 64.27734375 C-73.52857515 66.17307188 -73.54672668 68.06878889 -73.56611633 69.9644928 C-73.61351806 74.93743416 -73.64339095 79.91033045 -73.66955566 84.88342285 C-73.70466623 90.85914614 -73.76165098 96.83469642 -73.81494904 102.81027985 C-73.89334769 111.87349766 -73.9440405 120.93649078 -74 130 C-89.51 130 -105.02 130 -121 130 C-121 85.45 -121 40.9 -121 -5 C-105.49 -5 -89.98 -5 -74 -5 C-73.505 1.435 -73.505 1.435 -73 8 C-71.4325 6.63875 -69.865 5.2775 -68.25 3.875 C-49.05848466 -11.78902602 -21.10041638 -14.48685304 0 0 Z " fill="#1C6B96" transform="translate(378,546)"/>
<path d="M0 0 C0 -2.97 0 -5.94 0 -9 C17.16 -9 34.32 -9 52 -9 C52 37.53 52 84.06 52 132 C34.84 132 17.68 132 0 132 C-0.33 128.7 -0.66 125.4 -1 122 C-1.75023437 122.53109375 -2.50046875 123.0621875 -3.2734375 123.609375 C-19.22773439 134.62065295 -36.16892855 138.53237966 -55.4140625 135.34765625 C-68.87880593 132.7135451 -81.12680212 126.69490086 -91 117 C-91 116.34 -91 115.68 -91 115 C-91.66 115 -92.32 115 -93 115 C-109.18564361 97.03393559 -113.39418062 75.35885422 -112.21875 51.88330078 C-110.72001478 32.12876623 -100.66992987 14.40246729 -86.05078125 1.37109375 C-79.51682469 -3.8133659 -72.89195802 -7.34855165 -65 -10 C-64.11441406 -10.31839844 -63.22882812 -10.63679687 -62.31640625 -10.96484375 C-40.47322308 -17.68820651 -18.70169708 -11.71296268 0 0 Z M-49 40 C-55.56661526 47.33995631 -57.59971231 55.3798317 -57.37109375 65.0625 C-56.44009305 72.43210551 -53.61205068 78.99178196 -48.125 84.0625 C-41.1384016 89.42977466 -33.96906133 91.46832864 -25.26171875 90.78515625 C-18.85374911 89.85453825 -14.11503866 87.95806563 -9 84 C-7.9171875 83.1646875 -7.9171875 83.1646875 -6.8125 82.3125 C-1.08334636 75.00289019 1.45382579 67.51429102 0.8125 58.30859375 C-0.36430655 49.494803 -4.02841172 43.0916907 -11 37.5625 C-23.14159788 29.23814691 -37.80558433 30.94796388 -49 40 Z " fill="#1B6B96" transform="translate(1027,547)"/>
<path d="M0 0 C13.29959519 11.76870653 20.21655574 25.91432768 22.71484375 43.40234375 C22.71484375 49.67234375 22.71484375 55.94234375 22.71484375 62.40234375 C-9.62515625 62.40234375 -41.96515625 62.40234375 -75.28515625 62.40234375 C-72.87720272 75.88778781 -72.87720272 75.88778781 -63.84765625 84.77734375 C-54.6465374 90.6700102 -43.58099618 90.72805125 -33.08203125 88.8203125 C-26.55831215 86.77932038 -22.19276552 83.10291073 -17.37890625 78.328125 C-15.28515625 76.40234375 -15.28515625 76.40234375 -12.28515625 75.40234375 C-9.760266 76.44618569 -7.40990842 77.5502501 -4.9921875 78.8046875 C-4.28615891 79.16123917 -3.58013031 79.51779083 -2.85270691 79.88514709 C-0.59616547 81.02742493 1.65303229 82.18340453 3.90234375 83.33984375 C5.42987545 84.11614627 6.95786506 84.89154848 8.48632812 85.66601562 C12.23456219 87.56771439 15.97626787 89.48173211 19.71484375 91.40234375 C17.30153451 102.15636384 5.82156924 110.96600604 -3.03515625 116.65234375 C-22.17943286 127.540084 -47.03074607 130.60799758 -68.56640625 126.15234375 C-89.4967467 120.37845673 -105.62659173 107.45679415 -116.7421875 88.98046875 C-125.6517313 72.50723368 -126.58888005 53.96296394 -122.3828125 35.92578125 C-116.35692145 16.58288543 -101.99633012 0.92269324 -84.28515625 -8.59765625 C-57.86769175 -20.8931922 -23.01917844 -18.56983388 0 0 Z M-67.22265625 24.27734375 C-69.66845475 27.6900788 -69.66845475 27.6900788 -71.28515625 33.40234375 C-56.43515625 33.40234375 -41.58515625 33.40234375 -26.28515625 33.40234375 C-29.37466884 26.19348104 -31.58325968 21.41477769 -38.75 18.1328125 C-48.57474949 15.30195248 -60.10034288 16.45514987 -67.22265625 24.27734375 Z " fill="#1C6B96" transform="translate(619.28515625,552.59765625)"/>
<path d="M0 0 C15.51 0 31.02 0 47 0 C47 16.83 47 33.66 47 51 C56.24 51 65.48 51 75 51 C75 62.55 75 74.1 75 86 C65.76 86 56.52 86 47 86 C47.07402989 93.43872769 47.15689361 100.87626006 47.26245117 108.31445312 C47.29567514 110.84401225 47.32371489 113.37364505 47.34643555 115.90332031 C47.38002704 119.54263667 47.43234754 123.18127934 47.48828125 126.8203125 C47.49467117 127.94865509 47.5010611 129.07699768 47.50764465 130.23953247 C47.64539255 138.04455092 47.64539255 138.04455092 51 145 C54.77513553 147.51675702 56.5093291 147.36808778 61 147 C63.76765757 146.16292874 66.32775632 145.12515524 69 144 C71.93476994 151.44349471 74.19142077 158.99416837 76.2487793 166.71630859 C77.08790549 169.84102559 77.8946757 172.76285046 79.2109375 175.7265625 C80.23366961 178.6732461 80.21791905 180.11997965 79 183 C76.41015625 184.51171875 76.41015625 184.51171875 73.0625 185.6875 C71.98097656 186.08324219 70.89945313 186.47898437 69.78515625 186.88671875 C56.25557177 190.8660083 38.46856143 193.31631982 25.25 187.2578125 C24.5075 186.84273437 23.765 186.42765625 23 186 C21.7934375 185.34644531 21.7934375 185.34644531 20.5625 184.6796875 C15.04250896 181.35679815 11.38555797 177.44814405 8 172 C7.44892578 171.12794922 7.44892578 171.12794922 6.88671875 170.23828125 C0.57629801 159.00621963 -0.59061823 146.35333343 -0.390625 133.75390625 C-0.3831353 132.36287768 -0.37745535 130.97183833 -0.37347412 129.58079529 C-0.35843153 125.97542539 -0.31934463 122.37073297 -0.2746582 118.765625 C-0.23323434 115.06454628 -0.21536415 111.36335466 -0.1953125 107.66210938 C-0.15282078 100.44106625 -0.08265689 93.22071554 0 86 C-6.6 86 -13.2 86 -20 86 C-20 74.45 -20 62.9 -20 51 C-13.4 51 -6.8 51 0 51 C0 34.17 0 17.34 0 0 Z " fill="#1C6B96" transform="translate(659,490)"/>
<path d="M0 0 C2.4140625 1.66796875 2.4140625 1.66796875 4 3 C2.51486965 7.85142583 0.53531013 12.26758242 -1.6953125 16.8046875 C-2.04761932 17.5286673 -2.39992615 18.25264709 -2.76290894 18.99856567 C-3.8801375 21.29242118 -5.00247997 23.58373004 -6.125 25.875 C-6.88705891 27.43733412 -7.64878119 28.9998325 -8.41015625 30.5625 C-10.2695481 34.37691134 -12.13352798 38.18904847 -14 42 C-16.17942068 41.48727896 -18.08515261 40.96109541 -20.12890625 40.02734375 C-26.32041002 37.25458363 -31.9907669 36.56818161 -38.6875 36.5 C-39.48293213 36.48187256 -40.27836426 36.46374512 -41.09790039 36.44506836 C-47.73762437 36.51194129 -52.77259042 38.4051627 -57.953125 42.5703125 C-66.31098588 52.58967584 -66.60301188 63.1196039 -66.609375 75.6015625 C-66.62437931 77.29122484 -66.64111113 78.98087265 -66.65948486 80.67050171 C-66.70291837 85.08612799 -66.72310378 89.50155651 -66.73822021 93.9173584 C-66.76134365 99.2323933 -66.81374524 104.54721276 -66.86116028 109.86207581 C-66.92970226 117.90810633 -66.96137072 125.95352013 -67 134 C-82.51 134 -98.02 134 -114 134 C-114 89.45 -114 44.9 -114 -1 C-98.49 -1 -82.98 -1 -67 -1 C-66.505 7.415 -66.505 7.415 -66 16 C-64.39125 14.30875 -62.7825 12.6175 -61.125 10.875 C-44.35671774 -6.12260915 -21.58827749 -9.85069217 0 0 Z " fill="#1C6B96" transform="translate(856,542)"/>
<path d="M0 0 C2.5 2.75 2.5 2.75 4 5 C4.33 2.36 4.66 -0.28 5 -3 C12.26 -3 19.52 -3 27 -3 C27.495 -2.01 27.495 -2.01 28 -1 C29.1446875 -1.7425 29.1446875 -1.7425 30.3125 -2.5 C35.28101775 -4.52109197 39.70651036 -4.25431356 45 -4 C45 -1.69 45 0.62 45 3 C45.99 2.1028125 45.99 2.1028125 47 1.1875 C55.3957977 -4.93443582 65.59206217 -5.82314833 75.6875 -4.4375 C83.89781771 -2.67222245 90.32201189 2.12060572 95 9 C99.12258118 16.5343725 99.10946631 25.60593022 98 34 C95.39357025 42.64519499 89.78793536 48.57156617 82 53 C72.98593353 56.10829878 63.00435791 56.15152527 54 53 C45.33961342 48.71027581 40.80498421 43.09937899 37.71875 34.02734375 C36.48111418 28.81447548 35.52774331 21.94451337 38 17 C35.36 17.66 32.72 18.32 30 19 C27.41704496 25.98237846 27.55370011 33.06239767 27.375 40.4375 C27.33632812 41.74138672 27.29765625 43.04527344 27.2578125 44.38867188 C27.16393548 47.5922251 27.080896 50.7960927 27 54 C19.74 54 12.48 54 5 54 C4.505 50.04 4.505 50.04 4 46 C3.48050781 46.48210938 2.96101563 46.96421875 2.42578125 47.4609375 C1.72839844 48.09257813 1.03101563 48.72421875 0.3125 49.375 C-0.37199219 50.00148438 -1.05648438 50.62796875 -1.76171875 51.2734375 C-5.77714835 54.3708544 -9.34959049 55.29090082 -14.375 55.3125 C-15.26960938 55.32925781 -16.16421875 55.34601562 -17.0859375 55.36328125 C-20 55 -20 55 -27 52 C-27.33 59.26 -27.66 66.52 -28 74 C-35.59 74 -43.18 74 -51 74 C-51 48.59 -51 23.18 -51 -3 C-43.74 -3 -36.48 -3 -29 -3 C-28.67 -2.34 -28.34 -1.68 -28 -1 C-27.278125 -1.474375 -26.55625 -1.94875 -25.8125 -2.4375 C-17.67505883 -6.95830065 -7.47681431 -5.23721555 0 0 Z M-28 18 C-29.65386775 24.46921061 -29.21150066 29.19459496 -26 35 C-24.13381448 36.86618552 -21.50222346 36.3485526 -19.0078125 36.5234375 C-16.77211507 36.15367634 -16.77211507 36.15367634 -15.2734375 33.8515625 C-13.10194931 28.9890276 -13.22940896 24.21409262 -14 19 C-16.31154425 15.56570569 -17.53607716 14.32134892 -21.5625 13.4375 C-25.01108497 14.2333273 -26.01789266 15.02683899 -28 18 Z M61 18 C58.79204226 22.41591548 59.55596926 28.4458924 60.875 33.0625 C61.85315112 35.15529594 61.85315112 35.15529594 64 36 C67.73671591 36.34599221 70.11909553 36.53317902 73.375 34.5625 C75.74405364 30.82668464 76.20704286 27.39226628 76 23 C75.05275134 19.41398723 73.65112692 16.65112692 71 14 C66.06221771 13.35594144 64.08744152 14.11211068 61 18 Z " fill="#03BF65" transform="translate(1136,541)"/>
<path d="M0 0 C15.18 0 30.36 0 46 0 C46 44.55 46 89.1 46 135 C30.82 135 15.64 135 0 135 C0 90.45 0 45.9 0 0 Z " fill="#1B6B96" transform="translate(861,541)"/>
<path d="M0 0 C17.16 0 34.32 0 52 0 C52 16.83 52 33.66 52 51 C61.57 51 71.14 51 81 51 C81 64.53 81 78.06 81 92 C71.43 92 61.86 92 52 92 C52.09749423 97.78038167 52.20056778 103.56013738 52.31738281 109.34008789 C52.35541137 111.30194257 52.39030724 113.2638608 52.421875 115.22583008 C51.53837064 132.27195912 51.53837064 132.27195912 57.0625 147.375 C61.55051365 148.32989652 64.86515716 146.73465153 69 145 C71.475 144.01 71.475 144.01 74 143 C76.64 151.58 79.28 160.16 82 169 C82.33 130.06 82.66 91.12 83 51 C100.49 51 117.98 51 136 51 C136.33 55.29 136.66 59.58 137 64 C138.44375 62.618125 139.8875 61.23625 141.375 59.8125 C152.41347804 49.92289309 165.2247936 46.17271967 179.91015625 46.62890625 C185.22667832 46.97439792 190.06254856 48.43489998 195.109375 50.125 C198.13471504 51.1931468 198.13471504 51.1931468 202 51 C219.16 51 236.32 51 254 51 C254 97.53 254 144.06 254 192 C236.84 192 219.68 192 202 192 C201.505 133.095 201.505 133.095 201 73 C194.07 86.86 194.07 86.86 187 101 C184 101 184 101 181.0625 99.1875 C173.42337182 94.6396292 163.44405805 92.57412781 154.72265625 94.50390625 C148.58463681 96.29118313 143.95008438 98.67121167 140.66255188 104.28302002 C136.31203328 113.61885621 136.26570877 122.15298895 136.29296875 132.234375 C136.27982713 133.96602091 136.26451543 135.69765158 136.24714661 137.42926025 C136.20757147 141.94686089 136.19712407 146.46405805 136.19311523 150.98181152 C136.18207642 156.42370861 136.13420067 161.86539587 136.09262848 167.30712891 C136.03380616 175.53826498 136.02125557 183.76829577 136 192 C118.51 192 101.02 192 83 192 C82.67 191.01 82.34 190.02 82 189 C80.824375 189.598125 79.64875 190.19625 78.4375 190.8125 C63.05006092 197.55800761 43.91184142 198.40525036 28 193 C24.74993064 191.62438925 21.90334956 190.00020838 19 188 C17.98679687 187.34837891 17.98679687 187.34837891 16.953125 186.68359375 C12.13146878 183.10472877 9.41204375 178.73911919 6.6875 173.5 C6.36193115 172.89051514 6.0363623 172.28103027 5.70092773 171.65307617 C-1.79540295 156.21418144 -0.37503735 138.75682951 -0.20599365 122.08343506 C-0.17488471 118.68393596 -0.1615146 115.28436709 -0.14648438 111.88476562 C-0.11368182 105.25630904 -0.06204136 98.62824476 0 92 C-4.95 92 -9.9 92 -15 92 C-14.525625 93.835625 -14.05125 95.67125 -13.5625 97.5625 C-11.53577019 105.40506317 -10.83801438 112.81213413 -10.875 120.875 C-10.87113281 121.74125 -10.86726562 122.6075 -10.86328125 123.5 C-10.86521484 124.73363281 -10.86521484 124.73363281 -10.8671875 125.9921875 C-10.86831543 126.73839355 -10.86944336 127.48459961 -10.87060547 128.25341797 C-11 130 -11 130 -12 131 C-15.01350238 131.09529612 -18.00404106 131.12551904 -21.01782227 131.11352539 C-21.96406464 131.11367142 -22.91030701 131.11381744 -23.88522339 131.1139679 C-27.02897392 131.11326836 -30.17266601 131.10547409 -33.31640625 131.09765625 C-35.48974068 131.09579221 -37.66307552 131.09436824 -39.83641052 131.09336853 C-45.56901195 131.08954221 -51.30158823 131.07971097 -57.03417969 131.06866455 C-62.87890279 131.05845287 -68.72362993 131.05387143 -74.56835938 131.04882812 C-86.045584 131.0380888 -97.52278991 131.02101102 -109 131 C-108.55242622 132.59828918 -108.09634134 134.19419646 -107.63671875 135.7890625 C-107.38365967 136.67803223 -107.13060059 137.56700195 -106.86987305 138.48291016 C-105.0458053 143.76108543 -101.86815356 146.73719582 -96.9375 149.3125 C-87.90458101 153.55171149 -76.66621913 153.35188388 -67.31640625 150.1171875 C-62.21578004 147.65718902 -57.71344319 144.07959391 -54.1171875 139.71484375 C-52 138 -52 138 -49.1796875 138.02734375 C-45.55788883 139.1352404 -42.40116448 140.70374233 -39.125 142.5625 C-37.81226304 143.2857907 -36.49841925 144.00707542 -35.18359375 144.7265625 C-34.16434814 145.28585449 -34.16434814 145.28585449 -33.12451172 145.85644531 C-29.51915079 147.79709236 -25.85506222 149.61790514 -22.1875 151.4375 C-21.15616943 151.95002319 -21.15616943 151.95002319 -20.10400391 152.47290039 C-18.40341099 153.31676333 -16.70178759 154.15854892 -15 155 C-14.34 155.33 -13.68 155.66 -13 156 C-15.06390004 167.27405397 -26.88593557 177.01362265 -35.75 183.25 C-46.0790082 189.82657104 -57.04297172 192.83397774 -69 195 C-69.92039062 195.185625 -70.84078125 195.37125 -71.7890625 195.5625 C-94.59393875 198.66973375 -116.66330944 193.9304089 -135.33789062 180.30957031 C-148.65115732 169.82009285 -159.96660998 152.74944879 -163 136 C-165.27939312 114.56002112 -162.50397533 94.18906534 -149.1875 76.875 C-135.82225742 60.9025226 -119.00040908 49.82608051 -98 47 C-75.32649629 45.20432026 -53.30125571 48.64362615 -35 63 C-29.43270735 67.96832875 -25.15883538 72.76174693 -21 79 C-20.67 69.76 -20.34 60.52 -20 51 C-13.4 51 -6.8 51 0 51 C0 34.17 0 17.34 0 0 Z M3 3 C3 19.83 3 36.66 3 54 C-3.6 54 -10.2 54 -17 54 C-17 65.55 -17 77.1 -17 89 C-10.4 89 -3.8 89 3 89 C2.9685791 91.74485718 2.9685791 91.74485718 2.93652344 94.54516602 C2.87152026 100.65183975 2.82583584 106.75843052 2.79275131 112.8653574 C2.77204583 116.56107304 2.74404901 120.25640778 2.69824219 123.9519043 C2.65416436 127.53109815 2.63073556 131.1099302 2.62049103 134.68937492 C2.60971134 136.69144013 2.5785896 138.69336364 2.54681396 140.69520569 C2.54328648 155.40850072 5.95167416 171.25258935 16.2109375 182.40625 C25.23782431 190.44766882 35.69973486 193.56760639 47.5625 193.4375 C48.51979004 193.43137695 49.47708008 193.42525391 50.46337891 193.41894531 C62.01302515 193.16815961 72.92452983 190.8773576 83 185 C82.42053262 180.02040118 81.33721236 175.60451593 79.6875 170.875 C79.23552529 169.56560511 78.78503288 168.25569773 78.3359375 166.9453125 C78.11131836 166.29079102 77.88669922 165.63626953 77.65527344 164.96191406 C76.29154516 160.87885875 75.1020834 156.74074492 73.89453125 152.609375 C73.06014551 149.8140774 73.06014551 149.8140774 71 147 C69.4840625 147.7425 69.4840625 147.7425 67.9375 148.5 C64.13301636 150.09865171 61.15305479 150.61526738 57 150 C53.84045695 147.45862841 52.28459114 145.85377341 51 142 C50.88446109 140.26722838 50.82354865 138.53056879 50.79467773 136.79418945 C50.77473251 135.73331619 50.75478729 134.67244293 50.73423767 133.579422 C50.71752518 132.43559555 50.70081268 131.2917691 50.68359375 130.11328125 C50.66281265 128.94113571 50.64203156 127.76899017 50.62062073 126.56132507 C50.55516182 122.81177714 50.49625704 119.06215837 50.4375 115.3125 C50.39431132 112.77277909 50.35069692 110.23306538 50.30664062 107.69335938 C50.19868196 101.46231118 50.09958072 95.23121031 50 89 C59.24 89 68.48 89 78 89 C78 77.45 78 65.9 78 54 C68.76 54 59.52 54 50 54 C50 37.17 50 20.34 50 3 C34.49 3 18.98 3 3 3 Z M-145 76 C-147.67386289 79.17491107 -149.90492339 82.42022344 -152 86 C-152.54269531 86.91136719 -153.08539063 87.82273437 -153.64453125 88.76171875 C-161.98231966 103.95637451 -163.80296231 123.73302976 -159.375 140.5 C-152.71018836 160.30865618 -139.47461602 176.06927477 -121 186 C-103.62592933 194.08645017 -81.62017056 196.13659877 -63 191 C-61.45699219 190.5978125 -61.45699219 190.5978125 -59.8828125 190.1875 C-43.35981327 185.52218257 -30.82377127 177.29849034 -20 164 C-19.43152344 163.31421875 -18.86304688 162.6284375 -18.27734375 161.921875 C-16.72323613 159.96819159 -16.72323613 159.96819159 -17 157 C-21.47378089 154.66430026 -25.95763121 152.34974444 -30.45214844 150.05419922 C-31.97984614 149.27022345 -33.50462373 148.48053024 -35.02636719 147.68505859 C-37.21328665 146.54312738 -39.40985565 145.42211476 -41.609375 144.3046875 C-42.2886908 143.94438446 -42.96800659 143.58408142 -43.66790771 143.21286011 C-47.35356445 141.28531758 -47.35356445 141.28531758 -51.33862305 141.68066406 C-53.37680429 143.29922856 -55.21324753 145.04303026 -57.0625 146.875 C-65.65993032 154.53883578 -74.80854108 155.84588542 -85.96484375 155.3828125 C-93.55512949 154.82187574 -99.96868646 151.97006244 -105.53125 146.76171875 C-110.30645072 141.03401788 -111.08204683 135.34362534 -112 128 C-79.66 128 -47.32 128 -14 128 C-14 104.92514008 -16.06014218 86.46459879 -32.38671875 69.5234375 C-49.74412609 53.22872857 -70.64015773 49.16829707 -93.71923828 49.89501953 C-114.35687345 50.84494279 -131.13395195 61.32369244 -145 76 Z M134 71 C133.67 65.39 133.34 59.78 133 54 C117.49 54 101.98 54 86 54 C86 98.55 86 143.1 86 189 C101.51 189 117.02 189 133 189 C133.01417969 183.65296875 133.02835938 178.3059375 133.04296875 172.796875 C133.06305086 169.38795639 133.08459178 165.97916962 133.11132812 162.5703125 C133.15352994 157.17214884 133.19063653 151.77431977 133.19555664 146.37597656 C133.19986854 142.01844158 133.22856778 137.66165882 133.27343178 133.30435944 C133.28631516 131.65083465 133.29074734 129.99721941 133.28615379 128.34365082 C133.26344623 117.67698547 133.50859608 107.12937217 141.04801941 98.71405029 C147.27305534 92.84915891 152.78505735 91.61107962 161.125 91.625 C161.9694165 91.62443604 162.81383301 91.62387207 163.68383789 91.62329102 C170.45654328 91.74211041 175.84078755 93.1859745 182 96 C183.32919955 96.34945306 184.66215459 96.6852643 186 97 C188.62044363 91.81381611 191.21988572 86.61784148 193.80029297 81.41162109 C194.68128982 79.6415091 195.5679901 77.87422397 196.46044922 76.10986328 C197.74130045 73.5752311 199.00138868 71.03118598 200.2578125 68.484375 C200.6618631 67.69569031 201.0659137 66.90700562 201.48220825 66.09442139 C201.84273285 65.35395569 202.20325745 64.61348999 202.57470703 63.85058594 C202.89891632 63.20216736 203.22312561 62.55374878 203.55715942 61.88568115 C204.19027638 59.93729828 204.19027638 59.93729828 203.27023315 57.84991455 C201.31026359 54.99549669 198.83552156 54.45602285 195.625 53.3125 C194.48289062 52.89613281 193.34078125 52.47976563 192.1640625 52.05078125 C168.97631148 44.35015776 149.76893991 54.4223965 134 71 Z M205 54 C205 98.55 205 143.1 205 189 C220.18 189 235.36 189 251 189 C251 144.45 251 99.9 251 54 C235.82 54 220.64 54 205 54 Z " fill="#F3F7F9" transform="translate(656,487)"/>
<path d="M0 0 C6.62586048 4.35703943 11.1645786 10.31725297 13.609375 17.88671875 C15.45069798 27.84827607 14.11754194 36.79638243 8.52734375 45.21875 C3.60957104 51.45025396 -3.17803093 55.48411452 -11 57 C-20.15533581 57.90514665 -27.83869265 56.04986343 -35.75 51.375 C-43.76971332 42.90974705 -47.54895927 35.14531776 -47.24609375 23.51171875 C-46.41745653 15.05435788 -42.58275747 8.23108304 -36.37109375 2.49609375 C-25.53626063 -5.92541227 -11.99278538 -6.1510796 0 0 Z " fill="#1C6C96" transform="translate(901,458)"/>
<path d="M0 0 C1.27617187 0.40025391 1.27617187 0.40025391 2.578125 0.80859375 C11.77466556 4.06208687 20.42041419 9.91922055 26 18 C26 18.66 26 19.32 26 20 C26.46148437 19.5875 26.92296875 19.175 27.3984375 18.75 C29.58365057 16.8152659 31.7916946 14.90832283 34 13 C35.10408203 12.01 35.10408203 12.01 36.23046875 11 C41.0789974 6.84179788 45.99652702 3.76404497 51.75 1.0625 C52.68888062 0.62067383 52.68888062 0.62067383 53.64672852 0.16992188 C66.85634916 -5.74079984 81.75739299 -3.65084994 95 1 C106.96829667 5.72130648 116.9763279 13.45130415 123 25 C126.47211671 33.24285975 127.14767765 41.18923989 127.11352539 50.04443359 C127.11367142 51.04017395 127.11381744 52.03591431 127.1139679 53.06182861 C127.11327333 56.34072069 127.10550227 59.61955539 127.09765625 62.8984375 C127.09579045 65.17672698 127.09436731 67.45501686 127.09336853 69.73330688 C127.08955611 75.72065342 127.0797367 81.70797558 127.06866455 87.6953125 C127.05662138 94.88401282 127.05204212 102.07272131 127.04621124 109.26142883 C127.03652427 120.17430283 127.01735876 131.08712336 127 142 C110.17 142 93.34 142 76 142 C75.96132813 132.95271484 75.96132813 132.95271484 75.921875 123.72265625 C75.89669335 119.8899321 75.87035029 116.05728582 75.83984375 112.22460938 C75.79158663 106.14802811 75.74751266 100.07162724 75.72900391 93.99487305 C75.71380311 89.09280898 75.67929685 84.19121845 75.63169098 79.28936577 C75.61691244 77.42402715 75.60896102 75.55862092 75.60811615 73.69322395 C75.74476875 58.27222322 75.74476875 58.27222322 68.5 45.0625 C64.00515936 41.35425647 60.99234966 40.70642693 55.125 40.6875 C53.93132812 40.67074219 52.73765625 40.65398438 51.5078125 40.63671875 C46.46044351 41.15944182 43.18616187 42.71499131 39.75 46.4375 C36.23164046 51.58938361 35.69760893 55.39365264 35.68115234 61.62402344 C35.67110672 62.49267532 35.6610611 63.36132721 35.65071106 64.25630188 C35.61985057 67.12398627 35.60283592 69.99157717 35.5859375 72.859375 C35.56722816 74.84906826 35.54765493 76.83875356 35.5272522 78.82843018 C35.47590028 84.0627982 35.43629087 89.29719195 35.39910889 94.53167725 C35.35205092 100.81349819 35.29043994 107.09519114 35.23126221 113.37690735 C35.14301266 122.91788666 35.07327487 132.45884097 35 142 C17.84 142 0.68 142 -17 142 C-17.05607422 132.95271484 -17.05607422 132.95271484 -17.11328125 123.72265625 C-17.14357543 119.88994598 -17.1747328 116.05728134 -17.20898438 112.22460938 C-17.2632072 106.14805462 -17.31432122 100.07159011 -17.34643555 93.99487305 C-17.37254233 89.09287248 -17.41299667 84.19117682 -17.46318626 79.28936577 C-17.4798052 77.42402389 -17.49135033 75.55862934 -17.49761391 73.69322395 C-17.50730936 71.06998237 -17.53543254 68.44751213 -17.56762695 65.82446289 C-17.56619186 65.0620076 -17.56475677 64.29955231 -17.5632782 63.51399231 C-17.67080577 57.27428373 -18.76493429 50.86254355 -22.68359375 45.84375 C-23.26238281 45.4003125 -23.84117187 44.956875 -24.4375 44.5 C-25.01371094 44.0359375 -25.58992188 43.571875 -26.18359375 43.09375 C-31.94139256 39.62668835 -39.55423712 40.4972455 -46 41 C-51.33194691 43.05794442 -53.51327607 46.65545603 -55.9258728 51.63128662 C-58.31884365 59.13620125 -57.72576618 67.20461209 -57.70703125 75.0078125 C-57.72016275 76.94409734 -57.7354714 78.88036852 -57.75285339 80.81661987 C-57.79254637 85.88333427 -57.8028837 90.94968902 -57.80688477 96.01654053 C-57.8178952 102.11165369 -57.86576076 108.20657787 -57.90737152 114.30154419 C-57.96631818 123.53452317 -57.97876027 132.76651083 -58 142 C-74.83 142 -91.66 142 -109 142 C-109 95.47 -109 48.94 -109 1 C-91.84 1 -74.68 1 -57 1 C-56.505 5.95 -56.505 5.95 -56 11 C-55.40574219 10.55269531 -54.81148438 10.10539063 -54.19921875 9.64453125 C-37.45287109 -2.57014535 -20.06887634 -6.54789609 0 0 Z M-59 17 C-59.33 12.71 -59.66 8.42 -60 4 C-75.51 4 -91.02 4 -107 4 C-107 48.55 -107 93.1 -107 139 C-91.49 139 -75.98 139 -60 139 C-59.98582031 132.98007812 -59.97164063 126.96015625 -59.95703125 120.7578125 C-59.93695924 116.92962965 -59.91542772 113.10156525 -59.88867188 109.2734375 C-59.84640062 103.20568244 -59.80935019 97.13822783 -59.80444336 91.0703125 C-59.80014496 86.17466101 -59.77155476 81.2796837 -59.72656822 76.38424301 C-59.71364238 74.52252005 -59.70926801 72.66071621 -59.71384621 70.79895401 C-59.75066475 51.26888563 -59.75066475 51.26888563 -54 44 C-48.69172973 39.02488439 -43.77732454 37.70488101 -36.70703125 37.77734375 C-30.80083156 38.26313507 -26.15071774 39.77832982 -22 44 C-21.34 44 -20.68 44 -20 44 C-15.15079593 55.72236802 -14.53452194 66.74683641 -14.48828125 79.234375 C-14.47140105 80.96601608 -14.45324642 82.69764516 -14.43388367 84.42926025 C-14.38673975 88.94673916 -14.35670154 93.46416939 -14.33044434 97.98181152 C-14.29516819 103.42369675 -14.23825862 108.86539514 -14.18505096 114.30712891 C-14.10695548 122.53806087 -14.05603429 130.76875534 -14 139 C1.18 139 16.36 139 32 139 C32.03738281 133.19664062 32.07476562 127.39328125 32.11328125 121.4140625 C32.14358146 117.72262738 32.17474273 114.03123928 32.20898438 110.33984375 C32.26317174 104.48944558 32.31428688 98.63914042 32.34643555 92.78857422 C32.3725747 88.0681115 32.4130512 83.34796368 32.46318626 78.62769699 C32.47978352 76.83296013 32.49134203 75.03816889 32.49761391 73.24336624 C32.58270355 51.11828034 32.58270355 51.11828034 38.4375 44.0625 C39.283125 43.381875 40.12875 42.70125 41 42 C41.680625 41.4225 42.36125 40.845 43.0625 40.25 C48.00421413 37.06179733 54.34764044 37.33545575 60 38 C65.815085 39.95458227 70.84628101 42.57560334 74 48 C76.47971979 53.73896385 77.44431046 58.31071645 77.43237305 64.52734375 C77.44766052 65.7434156 77.44766052 65.7434156 77.46325684 66.98405457 C77.49319364 69.6352751 77.50262291 72.28613322 77.51171875 74.9375 C77.5285798 76.78695864 77.54673195 78.63640593 77.56611633 80.48583984 C77.61346765 85.33217824 77.64337299 90.17847056 77.66955566 95.02496338 C77.70469842 100.85136905 77.76166864 106.67759786 77.81494904 112.50386047 C77.89328849 121.33588405 77.94402594 130.16767887 78 139 C93.51 139 109.02 139 125 139 C125.0873918 122.27931189 125.0873918 122.27931189 125.14648438 105.55859375 C125.16435322 98.72958298 125.18539353 91.90069395 125.22631836 85.07177734 C125.25913701 79.56042276 125.27690012 74.0491989 125.28463173 68.53775406 C125.2901351 66.44482493 125.30088072 64.3519022 125.31719017 62.25902939 C125.4470786 44.88576219 125.30494334 27.58658368 112.625 14.125 C99.57152558 2.23246365 83.28272505 -0.67572583 66.22998047 -0.13623047 C61.8020395 0.13427435 58.03537424 1.2218225 54 3 C53.22140625 3.30550781 52.4428125 3.61101563 51.640625 3.92578125 C41.64990606 8.30069798 33.55306941 16.29335617 26 24 C25.7628125 23.278125 25.525625 22.55625 25.28125 21.8125 C21.84342143 14.26604703 14.29662187 8.30992706 6.80859375 5.02734375 C-17.67093182 -3.92691943 -39.51554399 -1.36035278 -59 17 Z " fill="#F5F2F0" transform="translate(364,537)"/>
<path d="M0 0 C0 -2.97 0 -5.94 0 -9 C17.16 -9 34.32 -9 52 -9 C52 37.53 52 84.06 52 132 C34.84 132 17.68 132 0 132 C-0.33 128.7 -0.66 125.4 -1 122 C-1.75023437 122.53109375 -2.50046875 123.0621875 -3.2734375 123.609375 C-19.22773439 134.62065295 -36.16892855 138.53237966 -55.4140625 135.34765625 C-68.87880593 132.7135451 -81.12680212 126.69490086 -91 117 C-91 116.34 -91 115.68 -91 115 C-91.66 115 -92.32 115 -93 115 C-109.18564361 97.03393559 -113.39418062 75.35885422 -112.21875 51.88330078 C-110.72001478 32.12876623 -100.66992987 14.40246729 -86.05078125 1.37109375 C-79.51682469 -3.8133659 -72.89195802 -7.34855165 -65 -10 C-64.11441406 -10.31839844 -63.22882812 -10.63679687 -62.31640625 -10.96484375 C-40.47322308 -17.68820651 -18.70169708 -11.71296268 0 0 Z M-89 9 C-89.71929688 9.73347656 -90.43859375 10.46695313 -91.1796875 11.22265625 C-106.91309902 28.05443801 -109.65691013 47.48617185 -109.3125 69.71484375 C-108.76111026 85.24335734 -102.24541555 99.40488899 -92 111 C-91.28199219 111.82371094 -90.56398438 112.64742187 -89.82421875 113.49609375 C-78.60444389 125.56056524 -64.35391089 132.39991652 -47.875 133.375 C-30.47238166 133.97579532 -15.18042561 130.41042975 -1.8125 118.625 C-0.554375 117.42875 0.70375 116.2325 2 115 C2.495 121.93 2.495 121.93 3 129 C18.18 129 33.36 129 49 129 C49 84.45 49 39.9 49 -6 C33.82 -6 18.64 -6 3 -6 C3 -2.04 3 1.92 3 6 C1.9275 5.13375 0.855 4.2675 -0.25 3.375 C-27.07148327 -16.57641914 -65.41890876 -15.36165001 -89 9 Z " fill="#F0F5F8" transform="translate(1027,547)"/>
<path d="M0 0 C2.5 2.75 2.5 2.75 4 5 C4.33 2.36 4.66 -0.28 5 -3 C12.26 -3 19.52 -3 27 -3 C27.495 -2.01 27.495 -2.01 28 -1 C29.1446875 -1.7425 29.1446875 -1.7425 30.3125 -2.5 C35.28101775 -4.52109197 39.70651036 -4.25431356 45 -4 C45 -1.69 45 0.62 45 3 C45.99 2.1028125 45.99 2.1028125 47 1.1875 C55.3957977 -4.93443582 65.59206217 -5.82314833 75.6875 -4.4375 C83.89781771 -2.67222245 90.32201189 2.12060572 95 9 C99.12258118 16.5343725 99.10946631 25.60593022 98 34 C95.39357025 42.64519499 89.78793536 48.57156617 82 53 C72.98593353 56.10829878 63.00435791 56.15152527 54 53 C45.33961342 48.71027581 40.80498421 43.09937899 37.71875 34.02734375 C36.48111418 28.81447548 35.52774331 21.94451337 38 17 C35.36 17.66 32.72 18.32 30 19 C27.41704496 25.98237846 27.55370011 33.06239767 27.375 40.4375 C27.33632812 41.74138672 27.29765625 43.04527344 27.2578125 44.38867188 C27.16393548 47.5922251 27.080896 50.7960927 27 54 C19.74 54 12.48 54 5 54 C4.505 50.04 4.505 50.04 4 46 C3.48050781 46.48210938 2.96101563 46.96421875 2.42578125 47.4609375 C1.72839844 48.09257813 1.03101563 48.72421875 0.3125 49.375 C-0.37199219 50.00148438 -1.05648438 50.62796875 -1.76171875 51.2734375 C-5.77714835 54.3708544 -9.34959049 55.29090082 -14.375 55.3125 C-15.26960938 55.32925781 -16.16421875 55.34601562 -17.0859375 55.36328125 C-20 55 -20 55 -27 52 C-27.33 59.26 -27.66 66.52 -28 74 C-35.59 74 -43.18 74 -51 74 C-51 48.59 -51 23.18 -51 -3 C-43.74 -3 -36.48 -3 -29 -3 C-28.67 -2.34 -28.34 -1.68 -28 -1 C-27.278125 -1.474375 -26.55625 -1.94875 -25.8125 -2.4375 C-17.67505883 -6.95830065 -7.47681431 -5.23721555 0 0 Z M-29 2 C-29.33 2.66 -29.66 3.32 -30 4 C-30.33 2.35 -30.66 0.7 -31 -1 C-36.94 -1 -42.88 -1 -49 -1 C-49 23.09 -49 47.18 -49 72 C-42.73 72 -36.46 72 -30 72 C-29.67 64.08 -29.34 56.16 -29 48 C-27.35 49.32 -25.7 50.64 -24 52 C-17.48448491 54.17183836 -10.88744441 53.7979137 -4.625 51 C0.35784036 48.24674267 2.44961624 45.01575472 5 40 C5.495 45.94 5.495 45.94 6 52 C12.6 52 19.2 52 26 52 C26.02578125 49.89238281 26.0515625 47.78476562 26.078125 45.61328125 C26.1165916 43.56114626 26.16173635 41.50925865 26.20751953 39.45727539 C26.23566014 38.03649808 26.25690908 36.61556622 26.27099609 35.19458008 C26.29252394 33.14584641 26.33921514 31.098957 26.390625 29.05078125 C26.41157227 27.82012939 26.43251953 26.58947754 26.45410156 25.3215332 C27.09225991 21.43864221 28.24752509 19.76266926 31 17 C33.359375 16.07421875 33.359375 16.07421875 35.75 15.6875 C36.54921875 15.54699219 37.3484375 15.40648437 38.171875 15.26171875 C38.77515625 15.17535156 39.3784375 15.08898437 40 15 C39.505 16.485 39.505 16.485 39 18 C38.23247808 27.67580907 38.64629768 36.00644164 44.47265625 44.02734375 C49.63248918 49.79708601 55.73114441 52.51962994 63.3671875 53.37890625 C72.49562011 53.68851392 80.994204 52.29317429 88.4375 46.6875 C95.9640858 38.79376367 96.4619321 30.58144629 96.2734375 20.1484375 C96.05549248 15.29538462 95.06878758 11.81771789 92 8 C91.525625 7.37867188 91.05125 6.75734375 90.5625 6.1171875 C85.25571655 0.01948921 78.6740113 -2.45441745 70.75390625 -3.37890625 C61.89051712 -3.70254001 54.43973086 -1.96682891 47.4375 3.625 C44.9867394 5.75275401 44.9867394 5.75275401 44 8 C43.67 4.7 43.34 1.4 43 -2 C35.70130191 -2.73047982 35.70130191 -2.73047982 29.4375 0.375 C27.01341096 2.73909578 27.01341096 2.73909578 26 5 C25.505 1.535 25.505 1.535 25 -2 C18.73 -2 12.46 -2 6 -2 C5.67 1.96 5.34 5.92 5 10 C4.46375 9.113125 3.9275 8.22625 3.375 7.3125 C0.00028435 2.26831371 -4.20299683 -1.05337319 -10 -3 C-17.50215319 -4.06532818 -23.23835416 -3.08380515 -29 2 Z " fill="#F3FCF8" transform="translate(1136,541)"/>
<path d="M0 0 C7.08981302 1.5296132 11.95771974 4.08245678 16.1875 10.125 C21.26686964 19.90486709 20.263414 31.34162408 20.1953125 42.0390625 C20.19157582 43.77354773 20.18873195 45.50803509 20.18673706 47.24252319 C20.17915216 51.77657036 20.15954868 56.31048652 20.1373291 60.84448242 C20.11313347 66.30119622 20.10406517 71.75795417 20.09242249 77.21470642 C20.07312064 85.47656167 20.03476243 93.73813026 20 102 C35.18 102 50.36 102 66 102 C65.96519531 96.19664062 65.93039062 90.39328125 65.89453125 84.4140625 C65.87919042 80.7226461 65.86474767 77.03126937 65.85351562 73.33984375 C65.83562926 67.48933683 65.81454117 61.63897168 65.77368164 55.78857422 C65.74092357 51.06826607 65.72311247 46.3481101 65.71536827 41.62769699 C65.70985415 39.83289573 65.69908688 38.03810216 65.68280983 36.24336624 C65.50269205 15.54745398 65.50269205 15.54745398 70.8125 7.125 C77.09923191 1.017889 82.53880317 -0.43474542 91.046875 -0.34375 C97.25330125 0.37869115 102.80783407 3.29179565 107 7.9375 C108.95887489 10.93702717 110.09530199 13.54569849 111 17 C110.01 17 109.02 17 108 17 C107.4121875 15.6696875 107.4121875 15.6696875 106.8125 14.3125 C104.22989266 9.59256245 101.07658473 5.96597515 96 4 C92.69761149 3.64503922 92.69761149 3.64503922 89.125 3.6875 C87.33449219 3.66236328 87.33449219 3.66236328 85.5078125 3.63671875 C80.46044351 4.15944182 77.18616187 5.71499131 73.75 9.4375 C70.23164046 14.58938361 69.69760893 18.39365264 69.68115234 24.62402344 C69.67110672 25.49267532 69.6610611 26.36132721 69.65071106 27.25630188 C69.61985057 30.12398627 69.60283592 32.99157717 69.5859375 35.859375 C69.56722816 37.84906826 69.54765493 39.83875356 69.5272522 41.82843018 C69.47590028 47.0627982 69.43629087 52.29719195 69.39910889 57.53167725 C69.35205092 63.81349819 69.29043994 70.09519114 69.23126221 76.37690735 C69.14301266 85.91788666 69.07327487 95.45884097 69 105 C51.84 105 34.68 105 17 105 C16.94392578 95.95271484 16.94392578 95.95271484 16.88671875 86.72265625 C16.85642457 82.88994598 16.8252672 79.05728134 16.79101562 75.22460938 C16.7367928 69.14805462 16.68567878 63.07159011 16.65356445 56.99487305 C16.62745767 52.09287248 16.58700333 47.19117682 16.53681374 42.28936577 C16.5201948 40.42402389 16.50864967 38.55862934 16.50238609 36.69322395 C16.49269064 34.06998237 16.46456746 31.44751213 16.43237305 28.82446289 C16.43452568 27.68077995 16.43452568 27.68077995 16.4367218 26.51399231 C16.31541878 19.47490936 15.04010522 12.68002748 9.93359375 7.5546875 C5.67727224 4.30953629 1.275918 3.695899 -3.9375 3.125 C-4.81212891 3.00898437 -5.68675781 2.89296875 -6.58789062 2.7734375 C-8.7224743 2.4934921 -10.86096451 2.24360644 -13 2 C-8.70524477 -0.86317015 -5.04035386 -0.4741288 0 0 Z " fill="#EDE1D5" transform="translate(330,574)"/>
<path d="M0 0 C16.83 0 33.66 0 51 0 C51 3.63 51 7.26 51 11 C50.67 11 50.34 11 50 11 C50 8.03 50 5.06 50 2 C34.16 2 18.32 2 2 2 C2 46.55 2 91.1 2 137 C17.51 137 33.02 137 49 137 C48.94199219 130.98007812 48.88398438 124.96015625 48.82421875 118.7578125 C48.79865194 114.92966033 48.77458107 111.10161436 48.75585938 107.2734375 C48.72604286 101.20550502 48.69088198 95.13795206 48.62280273 89.0703125 C48.56822378 84.17491387 48.53852507 79.27992257 48.52561378 74.38424301 C48.51642018 72.52241484 48.49846752 70.66060738 48.47134972 68.79895401 C48.19200797 48.81577343 48.19200797 48.81577343 55.44316101 40.306427 C58.0439452 37.81513638 59.78593692 37.01982066 63.375 36.6875 C64.674375 36.8421875 64.674375 36.8421875 66 37 C63 39 63 39 60.125 40.5 C55.61173984 43.64810348 53.612263 47.82042059 52 53 C51.05681476 59.609659 51.27697831 66.34770733 51.29296875 73.0078125 C51.27983725 74.94409734 51.2645286 76.88036852 51.24714661 78.81661987 C51.20745363 83.88333427 51.1971163 88.94968902 51.19311523 94.01654053 C51.1821048 100.11165369 51.13423924 106.20657787 51.09262848 112.30154419 C51.03368182 121.53452317 51.02123973 130.76651083 51 140 C34.17 140 17.34 140 0 140 C0 93.8 0 47.6 0 0 Z " fill="#F2F3F4" transform="translate(255,539)"/>
<path d="M0 0 C7.21729769 4.40988069 13.11241899 10.54123799 15.90234375 18.65234375 C16.50868931 22.03055472 16.49686208 25.39216912 16.5 28.8125 C16.51224609 29.50730469 16.52449219 30.20210937 16.53710938 30.91796875 C16.56131022 39.48506823 13.45135449 46.33408021 7.78125 52.640625 C0.47514614 59.46425031 -7.79875803 61.62265578 -17.64208984 61.54638672 C-26.37520399 61.1189205 -33.58947973 57.50272692 -39.6875 51.25 C-45.45832552 43.80013234 -47.4515384 35.54615206 -47.140625 26.21875 C-46.03262686 18.19531522 -42.62911717 10.48300936 -36.6875 4.9375 C-26.1169069 -2.23964427 -12.2115309 -5.76550608 0 0 Z M-35.6875 7.9375 C-42.25411526 15.27745631 -44.28721231 23.3173317 -44.05859375 33 C-43.12759305 40.36960551 -40.29955068 46.92928196 -34.8125 52 C-27.8259016 57.36727466 -20.65656133 59.40582864 -11.94921875 58.72265625 C-5.54124911 57.79203825 -0.80253866 55.89556563 4.3125 51.9375 C5.3953125 51.1021875 5.3953125 51.1021875 6.5 50.25 C12.22915364 42.94039019 14.76632579 35.45179102 14.125 26.24609375 C12.94819345 17.432303 9.28408828 11.0291907 2.3125 5.5 C-9.82909788 -2.82435309 -24.49308433 -1.11453612 -35.6875 7.9375 Z " fill="#F3F7F9" transform="translate(1013.6875,579.0625)"/>
<path d="M0 0 C6.62586048 4.35703943 11.1645786 10.31725297 13.609375 17.88671875 C15.45069798 27.84827607 14.11754194 36.79638243 8.52734375 45.21875 C3.60957104 51.45025396 -3.17803093 55.48411452 -11 57 C-20.15533581 57.90514665 -27.83869265 56.04986343 -35.75 51.375 C-43.76971332 42.90974705 -47.54895927 35.14531776 -47.24609375 23.51171875 C-46.41745653 15.05435788 -42.58275747 8.23108304 -36.37109375 2.49609375 C-25.53626063 -5.92541227 -11.99278538 -6.1510796 0 0 Z M-38 9 C-43.72631259 16.70577867 -44.97008317 23.41906619 -44 33 C-42.02203968 39.09802704 -38.89846823 43.83630201 -34 48 C-33.175 48.721875 -32.35 49.44375 -31.5 50.1875 C-24.8832506 54.98464331 -17.90041796 54.70304053 -10 54 C-2.34033896 52.0262074 4.31363473 47.17305584 8.375 40.375 C11.84749111 33.16290309 12.55607798 24.20036423 10.24609375 16.48046875 C9.29090909 14.52140373 8.25461335 12.77990129 7 11 C6.401875 10.113125 5.80375 9.22625 5.1875 8.3125 C0.00155206 2.83021218 -5.52677517 -0.5773763 -13.18359375 -1.30078125 C-23.93521598 -1.33950258 -30.58115894 1.14567141 -38 9 Z " fill="#F6F9FB" transform="translate(901,458)"/>
<path d="M0 0 C1.27617187 0.40025391 1.27617187 0.40025391 2.578125 0.80859375 C11.77466556 4.06208687 20.42041419 9.91922055 26 18 C26 18.66 26 19.32 26 20 C26.46148437 19.5875 26.92296875 19.175 27.3984375 18.75 C29.58365057 16.8152659 31.7916946 14.90832283 34 13 C35.10408203 12.01 35.10408203 12.01 36.23046875 11 C41.0789974 6.84179788 45.99652702 3.76404497 51.75 1.0625 C52.68888062 0.62067383 52.68888062 0.62067383 53.64672852 0.16992188 C60.02579453 -2.68442837 65.69737487 -3.13888302 72.625 -3.125 C74.56246094 -3.12886719 74.56246094 -3.12886719 76.5390625 -3.1328125 C79.26226685 -3.0283103 81.42916106 -2.82214646 84 -2 C84 -1.34 84 -0.68 84 0 C83.16976318 0.02187378 83.16976318 0.02187378 82.32275391 0.04418945 C67.83680082 0.22231653 67.83680082 0.22231653 54 4 C53.22269531 4.30421875 52.44539062 4.6084375 51.64453125 4.921875 C43.36500182 8.55486407 34.6933739 15.07275954 29.24609375 22.33984375 C28.83488281 22.88769531 28.42367187 23.43554688 28 24 C27.34 24 26.68 24 26 24 C24.7734375 22.49609375 24.7734375 22.49609375 23.375 20.4375 C14.78524432 8.65785933 3.17216599 3.36146461 -11 1 C-26.88650989 -0.70469093 -40.94737478 2.89811895 -53.49609375 13.01171875 C-54.87537283 14.22381249 -56.23767632 15.45578205 -57.57421875 16.71484375 C-59 18 -59 18 -60 18 C-60.05384521 15.70858714 -60.09272087 13.41681812 -60.125 11.125 C-60.14820313 9.84882812 -60.17140625 8.57265625 -60.1953125 7.2578125 C-60 4 -60 4 -58 2 C-74.83 2 -91.66 2 -109 2 C-109 1.67 -109 1.34 -109 1 C-91.84 1 -74.68 1 -57 1 C-56.505 5.95 -56.505 5.95 -56 11 C-55.40574219 10.55269531 -54.81148438 10.10539063 -54.19921875 9.64453125 C-37.45287109 -2.57014535 -20.06887634 -6.54789609 0 0 Z " fill="#F0EEEB" transform="translate(364,537)"/>
<path d="M0 0 C7.26 0 14.52 0 22 0 C21.67 0.99 21.34 1.98 21 3 C21 2.34 21 1.68 21 1 C14.4 1 7.8 1 1 1 C1 25.42 1 49.84 1 75 C7.6 75 14.2 75 21 75 C21 66.75 21 58.5 21 50 C25.455 52.475 25.455 52.475 30 55 C36.71398004 56.51980906 42.87814739 54.98910988 48.828125 51.7109375 C52.4574688 48.85185012 54.25769416 45.2090441 56 41 C56.33 41 56.66 41 57 41 C57 45.62 57 50.24 57 55 C63.6 55 70.2 55 77 55 C76.94199219 52.90398438 76.88398437 50.80796875 76.82421875 48.6484375 C76.78514933 46.60306577 76.75483329 44.55773667 76.7253418 42.51220703 C76.70030075 41.09795318 76.66625658 39.68382743 76.62280273 38.27001953 C76.22523596 24.99596648 76.22523596 24.99596648 79.39453125 21.1015625 C83.48258396 17.80415267 85.7812897 17.90335722 91 18 C90.95359375 19.11117187 90.9071875 20.22234375 90.859375 21.3671875 C90.4099796 35.15520444 90.4099796 35.15520444 96.765625 47.05078125 C104.09352724 54.01805838 112.27441399 55.48037719 122 57 C122 57.33 122 57.66 122 58 C112.27780571 58.40509143 104.84073882 57.0365258 97 51 C91.27374199 45.53402644 88.38932164 38.57993646 87.71875 30.69140625 C87.64215253 22.71569494 87.64215253 22.71569494 89 20 C86.36 20.66 83.72 21.32 81 22 C78.41704496 28.98237846 78.55370011 36.06239767 78.375 43.4375 C78.33632812 44.74138672 78.29765625 46.04527344 78.2578125 47.38867188 C78.16393548 50.5922251 78.080896 53.7960927 78 57 C70.74 57 63.48 57 56 57 C55.505 53.04 55.505 53.04 55 49 C54.48050781 49.48210938 53.96101563 49.96421875 53.42578125 50.4609375 C52.72839844 51.09257813 52.03101563 51.72421875 51.3125 52.375 C50.62800781 53.00148438 49.94351562 53.62796875 49.23828125 54.2734375 C45.22285165 57.3708544 41.65040951 58.29090082 36.625 58.3125 C35.73039062 58.32925781 34.83578125 58.34601562 33.9140625 58.36328125 C31 58 31 58 24 55 C23.67 62.26 23.34 69.52 23 77 C15.41 77 7.82 77 0 77 C0 51.59 0 26.18 0 0 Z " fill="#F5FCF8" transform="translate(1085,538)"/>
<path d="M0 0 C5.14682916 3.11830949 8.68741146 6.46524519 10.86328125 12.12890625 C11.35828125 15.59390625 11.35828125 15.59390625 11.86328125 19.12890625 C-4.96671875 19.12890625 -21.79671875 19.12890625 -39.13671875 19.12890625 C-38.06407814 10.54778137 -36.827745 7.07648726 -30.26171875 1.87890625 C-21.58095376 -4.65802609 -9.4954036 -4.98204906 0 0 Z M-32.07421875 7.00390625 C-34.52001725 10.4166413 -34.52001725 10.4166413 -36.13671875 16.12890625 C-21.28671875 16.12890625 -6.43671875 16.12890625 8.86328125 16.12890625 C5.77376866 8.92004354 3.56517782 4.14134019 -3.6015625 0.859375 C-13.42631199 -1.97148502 -24.95190538 -0.81828763 -32.07421875 7.00390625 Z " fill="#F7FAFB" transform="translate(584.13671875,569.87109375)"/>
<path d="M0 0 C7.08981302 1.5296132 11.95771974 4.08245678 16.1875 10.125 C21.26686964 19.90486709 20.263414 31.34162408 20.1953125 42.0390625 C20.19157582 43.77354773 20.18873195 45.50803509 20.18673706 47.24252319 C20.17915216 51.77657036 20.15954868 56.31048652 20.1373291 60.84448242 C20.11313347 66.30119622 20.10406517 71.75795417 20.09242249 77.21470642 C20.07312064 85.47656167 20.03476243 93.73813026 20 102 C35.18 102 50.36 102 66 102 C66 102.33 66 102.66 66 103 C50.16 103 34.32 103 18 103 C17.94392578 94.51152344 17.94392578 94.51152344 17.88671875 85.8515625 C17.85641739 82.25127252 17.82525538 78.65103068 17.79101562 75.05078125 C17.73683501 69.3452405 17.68571969 63.63979497 17.65356445 57.93408203 C17.6274191 53.33032455 17.58693843 48.72688961 17.53681374 44.12333298 C17.52022061 42.37325449 17.50865956 40.6231203 17.50238609 38.8729744 C17.5657903 21.94764055 17.5657903 21.94764055 9.79296875 7.375 C5.29735822 3.92738582 -0.40747764 3.52135439 -5.875 2.875 C-6.90753906 2.74544922 -6.90753906 2.74544922 -7.9609375 2.61328125 C-9.63995275 2.40340434 -11.31989048 2.20092913 -13 2 C-8.70524477 -0.86317015 -5.04035386 -0.4741288 0 0 Z " fill="#CDDFE8" transform="translate(330,574)"/>
<path d="M0 0 C2.5 2.75 2.5 2.75 4 5 C4.33 2.36 4.66 -0.28 5 -3 C12.26 -3 19.52 -3 27 -3 C27.495 -2.01 27.495 -2.01 28 -1 C29.32 -1.66 30.64 -2.32 32 -3 C32 0 32 0 29.625 2.5625 C28.75875 3.366875 27.8925 4.17125 27 5 C26.34 5.66 25.68 6.32 25 7 C25 4.03 25 1.06 25 -2 C18.73 -2 12.46 -2 6 -2 C6 2.62 6 7.24 6 12 C4.25747131 9.67662841 2.52358232 7.34662718 0.8125 5 C-2.89429524 0.66623939 -7.0608431 -1.58555773 -12.71484375 -2.3828125 C-20.05310772 -2.68479867 -24.44238707 -1.21332781 -29.9375 3.75 C-30.4634375 4.36875 -30.4634375 4.36875 -31 5 C-31 3.02 -31 1.04 -31 -1 C-36.94 -1 -42.88 -1 -49 -1 C-49 23.09 -49 47.18 -49 72 C-49.33 72 -49.66 72 -50 72 C-50 47.58 -50 23.16 -50 -2 C-43.4 -2 -36.8 -2 -30 -2 C-30 -1.34 -30 -0.68 -30 0 C-28.948125 -0.639375 -27.89625 -1.27875 -26.8125 -1.9375 C-18.23809924 -6.75419525 -8.04065632 -5.63216479 0 0 Z " fill="#CBF1DF" transform="translate(1136,541)"/>
<path d="M0 0 C0.66 0 1.32 0 2 0 C3.56998834 3.13997668 3.12944545 6.49176361 3.11352539 9.93798828 C3.11367142 10.75758026 3.11381744 11.57717224 3.1139679 12.42160034 C3.11326974 15.1378644 3.10548188 17.85406038 3.09765625 20.5703125 C3.09579173 22.45075442 3.09436798 24.33119683 3.09336853 26.2116394 C3.08954607 31.16661922 3.07971808 36.12156983 3.06866455 41.07653809 C3.0566485 47.01865536 3.0520469 52.96078238 3.04621124 58.90290833 C3.0365062 67.93529254 3.01734773 76.96761265 3 86 C18.18 86 33.36 86 49 86 C49 86.33 49 86.66 49 87 C33.16 87 17.32 87 1 87 C0.67 58.29 0.34 29.58 0 0 Z " fill="#F5F8FA" transform="translate(439,591)"/>
<path d="M0 0 C0.66 0 1.32 0 2 0 C1.85677897 1.54191154 1.71028211 3.08351892 1.5625 4.625 C1.48128906 5.48351562 1.40007812 6.34203125 1.31640625 7.2265625 C1 10 1 10 0.484375 12.7421875 C-2.14025609 30.39494823 0.80862739 46.6185193 10 62 C10.94441413 63.19497298 11.91858997 64.36787774 12.9375 65.5 C13.9584375 66.7375 13.9584375 66.7375 15 68 C14.62890625 70.15625 14.62890625 70.15625 14 72 C8.44823766 65.49556839 4.4646819 58.80801511 1 51 C0.58363281 50.15695312 0.16726563 49.31390625 -0.26171875 48.4453125 C-6.28161771 34.20877953 -4.36488383 14.52363132 0 0 Z " fill="#F3F3F2" transform="translate(496,584)"/>
<path d="M0 0 C0.495 0.99 0.495 0.99 1 2 C0.27296875 2.13535156 -0.4540625 2.27070312 -1.203125 2.41015625 C-12.40070889 4.80758767 -21.25978279 9.88240408 -29.57421875 17.71484375 C-31 19 -31 19 -32 19 C-32.05384521 16.70858714 -32.09272087 14.41681812 -32.125 12.125 C-32.14820313 10.84882812 -32.17140625 9.57265625 -32.1953125 8.2578125 C-32 5 -32 5 -30 3 C-46.83 3 -63.66 3 -81 3 C-81 2.67 -81 2.34 -81 2 C-63.84 2 -46.68 2 -29 2 C-28.505 6.95 -28.505 6.95 -28 12 C-27.40574219 11.55269531 -26.81148438 11.10539063 -26.19921875 10.64453125 C-7.72312349 -2.83181195 -7.72312349 -2.83181195 0 0 Z " fill="#F7E4D3" transform="translate(336,536)"/>
<path d="M0 0 C5.0624209 3.48155661 7.59416007 7.49410835 9.1640625 13.48828125 C8.1740625 13.48828125 7.1840625 13.48828125 6.1640625 13.48828125 C5.57625 12.15796875 5.57625 12.15796875 4.9765625 10.80078125 C2.39395516 6.0808437 -0.75935277 2.4542564 -5.8359375 0.48828125 C-9.13832601 0.13332047 -9.13832601 0.13332047 -12.7109375 0.17578125 C-14.50144531 0.15064453 -14.50144531 0.15064453 -16.328125 0.125 C-21.37549399 0.64772307 -24.64977563 2.20327256 -28.0859375 5.92578125 C-29.8489806 8.36309382 -29.8489806 8.36309382 -30.8984375 10.73828125 C-31.8359375 12.48828125 -31.8359375 12.48828125 -34.8359375 13.48828125 C-33.312277 7.01272414 -31.30405914 3.33937248 -25.8359375 -0.76171875 C-17.57758043 -5.57909371 -8.13011405 -4.58125474 0 0 Z " fill="#EEE5DC" transform="translate(431.8359375,577.51171875)"/>
<path d="M0 0 C2.75329021 1.79562405 4.52627461 3.05254922 6 6 C6.14901491 8.10053716 6.22138453 10.20687825 6.25 12.3125 C6.27578125 13.44300781 6.3015625 14.57351563 6.328125 15.73828125 C5.87138562 20.27848822 4.17984928 22.82015072 1 26 C-2.05486092 26.56025442 -4.94425647 26.54916387 -8 26 C-11.03157992 23.11999907 -12.88092625 20.55024858 -13.203125 16.35546875 C-13.21859375 15.31003906 -13.2340625 14.26460937 -13.25 13.1875 C-13.27578125 12.14980469 -13.3015625 11.11210938 -13.328125 10.04296875 C-12.95408344 6.57417855 -12.07568054 4.77889007 -10 2 C-6.2626144 -0.4915904 -4.42668417 -0.45793285 0 0 Z M-10 6 C-12.20795774 10.41591548 -11.44403074 16.4458924 -10.125 21.0625 C-9.14684888 23.15529594 -9.14684888 23.15529594 -7 24 C-3.26328409 24.34599221 -0.88090447 24.53317902 2.375 22.5625 C4.74405364 18.82668464 5.20704286 15.39226628 5 11 C4.05275134 7.41398723 2.65112692 4.65112692 0 2 C-4.93778229 1.35594144 -6.91255848 2.11211068 -10 6 Z " fill="#EFFBF5" transform="translate(1207,553)"/>
<path d="M0 0 C-3 2 -3 2 -5.875 3.5 C-10.37531647 6.62931789 -12.37246276 10.85460759 -14 16 C-14.93263452 22.31842298 -14.72308456 28.76268082 -14.70703125 35.1328125 C-14.72016419 36.9794171 -14.73547328 38.82600739 -14.75285339 40.6725769 C-14.79252966 45.50255996 -14.80288259 50.33216572 -14.80688477 55.16229248 C-14.81624911 60.1031018 -14.85368317 65.04369246 -14.88867188 69.984375 C-14.95307062 79.65623994 -14.98645584 89.32793939 -15 99 C-15.33 99 -15.66 99 -16 99 C-16.11603582 87.7948862 -16.20478754 76.5899162 -16.25906086 65.38432312 C-16.28511425 60.18064089 -16.32043464 54.97737083 -16.37719727 49.77392578 C-16.4316687 44.74886037 -16.46145255 39.7241905 -16.47438622 34.69885254 C-16.48359895 32.78513363 -16.50158948 30.87143549 -16.52865028 28.95788574 C-16.56514228 26.26963133 -16.56993703 23.58299493 -16.56762695 20.89453125 C-16.58560333 20.10977921 -16.60357971 19.32502716 -16.62210083 18.51649475 C-16.55554417 11.32150061 -13.5068565 6.57113487 -8.5625 1.5 C-5.48564596 -0.30108529 -3.50827945 -0.32635158 0 0 Z " fill="#FFFFFF" transform="translate(321,576)"/>
<path d="M0 0 C3.97245401 0.70936679 5.67231707 1.79731707 8.5 4.625 C10.83987065 9.30474129 9.99526495 15.54565479 9.5 20.625 C8.27701629 23.92819898 7.50561732 24.49602106 4.5 26.625 C1.42450628 27.38017074 -0.23164594 27.14378636 -3.5 26.625 C-5.93119623 24.75484906 -7.14069173 23.34361655 -8.5 20.625 C-9.70601019 7.18660072 -9.70601019 7.18660072 -6.4375 2.75 C-3.5 0.625 -3.5 0.625 0 0 Z M-6.5 6.625 C-8.15386775 13.09421061 -7.71150066 17.81959496 -4.5 23.625 C-2.63381448 25.49118552 -0.00222346 24.9735526 2.4921875 25.1484375 C4.72788493 24.77867634 4.72788493 24.77867634 6.2265625 22.4765625 C8.39805069 17.6140276 8.27059104 12.83909262 7.5 7.625 C5.18845575 4.19070569 3.96392284 2.94634892 -0.0625 2.0625 C-3.51108497 2.8583273 -4.51789266 3.65183899 -6.5 6.625 Z " fill="#F2FBF7" transform="translate(1114.5,552.375)"/>
<path d="M0 0 C0.33 0 0.66 0 1 0 C2.435967 9.07076184 2.35328457 15.33604836 -3 23 C-5.4375 25.875 -5.4375 25.875 -8 28 C-8.86625 28.721875 -9.7325 29.44375 -10.625 30.1875 C-17.36564842 33.80747786 -24.56921676 34.65128516 -32 33 C-32 32.67 -32 32.34 -32 32 C-31.10539062 31.91363281 -30.21078125 31.82726562 -29.2890625 31.73828125 C-19.62875331 30.61570801 -10.83599451 29.16841616 -4.5 21.1875 C-0.66889162 14.82396404 -0.51572288 7.24679567 0 0 Z " fill="#E9F9F1" transform="translate(1232,562)"/>
<path d="M0 0 C3 1 3 1 4.28125 2.86328125 C8.76686811 11.87764842 11.58460508 20.86684523 11 31 C10.67 31 10.34 31 10 31 C9.67 29.35 9.34 27.7 9 26 C8.67 26 8.34 26 8 26 C7.76216797 24.64068359 7.76216797 24.64068359 7.51953125 23.25390625 C6.20660216 16.3991107 4.8045119 10.65710833 0.98828125 4.76953125 C0 3 0 3 0 0 Z " fill="#F2E6DB" transform="translate(480,554)"/>
<path d="M0 0 C0.66 0.33 1.32 0.66 2 1 C0.7607016 4.7178952 -0.71281066 5.54229089 -3.8125 7.875 C-6.68277237 10.03724358 -8.95171884 11.93945559 -11.19921875 14.7578125 C-11.79347656 15.49773438 -12.38773437 16.23765625 -13 17 C-13.66 17 -14.32 17 -15 17 C-15 13 -15 13 -13.49609375 11.2890625 C-12.81675781 10.73992188 -12.13742187 10.19078125 -11.4375 9.625 C-10.71433594 9.02816406 -9.99117188 8.43132813 -9.24609375 7.81640625 C-8.50488281 7.21699219 -7.76367188 6.61757813 -7 6 C-5.66325682 4.85814648 -4.32960917 3.71265272 -3 2.5625 C-2.01 1.716875 -1.02 0.87125 0 0 Z " fill="#F3F1EE" transform="translate(405,544)"/>
<path d="M0 0 C1.50433594 0.01353516 1.50433594 0.01353516 3.0390625 0.02734375 C3.80992188 0.03894531 4.58078125 0.05054688 5.375 0.0625 C5.375 2.3725 5.375 4.6825 5.375 7.0625 C6.035 7.0625 6.695 7.0625 7.375 7.0625 C5.625 11.9375 5.625 11.9375 3.375 13.0625 C3.375 9.4325 3.375 5.8025 3.375 2.0625 C-0.255 2.3925 -3.885 2.7225 -7.625 3.0625 C-7.625 2.4025 -7.625 1.7425 -7.625 1.0625 C-4.98041621 -0.25979189 -2.94738699 -0.03427194 0 0 Z " fill="#D6F4E6" transform="translate(1175.625,536.9375)"/>
<path d="M0 0 C2.44325473 0.50073772 4.63731755 1.17819741 7 2 C6.67 2.99 6.34 3.98 6 5 C-3.405 3.515 -3.405 3.515 -13 2 C-8.73234357 -0.84510429 -5.00848052 -0.39341539 0 0 Z " fill="#DDDDD9" transform="translate(330,574)"/>
<path d="M0 0 C4.76371556 0.42032784 7.81862696 2.57457642 11 6 C15 11.72307692 15 11.72307692 15 15 C14.01 15 13.02 15 12 15 C11.608125 14.113125 11.21625 13.22625 10.8125 12.3125 C8.2104811 7.55708614 5.08093096 4.07000891 0 2 C0 1.34 0 0.68 0 0 Z " fill="#EDEDEB" transform="translate(426,576)"/>
<path d="M0 0 C-3 2 -3 2 -5.8125 3.5625 C-10.07720045 6.35219127 -12.41835031 10.71556009 -15 15 C-16 12 -16 12 -15.1796875 10.09765625 C-11.13886513 3.79445729 -8.14096333 -0.75729891 0 0 Z " fill="#F0F2F2" transform="translate(321,576)"/>
<path d="M0 0 C4.50619354 1.83585663 7.58498357 5.00611321 10.375 8.9375 C11.25207157 11.83183618 10.66062364 14.093256 10 17 C9.67 17 9.34 17 9 17 C8.85304688 16.41992188 8.70609375 15.83984375 8.5546875 15.2421875 C6.81639662 9.18813995 4.62946431 6.21795637 0 2 C0 1.34 0 0.68 0 0 Z " fill="#F3EFEA" transform="translate(337,577)"/>
<path d="M0 0 C0.33 0 0.66 0 1 0 C1 3.63 1 7.26 1 11 C1.66 11 2.32 11 3 11 C3.33 12.65 3.66 14.3 4 16 C7.3 16.66 10.6 17.32 14 18 C14 18.33 14 18.66 14 19 C10.94701241 19.2935565 8.04326734 19.43550205 5 19 C1.88164691 16.03756456 0.05205683 13.50340111 -0.09765625 9.1796875 C-0.08605469 8.08914063 -0.07445312 6.99859375 -0.0625 5.875 C-0.05347656 4.77929688 -0.04445313 3.68359375 -0.03515625 2.5546875 C-0.02355469 1.71164062 -0.01195312 0.86859375 0 0 Z " fill="#DDF6EA" transform="translate(1194,560)"/>
<path d="M0 0 C0.9796875 -0.00257813 1.959375 -0.00515625 2.96875 -0.0078125 C5.5 0.125 5.5 0.125 7.5 1.125 C7.5 1.785 7.5 2.445 7.5 3.125 C2.55 3.125 -2.4 3.125 -7.5 3.125 C-7.5 2.465 -7.5 1.805 -7.5 1.125 C-4.89080172 -0.17959914 -2.91057385 -0.0076594 0 0 Z " fill="#DCDEDC" transform="translate(418.5,573.875)"/>
<path d="M0 0 C0.66 0 1.32 0 2 0 C1.50130596 5.36891879 0.97772468 10.69235173 0 16 C-0.99 16 -1.98 16 -3 16 C-2.01 10.72 -1.02 5.44 0 0 Z " fill="#E6E8E8" transform="translate(496,584)"/>
<path d="M0 0 C2.41674224 -0.02705308 4.8331794 -0.04686438 7.25 -0.0625 C7.93191406 -0.07087891 8.61382812 -0.07925781 9.31640625 -0.08789062 C12.69342554 -0.10428392 15.77291639 -0.05628768 19 1 C19 1.66 19 2.32 19 3 C14.38 3 9.76 3 5 3 C5 2.67 5 2.34 5 2 C3.35 1.67 1.7 1.34 0 1 C0 0.67 0 0.34 0 0 Z " fill="#F9E0CB" transform="translate(429,534)"/>
<path d="M0 0 C2.62697064 -0.22137393 5.00893964 -0.28162025 7.625 -0.1875 C8.33140625 -0.17396484 9.0378125 -0.16042969 9.765625 -0.14648438 C11.51074128 -0.1111104 13.25546608 -0.05730221 15 0 C15 0.33 15 0.66 15 1 C13.35 1 11.7 1 10 1 C10 1.66 10 2.32 10 3 C6.04 3 2.08 3 -2 3 C-1.34 2.01 -0.68 1.02 0 0 Z " fill="#F7DFCB" transform="translate(337,534)"/>
<path d="M0 0 C0 0.99 0 1.98 0 3 C-1.093125 2.979375 -2.18625 2.95875 -3.3125 2.9375 C-6.94384191 2.81455548 -6.94384191 2.81455548 -10 4 C-10.70211894 5.65204456 -11.36971413 7.31923769 -12 9 C-12.99 9.495 -12.99 9.495 -14 10 C-13.78466133 6.23157335 -13.00263823 5.00282667 -10.375 2.1875 C-7.01429352 -0.42275746 -4.21547257 -0.42154726 0 0 Z " fill="#E7F9F0" transform="translate(1176,556)"/>
<path d="M0 0 C1.11375 0.4640625 1.11375 0.4640625 2.25 0.9375 C7.44702225 2.40998964 12.62487263 2.66949055 18 3 C18 3.66 18 4.32 18 5 C11.18401613 5.33278764 6.07877934 5.24201565 0 2 C0 1.34 0 0.68 0 0 Z " fill="#F2FBF7" transform="translate(1109,591)"/>
<path d="M0 0 C0.33 0.66 0.66 1.32 1 2 C-3.29 2.99 -7.58 3.98 -12 5 C-12 4.01 -12 3.02 -12 2 C-10.75579353 1.4654744 -9.50429064 0.94791389 -8.25 0.4375 C-7.55390625 0.14746094 -6.8578125 -0.14257812 -6.140625 -0.44140625 C-3.66489417 -1.0874455 -2.3639266 -0.94043167 0 0 Z " fill="#EBE7E2" transform="translate(336,536)"/>
<path d="M0 0 C0 0.33 0 0.66 0 1 C-0.94875 1.28875 -1.8975 1.5775 -2.875 1.875 C-6.05211578 2.76825109 -6.05211578 2.76825109 -8 5 C-8.67940467 7.42715206 -8.67940467 7.42715206 -9.125 10.125 C-9.29257813 11.03507813 -9.46015625 11.94515625 -9.6328125 12.8828125 C-9.75398438 13.58148437 -9.87515625 14.28015625 -10 15 C-10.33 15 -10.66 15 -11 15 C-11.6132879 6.22657581 -11.6132879 6.22657581 -9.4375 1.875 C-6.18515971 -0.62680023 -4.0000237 -0.38461766 0 0 Z " fill="#F7FCFA" transform="translate(1117,554)"/>
<path d="M0 0 C0.99 0.33 1.98 0.66 3 1 C4.34256953 5.31035482 5 8.47781648 5 13 C4.34 13 3.68 13 3 13 C2.49242138 11.58603098 1.99425075 10.16868271 1.5 8.75 C1.08234375 7.56664062 1.08234375 7.56664062 0.65625 6.359375 C0 4 0 4 0 0 Z " fill="#F5ECE3" transform="translate(493,619)"/>
<path d="M0 0 C4.0589816 -0.3183515 6.3474968 -0.39717586 9.875 1.75 C11.96374181 3.96160897 12.68151851 5.02750614 13 8 C9.63983107 6.87994369 8.30935087 5.62788203 6 3 C6 2.34 6 1.68 6 1 C4.02 1 2.04 1 0 1 C0 0.67 0 0.34 0 0 Z " fill="#DFF7EB" transform="translate(1111,553)"/>
<path d="M0 0 C0.33 0.99 0.66 1.98 1 3 C-1.33333333 5.33333333 -3.66666667 7.66666667 -6 10 C-6 7.03 -6 4.06 -6 1 C-5.67 1.66 -5.34 2.32 -5 3 C-3.35 2.01 -1.7 1.02 0 0 Z " fill="#ECFAF3" transform="translate(1167,538)"/>
<path d="M0 0 C1.63001953 0.01353516 1.63001953 0.01353516 3.29296875 0.02734375 C4.12441406 0.03894531 4.95585937 0.05054688 5.8125 0.0625 C5.8125 0.3925 5.8125 0.7225 5.8125 1.0625 C4.08442682 1.40145656 2.35498026 1.73341525 0.625 2.0625 C-0.81939453 2.3409375 -0.81939453 2.3409375 -2.29296875 2.625 C-4.9809206 3.03127612 -7.47521019 3.14183572 -10.1875 3.0625 C-8.19010785 -0.9322843 -3.93646808 -0.04232761 0 0 Z " fill="#F9FBFB" transform="translate(433.1875,534.9375)"/>
<path d="M0 0 C-4 2 -8 4 -12 6 C-10.65659612 2.91017109 -10.1039314 2.06552197 -7.125 0.1875 C-4.02316031 -0.99119908 -2.9798555 -1.26070809 0 0 Z " fill="#E6F8EF" transform="translate(1195,539)"/>
<path d="M0 0 C0.33 0.66 0.66 1.32 1 2 C-0.25 5.0625 -0.25 5.0625 -2 8 C-2.99 8.33 -3.98 8.66 -5 9 C-3.375 2.25 -3.375 2.25 0 0 Z " fill="#E9EAE9" transform="translate(402,582)"/>
<path d="M0 0 C0.33 0 0.66 0 1 0 C1.33 4.29 1.66 8.58 2 13 C1.01 13.66 0.02 14.32 -1 15 C-0.67 10.05 -0.34 5.1 0 0 Z " fill="#BAEDD4" transform="translate(1232,562)"/>
<path d="M0 0 C0.99 0.33 1.98 0.66 3 1 C3.33 3.64 3.66 6.28 4 9 C3.34 9 2.68 9 2 9 C1.34 6.03 0.68 3.06 0 0 Z " fill="#F7F4F1" transform="translate(485,564)"/>
<path d="M0 0 C0.33 0.66 0.66 1.32 1 2 C2.32 1.34 3.64 0.68 5 0 C5 0.99 5 1.98 5 3 C2.5 5.1875 2.5 5.1875 0 7 C0 4.69 0 2.38 0 0 Z " fill="#D6F4E6" transform="translate(1105,539)"/>
<path d="M0 0 C2.64 0.33 5.28 0.66 8 1 C8 1.66 8 2.32 8 3 C5.03 2.67 2.06 2.34 -1 2 C-0.67 1.34 -0.34 0.68 0 0 Z " fill="#F8F8F7" transform="translate(448,536)"/>
<path d="M0 0 C1.8125 0.26953125 1.8125 0.26953125 4 0.8125 C5.0828125 1.06966797 5.0828125 1.06966797 6.1875 1.33203125 C8 2 8 2 9 4 C5.28111761 3.49287967 2.26545761 2.88391785 -1 1 C-0.67 0.67 -0.34 0.34 0 0 Z " fill="#EFFBF5" transform="translate(1211,537)"/>
<path d="M0 0 C-0.99 0.33 -1.98 0.66 -3 1 C-3.33 1.66 -3.66 2.32 -4 3 C-6.0625 3.625 -6.0625 3.625 -8 4 C-8.33 3.01 -8.66 2.02 -9 1 C-5.57367167 -0.61798838 -3.61944899 -1.34053666 0 0 Z " fill="#F7E1CF" transform="translate(427,536)"/>
</svg>
