<?xml version="1.0" encoding="UTF-8"?>
<svg version="1.1" xmlns="http://www.w3.org/2000/svg" width="725" height="335">
<path d="M0 0 C6.35327132 5.36557788 9.5068398 10.96275122 10.76171875 19.1875 C11.31164201 29.50330178 7.0171404 41.19199681 0.4375 49.0625 C-15.9195103 64.31400201 -36.71824801 74.55489357 -56.36376953 84.85424805 C-58.47339783 85.88034374 -58.47339783 85.88034374 -59.5625 87.0625 C-58.25796875 87.01609375 -56.9534375 86.9696875 -55.609375 86.921875 C-36.58365667 86.44263317 -23.20919103 91.13679461 -9.1015625 104.37109375 C18.87718103 134.0285619 27.84743102 180.00275906 38.6875 218.125 C38.88230957 218.80385254 39.07711914 219.48270508 39.27783203 220.18212891 C39.82294915 222.08933816 40.35705201 223.99968518 40.890625 225.91015625 C41.19129883 226.98273682 41.49197266 228.05531738 41.80175781 229.16040039 C42.4375 232.0625 42.4375 232.0625 42.4375 237.0625 C-17.6225 237.0625 -77.6825 237.0625 -139.5625 237.0625 C-139.5625 191.88938843 -134.62563641 141.87529159 -100.98754883 108.10693359 C-97.44092064 104.67089204 -93.62899197 101.86138225 -89.5625 99.0625 C-90.16723145 99.26931396 -90.77196289 99.47612793 -91.39501953 99.68920898 C-94.15756641 100.63095027 -96.92248623 101.56552775 -99.6875 102.5 C-101.11449219 102.98823242 -101.11449219 102.98823242 -102.5703125 103.48632812 C-111.41935699 106.46673547 -121.97381212 109.63493524 -131.09375 106.07421875 C-139.82275824 100.76805792 -145.04029185 92.02924561 -147.90234375 82.40234375 C-150.46748747 69.42484148 -148.63011957 57.99389256 -141.375 46.875 C-135.5727712 38.48747431 -127.15785452 32.80088884 -118.4375 27.8125 C-117.48593018 27.26166748 -116.53436035 26.71083496 -115.55395508 26.14331055 C-112.56756506 24.42977599 -109.5687517 22.74092107 -106.5625 21.0625 C-105.61971191 20.53543457 -104.67692383 20.00836914 -103.70556641 19.46533203 C-83.71095417 8.40352206 -62.84590107 -0.66114402 -40.5625 -5.9375 C-39.75296875 -6.13601562 -38.9434375 -6.33453125 -38.109375 -6.5390625 C-25.19215334 -8.55985485 -10.91751124 -7.75243459 0 0 Z " fill="#FB7301" transform="translate(150.5625,96.9375)"/>
<path d="M0 0 C6.35327132 5.36557788 9.5068398 10.96275122 10.76171875 19.1875 C11.31164201 29.50330178 7.0171404 41.19199681 0.4375 49.0625 C-18.93587943 67.1265062 -45.52556752 81.42916042 -70.0234375 90.94921875 C-72.57364069 91.93876238 -72.57364069 91.93876238 -74.4765625 93.58203125 C-76.69341364 95.15541436 -78.68437913 95.76364159 -81.29638672 96.43701172 C-84.21887536 97.24367148 -87.07051546 98.21703578 -89.94140625 99.19140625 C-91.10994141 99.58650391 -92.27847656 99.98160156 -93.48242188 100.38867188 C-95.91549999 101.21448338 -98.34779082 102.04261803 -100.77929688 102.87304688 C-101.94654297 103.26685547 -103.11378906 103.66066406 -104.31640625 104.06640625 C-105.37158447 104.42549072 -106.4267627 104.7845752 -107.51391602 105.15454102 C-114.84294324 107.33734331 -123.78444643 108.92800548 -131.09375 106.07421875 C-139.82275824 100.76805792 -145.04029185 92.02924561 -147.90234375 82.40234375 C-150.46748747 69.42484148 -148.63011957 57.99389256 -141.375 46.875 C-135.5727712 38.48747431 -127.15785452 32.80088884 -118.4375 27.8125 C-117.48593018 27.26166748 -116.53436035 26.71083496 -115.55395508 26.14331055 C-112.56756506 24.42977599 -109.5687517 22.74092107 -106.5625 21.0625 C-105.61971191 20.53543457 -104.67692383 20.00836914 -103.70556641 19.46533203 C-83.71095417 8.40352206 -62.84590107 -0.66114402 -40.5625 -5.9375 C-39.75296875 -6.13601562 -38.9434375 -6.33453125 -38.109375 -6.5390625 C-25.19215334 -8.55985485 -10.91751124 -7.75243459 0 0 Z " fill="#92D157" transform="translate(150.5625,96.9375)"/>
<path d="M0 0 C8.58 0 17.16 0 26 0 C26 17.82 26 35.64 26 54 C29.96 51.525 29.96 51.525 34 49 C42.43056052 45.31999342 54.84149591 45.41805351 63.5 48.4375 C73.88631477 53.57693507 79.63518327 61.51379396 84 72 C85.94499543 69.18151801 85.94499543 69.18151801 87.19140625 66.80078125 C91.97270031 58.12361795 98.36951675 50.97766549 107.93359375 47.625 C118.30429867 45.51122575 129.67182621 45.59636444 139 51 C139.99 51.66 140.98 52.32 142 53 C142.33 51.68 142.66 50.36 143 49 C151.58 49 160.16 49 169 49 C169 72.76 169 96.52 169 121 C160.42 121 151.84 121 143 121 C142.67 119.35 142.34 117.7 142 116 C141.39414062 116.40992188 140.78828125 116.81984375 140.1640625 117.2421875 C130.67017201 123.34748938 122.14978055 125.16934214 111 123 C100.57927081 120.15938641 94.00178046 114.14800663 88.2265625 105.2109375 C86.92740252 102.86913958 85.94050467 100.50508252 85 98 C84.50371094 98.85722656 84.00742187 99.71445312 83.49609375 100.59765625 C77.16725343 111.34207615 71.40832167 119.05487398 59 123 C47.53161082 125.26700716 38.59388294 123.51729703 28.8359375 117.2421875 C28.23007813 116.83226562 27.62421875 116.42234375 27 116 C26.67 117.65 26.34 119.3 26 121 C17.42 121 8.84 121 0 121 C0 81.07 0 41.14 0 0 Z M30 73 C26.02976182 77.98824796 25.3567997 82.07795937 25.6171875 88.4140625 C26.36317496 93.45328392 28.93166177 95.98507868 32.5 99.375 C37.6796921 101.77985704 42.38786275 101.8651418 48 101 C52.13833244 99.2938454 54.38777845 96.86895962 56.9375 93.25 C58.71367411 87.81699685 58.74710807 83.1583122 56.875 77.75 C54.26306126 73.91915651 51.19676371 71.09838185 47 69 C40.18144874 68.23961311 35.45421962 68.7457087 30 73 Z M113.6875 75.75 C110.99912716 80.92760695 110.6548857 84.9638256 111.625 90.6875 C113.42605635 95.02640849 115.81426052 97.6689407 119.828125 100.11328125 C124.05526607 101.83911043 128.52737221 101.51931818 133 101 C137.86479088 98.70028068 140.73361668 95.881441 143 91 C143.84298361 85.3354653 144.11623154 79.86752855 140.875 74.9375 C137.66777882 71.27465687 134.51207528 69.32784017 129.60546875 68.6875 C122.33362524 68.33862595 118.44503921 70.09238581 113.6875 75.75 Z " fill="#3BB271" transform="translate(201,211)"/>
<path d="M0 0 C0.61875 0.433125 1.2375 0.86625 1.875 1.3125 C0.41573252 8.44669658 -3.3476978 14.16175925 -7.125 20.3125 C-8.15560547 20.16941406 -8.15560547 20.16941406 -9.20703125 20.0234375 C-10.10808594 19.91257812 -11.00914062 19.80171875 -11.9375 19.6875 C-12.83082031 19.57148437 -13.72414063 19.45546875 -14.64453125 19.3359375 C-17.38190391 19.07749257 -17.38190391 19.07749257 -20.125 21.3125 C-21.4787108 26.34056868 -21.24108762 31.51835542 -21.1875 36.6875 C-21.18298828 37.51894531 -21.17847656 38.35039063 -21.17382812 39.20703125 C-21.16213164 41.24221897 -21.14419935 43.27736923 -21.125 45.3125 C-15.845 45.6425 -10.565 45.9725 -5.125 46.3125 C-4.63 52.7475 -4.63 52.7475 -4.125 59.3125 C-2.145 56.8375 -2.145 56.8375 -0.125 54.3125 C2.68746759 51.9870161 5.72283746 50.14456899 8.875 48.3125 C9.93460938 47.68408203 9.93460938 47.68408203 11.015625 47.04296875 C20.80018454 42.2020066 34.22731936 42.83270612 44.5 45.875 C54.20848708 49.76653044 60.5385217 55.80560527 64.875 65.3125 C67.68725426 72.76923477 67.875 78.02174728 67.875 86.3125 C50.715 86.3125 33.555 86.3125 15.875 86.3125 C16.97163606 94.05205585 16.97163606 94.05205585 20.8125 96.75 C25.56009584 99.17224278 29.59347113 99.85718806 34.875 99.3125 C38.77509548 97.99043374 41.37804737 96.76096944 44.4375 94 C45.241875 93.443125 46.04625 92.88625 46.875 92.3125 C51.55044928 93.45956144 55.5525345 95.62461085 59.75 97.9375 C61.47863281 98.88496094 61.47863281 98.88496094 63.2421875 99.8515625 C64.11101562 100.33367187 64.97984375 100.81578125 65.875 101.3125 C63.30989193 108.5145342 58.59632632 112.65163167 51.875 116.125 C39.01979449 121.99451749 25.32572559 122.90658585 11.875 118.3125 C2.65149154 113.87632017 -5.07434241 107.06471226 -9.33984375 97.62890625 C-12.8187661 87.36521991 -12.53193713 77.53331139 -9.125 67.3125 C-13.415 66.9825 -17.705 66.6525 -22.125 66.3125 C-22.125 83.4725 -22.125 100.6325 -22.125 118.3125 C-30.705 118.3125 -39.285 118.3125 -48.125 118.3125 C-48.125 101.1525 -48.125 83.9925 -48.125 66.3125 C-51.425 66.3125 -54.725 66.3125 -58.125 66.3125 C-58.125 59.7125 -58.125 53.1125 -58.125 46.3125 C-54.825 46.3125 -51.525 46.3125 -48.125 46.3125 C-48.14820313 45.06855469 -48.17140625 43.82460937 -48.1953125 42.54296875 C-48.39716072 27.33401124 -48.18213989 12.76698957 -37.16015625 1.04296875 C-26.63818917 -7.90373263 -11.46017788 -6.18849606 0 0 Z M17.875 65.3125 C17.215 67.2925 16.555 69.2725 15.875 71.3125 C24.455 71.3125 33.035 71.3125 41.875 71.3125 C40.45747627 65.49328497 40.45747627 65.49328497 37.375 62.9375 C30.48354169 59.73789436 23.57171456 59.90062117 17.875 65.3125 Z " fill="#1C6A94" transform="translate(323.125,80.6875)"/>
<path d="M0 0 C9.556656 7.83040715 14.77603946 18.48021643 16.09765625 30.71875 C17.25875044 44.22316853 14.69724441 58.89193038 6.09765625 69.71875 C-0.69902428 77.21908687 -8.51761133 79.25665223 -18.421875 79.76953125 C-35.14551197 79.52552757 -51.09283164 71.26402173 -62.90234375 59.71875 C-69.48149632 52.5465082 -73.25005854 44.24160207 -74.21484375 34.59375 C-73.48728532 25.57202553 -69.64570005 18.52462722 -63.90234375 11.71875 C-63.00708984 10.51025391 -63.00708984 10.51025391 -62.09375 9.27734375 C-47.21295244 -8.09684948 -18.87887823 -13.58480127 0 0 Z " fill="#5582A4" transform="translate(114.90234375,10.28125)"/>
<path d="M0 0 C1.65508131 0.95875746 3.25617436 2.00932457 4.84765625 3.0703125 C5.17765625 1.7503125 5.50765625 0.4303125 5.84765625 -0.9296875 C14.42765625 -0.9296875 23.00765625 -0.9296875 31.84765625 -0.9296875 C31.97835312 7.86732404 32.10880017 16.66433918 32.23880768 25.46136093 C32.29918554 29.54618306 32.3596728 33.63100351 32.42041016 37.71582031 C32.47902288 41.65801878 32.53734814 45.6002214 32.59547424 49.54242706 C32.61769883 51.04630942 32.64002693 52.55019026 32.66246033 54.05406952 C32.69386753 56.16071688 32.72490643 58.26736936 32.75585938 60.37402344 C32.77362427 61.57315369 32.79138916 62.77228394 32.80969238 64.00775146 C32.83887334 66.36179163 32.84765625 68.71609148 32.84765625 71.0703125 C23.93765625 71.0703125 15.02765625 71.0703125 5.84765625 71.0703125 C5.51765625 69.4203125 5.18765625 67.7703125 4.84765625 66.0703125 C3.30078125 67.2459375 3.30078125 67.2459375 1.72265625 68.4453125 C-6.08853109 73.95359999 -15.38275161 74.81642032 -24.71484375 73.5078125 C-34.28939349 71.44539166 -41.54857055 65.99031196 -47.15234375 58.0703125 C-53.36630388 48.0578501 -54.62388047 36.8500694 -52.6875 25.296875 C-50.20354339 15.97836322 -45.25701628 7.47907932 -37.15234375 2.0703125 C-26.02203536 -4.31626667 -11.8034625 -5.62069643 0 0 Z M-22.46484375 24.6328125 C-25.02218869 28.32675519 -25.33597822 30.39760869 -25.40234375 34.8828125 C-25.428125 35.92050781 -25.45390625 36.95820313 -25.48046875 38.02734375 C-24.91435394 43.27738464 -22.04273274 46.66622213 -18.15234375 50.0703125 C-12.33848899 52.00826409 -6.23125599 52.09086942 -0.71484375 49.3828125 C4.43376312 44.73650874 6.57498598 41.61404473 7.01171875 34.63671875 C6.65702205 29.08824894 4.22081595 25.34538936 0.22265625 21.6328125 C-7.23381311 16.72724056 -16.47729264 17.99795857 -22.46484375 24.6328125 Z " fill="#3BB270" transform="translate(461.15234375,260.9296875)"/>
<path d="M0 0 C7.6881033 3.93404617 10.92134216 7.72877218 14.42919922 15.67041016 C15.75797275 20.83595464 15.58080087 25.84492873 15.53125 31.15625 C15.5284201 32.30195465 15.52559021 33.4476593 15.52267456 34.62808228 C15.51150885 38.27560005 15.48641049 41.92286935 15.4609375 45.5703125 C15.45090305 48.04817353 15.44177801 50.52603842 15.43359375 53.00390625 C15.41328573 59.06788032 15.3741292 65.13131933 15.3359375 71.1953125 C6.4259375 71.1953125 -2.4840625 71.1953125 -11.6640625 71.1953125 C-11.68984375 68.01648438 -11.715625 64.83765625 -11.7421875 61.5625 C-11.78062998 58.47452034 -11.82578322 55.38670641 -11.87158203 52.29882812 C-11.89975994 50.15730741 -11.92099025 48.01568332 -11.93505859 45.87402344 C-11.95653175 42.79047843 -12.00320567 39.70817232 -12.0546875 36.625 C-12.05591614 35.67164764 -12.05714478 34.71829529 -12.05841064 33.73605347 C-12.18228789 28.07901376 -12.80565028 24.63485314 -16.6640625 20.1953125 C-20.37964164 17.71825974 -23.35727427 17.54276883 -27.6640625 18.1953125 C-32.6687095 20.65042235 -34.65019108 23.06313042 -36.6640625 28.1953125 C-37.1136728 31.52589973 -37.15219425 34.82989267 -37.17578125 38.1875 C-37.19373245 39.13344025 -37.21168365 40.07938049 -37.23017883 41.0539856 C-37.28412887 44.05938329 -37.31812854 47.06462354 -37.3515625 50.0703125 C-37.38474907 52.11460517 -37.41923997 54.1588771 -37.45507812 56.203125 C-37.54228953 61.20054158 -37.60248911 66.19725185 -37.6640625 71.1953125 C-46.2440625 71.1953125 -54.8240625 71.1953125 -63.6640625 71.1953125 C-63.6640625 47.4353125 -63.6640625 23.6753125 -63.6640625 -0.8046875 C-55.0840625 -0.8046875 -46.5040625 -0.8046875 -37.6640625 -0.8046875 C-37.3340625 0.8453125 -37.0040625 2.4953125 -36.6640625 4.1953125 C-36.04917969 3.77378906 -35.43429687 3.35226562 -34.80078125 2.91796875 C-33.99253906 2.37011719 -33.18429687 1.82226562 -32.3515625 1.2578125 C-31.15080078 0.43990234 -31.15080078 0.43990234 -29.92578125 -0.39453125 C-21.74068885 -5.49784447 -8.45009781 -3.62872068 0 0 Z " fill="#3AB270" transform="translate(565.6640625,260.8046875)"/>
<path d="M0 0 C3.70034936 2.6996915 6.88097629 5.65163632 10 9 C10.53625 9.5671875 11.0725 10.134375 11.625 10.71875 C15.65738846 15.61522171 17.29069787 21.78274971 18 28 C17.505 32.95 17.505 32.95 17 38 C0.17 38 -16.66 38 -34 38 C-32.06174645 46.80771377 -32.06174645 46.80771377 -27.3125 49.5625 C-22.33418229 51.53744505 -17.90463111 52.0690294 -12.82421875 50.19921875 C-8.79949782 48.2975819 -8.79949782 48.2975819 -5.58203125 45.30078125 C-4 44 -4 44 -1.80078125 44.05859375 C1.97743531 45.32853823 5.33294462 47.13459324 8.8125 49.0625 C9.50537109 49.43955078 10.19824219 49.81660156 10.91210938 50.20507812 C12.61128985 51.13083852 14.30609425 52.06462312 16 53 C15.67 54.32 15.34 55.64 15 57 C14.34 57 13.68 57 13 57 C12.731875 57.598125 12.46375 58.19625 12.1875 58.8125 C8.45608266 65.68616352 1.17638034 68.84811551 -6 71 C-18.98051556 74.33064546 -32.24918165 73.84245439 -44 67 C-53.01410017 60.38125512 -59.79452773 52.14703815 -62 41 C-63.122576 28.75930826 -60.8993153 18.55145968 -53 9 C-39.91214882 -4.87657291 -17.24889101 -9.51487498 0 0 Z M-32 17 C-32.66 18.98 -33.32 20.96 -34 23 C-25.75 23 -17.5 23 -9 23 C-9.94348619 18.28256904 -10.33804756 16.7861192 -14.05859375 13.953125 C-20.26528352 10.90597751 -27.11378634 12.35809702 -32 17 Z " fill="#3BB270" transform="translate(706,262)"/>
<path d="M0 0 C8.58 0 17.16 0 26 0 C26 39.93 26 79.86 26 121 C17.42 121 8.84 121 0 121 C0 81.07 0 41.14 0 0 Z " fill="#1D6992" transform="translate(201,78)"/>
<path d="M0 0 C8.25 0 16.5 0 25 0 C26 1 26 1 26.12304783 2.9971323 C26.12166514 4.32313151 26.12166514 4.32313151 26.12025452 5.67591858 C26.12162918 6.68699173 26.12300385 7.69806488 26.12442017 8.73977661 C26.12082489 9.85826996 26.11722961 10.97676331 26.11352539 12.12915039 C26.11367142 13.29972488 26.11381744 14.47029938 26.1139679 15.67634583 C26.11338895 18.89520943 26.10835991 22.11403004 26.10139394 25.33288503 C26.09515957 28.693474 26.09455654 32.05406373 26.09336853 35.41465759 C26.09025546 41.78242342 26.0820424 48.15017216 26.07201904 54.51793045 C26.06085715 61.76569729 26.05534726 69.01346493 26.05032361 76.26123822 C26.03985977 91.17416991 26.02151459 106.08707939 26 121 C17.42 121 8.84 121 0 121 C0 81.07 0 41.14 0 0 Z " fill="#39B271" transform="translate(379,211)"/>
<path d="M0 0 C0.99 0.99 0.99 0.99 2 2 C1.6840349 6.69241782 0.09587453 10.24194239 -2.0625 14.375 C-2.61035156 15.43460937 -3.15820312 16.49421875 -3.72265625 17.5859375 C-4.14417969 18.38257813 -4.56570313 19.17921875 -5 20 C-5.54527344 19.855625 -6.09054687 19.71125 -6.65234375 19.5625 C-13.8848684 17.78218624 -20.58164463 16.28703376 -27.375 20.0625 C-31.20573081 22.77148294 -32.73818716 25.42592844 -34 30 C-34.7899496 36.09389689 -33.04774797 40.79906489 -30 46 C-25.71009256 50.15991025 -21.27894202 50.20970632 -15.5859375 50.16796875 C-12.13157782 49.94359191 -9.26165515 49.13448875 -6 48 C-2.70495718 53.89695365 0.48928149 59.72320373 3 66 C-9.20578442 72.53088725 -22.48315689 75.04298432 -36 71 C-46.51594175 66.97827823 -54.84430191 60.08653708 -60 50 C-63.64320321 40.48642785 -64.3961254 30.69855041 -61 21 C-55.34012629 9.0472404 -47.13584212 2.0103691 -35 -3 C-24.08476286 -6.17037771 -10.08336346 -5.01423156 0 0 Z " fill="#3BB270" transform="translate(645,262)"/>
<path d="M0 0 C8.58 0 17.16 0 26 0 C26 23.76 26 47.52 26 72 C17.42 72 8.84 72 0 72 C0 48.24 0 24.48 0 0 Z " fill="#1B6994" transform="translate(236,127)"/>
<path d="M0 0 C5.50478773 2.85433438 8.01282276 5.89744295 9.875 11.75 C10.04939389 16.28424125 9.00946537 19.94242569 7 24 C3.55766674 27.53292098 -0.06237404 29.85034736 -5.0703125 30.10546875 C-10.51545813 29.85628412 -13.60463901 28.33284971 -17.58984375 24.66796875 C-20.92942983 20.71782122 -21.44073533 17.29385422 -21.31640625 12.24609375 C-20.65028365 7.51744566 -17.85522148 4.77178524 -14.4375 1.6875 C-9.6229963 -1.64561795 -5.49962215 -1.21273719 0 0 Z " fill="#1C6993" transform="translate(255,83)"/>
<path d="M0 0 C4.14581887 -0.02886751 8.29161216 -0.04675327 12.4375 -0.0625 C14.21350586 -0.07506836 14.21350586 -0.07506836 16.02539062 -0.08789062 C17.15009766 -0.09111328 18.27480469 -0.09433594 19.43359375 -0.09765625 C20.47572021 -0.10289307 21.51784668 -0.10812988 22.59155273 -0.11352539 C25 0 25 0 26 1 C26.09439978 3.26991887 26.11742226 5.54281967 26.11352539 7.81469727 C26.11367142 8.52685394 26.11381744 9.23901062 26.1139679 9.9727478 C26.1132687 12.33733112 26.10547606 14.70183661 26.09765625 17.06640625 C26.09579209 18.70165463 26.09436818 20.33690357 26.09336853 21.97215271 C26.08954318 26.28434785 26.07971275 30.59650952 26.06866455 34.90869141 C26.0584508 39.30565946 26.05387099 43.70263289 26.04882812 48.09960938 C26.03809049 56.73308831 26.02101387 65.36654 26 74 C25.67 74 25.34 74 25 74 C23.91139573 66.10102717 23.87084941 58.30233278 23.90234375 50.33984375 C23.90421263 48.94023184 23.90563431 47.54061927 23.90663147 46.14100647 C23.91041964 42.48652284 23.9202176 38.83208 23.93133545 35.1776123 C23.94162984 31.43677319 23.94614616 27.69592737 23.95117188 23.95507812 C23.9618438 16.63669815 23.97940989 9.31836002 24 2 C16.08 2.33 8.16 2.66 0 3 C0 2.01 0 1.02 0 0 Z " fill="#5D987A" transform="translate(379,211)"/>
<path d="M0 0 C8.58 0 17.16 0 26 0 C26 23.76 26 47.52 26 72 C17.42 72 8.84 72 0 72 C0 70.35 0 68.7 0 67 C0.33 68.32 0.66 69.64 1 71 C7.34093311 70.51436386 7.34093311 70.51436386 13.5625 69.3125 C16 69 16 69 25 71 C24.67 48.23 24.34 25.46 24 2 C17.73 2 11.46 2 5 2 C3.35 1.67 1.7 1.34 0 1 C0 0.67 0 0.34 0 0 Z " fill="#45A572" transform="translate(344,260)"/>
<path d="M0 0 C0.33 0 0.66 0 1 0 C1 3.3 1 6.6 1 10 C-16.16 10 -33.32 10 -51 10 C-51 9.67 -51 9.34 -51 9 C-45.99778603 7.6773652 -41.01854038 7.87406522 -35.88671875 7.90234375 C-34.91716751 7.9037587 -33.94761627 7.90517365 -32.94868469 7.90663147 C-29.86159133 7.91221487 -26.77457133 7.92476436 -23.6875 7.9375 C-21.59049584 7.94251714 -19.49349054 7.94707968 -17.39648438 7.95117188 C-12.26429479 7.96217888 -7.13215982 7.97943212 -2 8 C-1.855625 7.05125 -1.71125 6.1025 -1.5625 5.125 C-1 2 -1 2 0 0 Z " fill="#296482" transform="translate(390,157)"/>
<path d="M0 0 C5.39449293 -0.27429625 8.51925805 -0.36055646 13 3 C12.01 3.495 12.01 3.495 11 4 C10.34 3.67 9.68 3.34 9 3 C4.94857881 2.74139865 3.45662331 2.69558446 0 5 C-1.39340518 10.28993342 -1.32553109 15.92859971 -1.5625 21.375 C-1.60568359 22.30183594 -1.64886719 23.22867188 -1.69335938 24.18359375 C-1.79876186 26.45560294 -1.90088606 28.72770925 -2 31 C-4 29.1875 -4 29.1875 -6 27 C-6 26.01 -6 25.02 -6 24 C-5.34 24 -4.68 24 -4 24 C-4.02320313 23.2265625 -4.04640625 22.453125 -4.0703125 21.65625 C-4.20466304 13.90230451 -4.0163691 6.88520417 0 0 Z " fill="#1F6488" transform="translate(303,97)"/>
<path d="M0 0 C1.03543945 -0.01160156 1.03543945 -0.01160156 2.09179688 -0.0234375 C6.45670018 -0.0068881 10.00765498 0.65090619 14.0625 2.25 C13.423125 2.37375 12.78375 2.4975 12.125 2.625 C11.444375 2.83125 10.76375 3.0375 10.0625 3.25 C9.7325 3.91 9.4025 4.57 9.0625 5.25 C8.4025 4.92 7.7425 4.59 7.0625 4.25 C7.0625 3.26 7.0625 2.27 7.0625 1.25 C2.0401057 1.72477417 2.0401057 1.72477417 -2.4375 3.875 C-5.89300889 5.77552989 -8.13774603 4.94086436 -11.9375 4.25 C-14.25908065 4.59659295 -14.25908065 4.59659295 -15.9375 5.25 C-11.56311541 0.18492311 -6.36167714 -0.0708822 0 0 Z " fill="#40A973" transform="translate(548.9375,257.75)"/>
<path d="M0 0 C3.44960476 1.52276018 6.74025359 3.20357404 10.04296875 5.0234375 C11.19539063 5.65507812 12.3478125 6.28671875 13.53515625 6.9375 C14.83839844 7.66066406 14.83839844 7.66066406 16.16796875 8.3984375 C14.41796875 13.2734375 14.41796875 13.2734375 12.16796875 14.3984375 C12.16796875 12.4184375 12.16796875 10.4384375 12.16796875 8.3984375 C10.4445312 7.55331926 8.71392822 6.72280396 6.98046875 5.8984375 C6.01753906 5.434375 5.05460937 4.9703125 4.0625 4.4921875 C-0.06112392 2.93400302 -2.68078559 3.01468895 -6.83203125 4.3984375 C-6.83203125 5.0584375 -6.83203125 5.7184375 -6.83203125 6.3984375 C-9.14203125 6.7284375 -11.45203125 7.0584375 -13.83203125 7.3984375 C-12.84203125 6.7384375 -11.85203125 6.0784375 -10.83203125 5.3984375 C-10.22746094 4.87765625 -9.62289063 4.356875 -9 3.8203125 C-8.34644531 3.26859375 -7.69289063 2.716875 -7.01953125 2.1484375 C-6.37371094 1.58640625 -5.72789062 1.024375 -5.0625 0.4453125 C-2.83203125 -0.6015625 -2.83203125 -0.6015625 0 0 Z " fill="#246080" transform="translate(372.83203125,173.6015625)"/>
<path d="M0 0 C0.99 0.33 1.98 0.66 3 1 C3 6.28 3 11.56 3 17 C4.98 17 6.96 17 9 17 C9.33 17.99 9.66 18.98 10 20 C6.7 20 3.4 20 0 20 C0 13.4 0 6.8 0 0 Z " fill="#276482" transform="translate(265,127)"/>
<path d="M0 0 C0 0.33 0 0.66 0 1 C-0.60996826 1.0501123 -1.21993652 1.10022461 -1.84838867 1.15185547 C-4.62883426 1.38485813 -7.40810346 1.62981295 -10.1875 1.875 C-11.14720703 1.95363281 -12.10691406 2.03226563 -13.09570312 2.11328125 C-14.49272461 2.23896484 -14.49272461 2.23896484 -15.91796875 2.3671875 C-17.19837036 2.47716064 -17.19837036 2.47716064 -18.50463867 2.58935547 C-21.22218081 3.03656277 -23.47183653 3.92622157 -26 5 C-28.66572015 5.49313497 -31.29815717 5.72523632 -34 6 C-26.25986466 -2.82820549 -10.57273228 -0.27959233 0 0 Z " fill="#E78315" transform="translate(111,184)"/>
<path d="M0 0 C-6.75744225 3.00757373 -13.58030052 5.6328521 -20.625 7.875 C-21.32367188 8.1021167 -22.02234375 8.3292334 -22.7421875 8.56323242 C-27.75748525 10.12125737 -27.75748525 10.12125737 -30 9 C-28.29306569 8.26367539 -26.5856264 7.52848724 -24.875 6.80078125 C-23.34934407 6.14919903 -21.82993872 5.48299618 -20.3125 4.8125 C-18 4 -18 4 -14 4 C-13.67 3.01 -13.34 2.02 -13 1 C-12.34 1.33 -11.68 1.66 -11 2 C-9.88625 1.505 -8.7725 1.01 -7.625 0.5 C-3.96610114 -1.01402711 -3.46301739 -1.15942432 0 0 Z " fill="#A1C157" transform="translate(68,193)"/>
<path d="M0 0 C6.23105273 0.76096042 9.8826625 4.49717472 14 9 C15.5625 12.5 15.5625 12.5 16 15 C14.35 15.33 12.7 15.66 11 16 C11.20625 15.05125 11.4125 14.1025 11.625 13.125 C11.74875 12.09375 11.8725 11.0625 12 10 C9.64046906 7.64046906 8.22104383 7.50858587 5 7 C5 5.68 5 4.36 5 3 C3.68 3 2.36 3 1 3 C0.67 2.01 0.34 1.02 0 0 Z " fill="#98C967" transform="translate(143,94)"/>
<path d="M0 0 C4.84057757 0.62078836 9.11599144 0.18878694 13.9375 -0.5 C9.01733757 4.42016243 1.49922781 4.05632445 -5.0625 4.5 C-5.3925 3.18 -5.7225 1.86 -6.0625 0.5 C-3.62086141 -0.7208193 -2.66272987 -0.41326319 0 0 Z " fill="#3EB075" transform="translate(447.0625,330.5)"/>
<path d="M0 0 C3.07228577 4.60842865 3.08633971 9.53901319 3 15 C2.29340013 17.4595111 1.47335816 18.87836425 0 21 C-1.98 21 -3.96 21 -6 21 C-6 20.34 -6 19.68 -6 19 C-4.02 19 -2.04 19 0 19 C0 12.73 0 6.46 0 0 Z " fill="#216386" transform="translate(275,108)"/>
<path d="M0 0 C0.66 0.33 1.32 0.66 2 1 C1.67 2.32 1.34 3.64 1 5 C1.99 4.01 2.98 3.02 4 2 C3.67 3.98 3.34 5.96 3 8 C0.03 7.505 0.03 7.505 -3 7 C-3.66 10.3 -4.32 13.6 -5 17 C-5.66 17 -6.32 17 -7 17 C-6.70368676 10.18479548 -3.69535803 5.61649218 0 0 Z " fill="#99CB63" transform="translate(10,143)"/>
<path d="M0 0 C2.86435065 2.86435065 2.74150779 4.99337074 3 9 C2.52291103 11.7613331 1.80362949 14.30547758 1 17 C0.01 17 -0.98 17 -2 17 C-2.33 18.32 -2.66 19.64 -3 21 C-3.99 20.67 -4.98 20.34 -6 20 C-5.195625 19.05125 -4.39125 18.1025 -3.5625 17.125 C0.22078007 11.8882564 0 6.24183093 0 0 Z " fill="#47A973" transform="translate(467,290)"/>
<path d="M0 0 C-0.99 0.66 -1.98 1.32 -3 2 C-3.60457031 2.42539063 -4.20914063 2.85078125 -4.83203125 3.2890625 C-9.02598704 6.11812143 -11.75865481 7.65516815 -17 7 C-12.74282338 1.85591158 -6.66957916 -0.62527305 0 0 Z " fill="#A5C141" transform="translate(85,185)"/>
<path d="M0 0 C2.475 0.99 2.475 0.99 5 2 C3.52232949 8.64951729 0.37863948 14.1245672 -3 20 C-4.03426937 17.32813747 -4.13447787 16.30868784 -2.96875 13.6328125 C-2.4840625 12.80523437 -1.999375 11.97765625 -1.5 11.125 C0.35771179 7.66545959 1.02012721 6.38912606 0.8125 2.375 C0.544375 1.59125 0.27625 0.8075 0 0 Z " fill="#1F5B7A" transform="translate(320,80)"/>
<path d="M0 0 C0.66 0 1.32 0 2 0 C2.88277755 4.51815281 3.10589503 8.77512694 3.0625 13.375 C3.05347656 14.62023437 3.04445313 15.86546875 3.03515625 17.1484375 C3.02355469 18.08945312 3.01195312 19.03046875 3 20 C2.01 19.67 1.02 19.34 0 19 C0 12.73 0 6.46 0 0 Z " fill="#579F79" transform="translate(578,305)"/>
<path d="M0 0 C0.33 0.66 0.66 1.32 1 2 C1.66 2 2.32 2 3 2 C2.8863485 4.62594784 2.75960946 7.25011547 2.625 9.875 C2.5940625 10.62136719 2.563125 11.36773437 2.53125 12.13671875 C2.2265625 17.7734375 2.2265625 17.7734375 0 20 C0 13.4 0 6.8 0 0 Z " fill="#45AA72" transform="translate(379,288)"/>
<path d="M0 0 C5.39449293 -0.27429625 8.51925805 -0.36055646 13 3 C12.01 3.495 12.01 3.495 11 4 C10.34 3.67 9.68 3.34 9 3 C4.94857881 2.74139865 3.45662331 2.69558446 0 5 C-0.73343428 8.06556598 -0.73343428 8.06556598 -1 11 C-1.66 11 -2.32 11 -3 11 C-2.53199289 6.94393835 -2.12046792 3.53411321 0 0 Z " fill="#1E5A81" transform="translate(303,97)"/>
<path d="M0 0 C1.65 0 3.3 0 5 0 C5 0.99 5 1.98 5 3 C5.75925781 3.13277344 6.51851563 3.26554688 7.30078125 3.40234375 C8.79158203 3.66724609 8.79158203 3.66724609 10.3125 3.9375 C11.79169922 4.19853516 11.79169922 4.19853516 13.30078125 4.46484375 C16 5 16 5 19 6 C19 6.66 19 7.32 19 8 C12.16981515 7.62054529 6.81609264 5.63930943 1 2 C0.67 1.34 0.34 0.68 0 0 Z " fill="#226283" transform="translate(327,193)"/>
<path d="M0 0 C0.66 0.33 1.32 0.66 2 1 C-4.91474819 6.58093889 -9.84689306 9.36612428 -19 9 C-19 8.67 -19 8.34 -19 8 C-18.07767578 7.83564453 -18.07767578 7.83564453 -17.13671875 7.66796875 C-16.32847656 7.50941406 -15.52023438 7.35085937 -14.6875 7.1875 C-13.88699219 7.03667969 -13.08648437 6.88585937 -12.26171875 6.73046875 C-9.72531346 5.91128431 -8.79326311 4.91314699 -7 3 C-5.01643517 2.28591666 -3.01684563 1.61382258 -1 1 C-0.67 0.67 -0.34 0.34 0 0 Z " fill="#597F94" transform="translate(118,80)"/>
<path d="M0 0 C1.98 0 3.96 0 6 0 C8.69575019 5.15708731 10.14795458 8.93908858 10.0625 14.75 C10.05347656 15.54921875 10.04445313 16.3484375 10.03515625 17.171875 C10.02355469 17.77515625 10.01195312 18.3784375 10 19 C9.67 19 9.34 19 9 19 C8.91363281 18.27554687 8.82726562 17.55109375 8.73828125 16.8046875 C7.79244605 10.29664712 6.72800047 6.60980046 2 2 C1.34 1.34 0.68 0.68 0 0 Z " fill="#4AA876" transform="translate(250,281)"/>
<path d="M0 0 C0.680625 0.7425 1.36125 1.485 2.0625 2.25 C6.24134681 6.41700872 11.04884522 9.27864791 17 10 C17 10.33 17 10.66 17 11 C10.73127618 10.97157041 6.99494526 9.88433729 2.3125 5.66796875 C0.83675924 3.79254821 0.4046254 2.33165389 0 0 Z " fill="#265E79" transform="translate(235,102)"/>
<path d="M0 0 C4.29 0.33 8.58 0.66 13 1 C13 1.99 13 2.98 13 4 C13.66 4.33 14.32 4.66 15 5 C12.525 6.485 12.525 6.485 10 8 C10.33 6.35 10.66 4.7 11 3 C7.04 2.67 3.08 2.34 -1 2 C-0.67 1.34 -0.34 0.68 0 0 Z " fill="#286285" transform="translate(303,145)"/>
<path d="M0 0 C0.33 0.66 0.66 1.32 1 2 C-2.38121547 5.88213628 -2.38121547 5.88213628 -5.625 6.5 C-6.40875 6.665 -7.1925 6.83 -8 7 C-9.36020151 8.96758273 -9.36020151 8.96758273 -10 11 C-10.33 10.34 -10.66 9.68 -11 9 C-7.56638098 5.36440339 -4.2026393 2.63886654 0 0 Z " fill="#1B5D7B" transform="translate(332,129)"/>
<path d="M0 0 C2.375 0.25 2.375 0.25 5 1 C5.28875 1.61875 5.5775 2.2375 5.875 2.875 C7.66121445 6.24896063 10.49260332 6.70096419 14 8 C14 8.66 14 9.32 14 10 C8.03868848 8.65870491 4.19807984 5.25135496 0 1 C0 0.67 0 0.34 0 0 Z " fill="#48A875" transform="translate(294,322)"/>
<path d="M0 0 C0.33 0 0.66 0 1 0 C1 3.3 1 6.6 1 10 C-2.63 9.67 -6.26 9.34 -10 9 C-10 8.67 -10 8.34 -10 8 C-7.36 8 -4.72 8 -2 8 C-1.7834375 6.576875 -1.7834375 6.576875 -1.5625 5.125 C-1 2 -1 2 0 0 Z " fill="#185D7D" transform="translate(390,157)"/>
<path d="M0 0 C0.33644531 0.48082031 0.67289062 0.96164062 1.01953125 1.45703125 C3.97048742 3.75609967 7.08708942 3.56983952 10.6875 3.6875 C11.7403418 3.73874023 11.7403418 3.73874023 12.81445312 3.79101562 C14.54241387 3.87329947 16.27118072 3.9383324 18 4 C18 4.33 18 4.66 18 5 C11.73 5 5.46 5 -1 5 C-0.67 3.35 -0.34 1.7 0 0 Z " fill="#47AA75" transform="translate(468,327)"/>
<path d="M0 0 C-0.66 1.32 -1.32 2.64 -2 4 C-2.598125 3.814375 -3.19625 3.62875 -3.8125 3.4375 C-6.16408762 2.77906313 -6.16408762 2.77906313 -9 4 C-11.1875 3.0625 -11.1875 3.0625 -13 2 C-8.50343896 -0.24828052 -4.92127034 -0.16682272 0 0 Z " fill="#42AD76" transform="translate(317,259)"/>
<path d="M0 0 C3.94139078 1.66751148 6.7892812 4.22710649 10 7 C8.68 7.33 7.36 7.66 6 8 C6 7.01 6 6.02 6 5 C4.35 5.33 2.7 5.66 1 6 C0.67 4.02 0.34 2.04 0 0 Z " fill="#EB7817" transform="translate(131,194)"/>
<path d="M0 0 C4.60139641 1.48868707 7.50227094 3.74629855 11 7 C11 7.66 11 8.32 11 9 C10.34 9 9.68 9 9 9 C8.34 8.34 7.68 7.68 7 7 C6.01 6.67 5.02 6.34 4 6 C4 5.34 4 4.68 4 4 C2.68 3.34 1.36 2.68 0 2 C0 1.34 0 0.68 0 0 Z " fill="#206080" transform="translate(371,129)"/>
<path d="M0 0 C0.66 0 1.32 0 2 0 C2 0.99 2 1.98 2 3 C2.99 3 3.98 3 5 3 C5.33 6.3 5.66 9.6 6 13 C2.10014426 8.84015388 1.10830253 5.44915409 0 0 Z " fill="#46AA6F" transform="translate(409,306)"/>
<path d="M0 0 C-0.33 1.32 -0.66 2.64 -1 4 C-2.11375 4.28875 -3.2275 4.5775 -4.375 4.875 C-8.00291092 5.69241329 -8.00291092 5.69241329 -10 8 C-10.99 7.67 -11.98 7.34 -13 7 C-11.21190303 5.82786955 -9.41940875 4.66244474 -7.625 3.5 C-6.62726562 2.8503125 -5.62953125 2.200625 -4.6015625 1.53125 C-2 0 -2 0 0 0 Z " fill="#99C967" transform="translate(37,123)"/>
<path d="M0 0 C0.99 0 1.98 0 3 0 C4.38671875 1.53125 4.38671875 1.53125 5.6875 3.5 C6.12449219 4.1496875 6.56148438 4.799375 7.01171875 5.46875 C7.33785156 5.9740625 7.66398437 6.479375 8 7 C7.34 7 6.68 7 6 7 C6 7.66 6 8.32 6 9 C4 8 4 8 3 5 C2.34 4.67 1.68 4.34 1 4 C0.375 1.9375 0.375 1.9375 0 0 Z " fill="#44AA72" transform="translate(434,303)"/>
<path d="M0 0 C2.64 0.66 5.28 1.32 8 2 C8.33 3.65 8.66 5.3 9 7 C4.58110387 5.64978174 2.65654657 3.73884332 0 0 Z " fill="#43AB75" transform="translate(655,322)"/>
<path d="M0 0 C0.33 0 0.66 0 1 0 C1 3.3 1 6.6 1 10 C-2.2542015 7.16569547 -3.5206753 5.31392226 -4 1 C-3.01 1.33 -2.02 1.66 -1 2 C-0.67 1.34 -0.34 0.68 0 0 Z " fill="#46AD77" transform="translate(589,308)"/>
<path d="M0 0 C1.90318884 2.85478326 2.4619099 4.41941308 3.125 7.6875 C3.29257813 8.49574219 3.46015625 9.30398438 3.6328125 10.13671875 C3.75398437 10.75160156 3.87515625 11.36648438 4 12 C2 12 2 12 0.3125 10.5 C-1.65798148 6.74670195 -0.75538187 4.12026476 0 0 Z " fill="#EA7713" transform="translate(179,284)"/>
<path d="M0 0 C0.33 0.99 0.66 1.98 1 3 C1.66 3.33 2.32 3.66 3 4 C0.6875 5.5625 0.6875 5.5625 -2 7 C-2.99 6.67 -3.98 6.34 -5 6 C-3.35 4.02 -1.7 2.04 0 0 Z " fill="#47A871" transform="translate(421,265)"/>
<path d="M0 0 C4.75 0.875 4.75 0.875 7 2 C8.70363822 2.22622081 10.41328701 2.40888473 12.125 2.5625 C13.03507812 2.64628906 13.94515625 2.73007813 14.8828125 2.81640625 C15.58148438 2.87699219 16.28015625 2.93757812 17 3 C17 3.33 17 3.66 17 4 C15.10489301 4.08160748 13.20875496 4.13946459 11.3125 4.1875 C9.72888672 4.23970703 9.72888672 4.23970703 8.11328125 4.29296875 C4.63392401 3.96555119 2.7919812 3.05643142 0 1 C0 0.67 0 0.34 0 0 Z " fill="#9CC76A" transform="translate(17,200)"/>
<path d="M0 0 C-4.92984325 2.03993514 -8.57960425 3.40652968 -14 3 C-11.73560813 0.73560813 -10.62863112 0.48211484 -7.5625 -0.1875 C-6.78003906 -0.36667969 -5.99757813 -0.54585938 -5.19140625 -0.73046875 C-3 -1 -3 -1 0 0 Z " fill="#49A176" transform="translate(461,331)"/>
<path d="M0 0 C0 0.66 0 1.32 0 2 C-0.66 2 -1.32 2 -2 2 C-2 2.99 -2 3.98 -2 5 C-1.0409375 5.433125 -1.0409375 5.433125 -0.0625 5.875 C2 7 2 7 3 9 C0.50638429 7.79618552 -1.68143083 6.54571278 -4 5 C-4 4.34 -4 3.68 -4 3 C-4.66 2.67 -5.32 2.34 -6 2 C-3 0 -3 0 0 0 Z " fill="#45AC74" transform="translate(231,321)"/>
<path d="M0 0 C1.32 0.66 2.64 1.32 4 2 C3.67 2.99 3.34 3.98 3 5 C0.9375 5.6875 0.9375 5.6875 -1 6 C-1.625 4.125 -1.625 4.125 -2 2 C-1.34 1.34 -0.68 0.68 0 0 Z " fill="#45AC73" transform="translate(651,274)"/>
<path d="M0 0 C1.15518918 0.90484792 2.29885406 1.8244206 3.4375 2.75 C4.07558594 3.26046875 4.71367188 3.7709375 5.37109375 4.296875 C7.18810554 6.19667629 7.60423197 7.43586908 8 10 C6.68 9.34 5.36 8.68 4 8 C4 7.34 4 6.68 4 6 C3.01 5.67 2.02 5.34 1 5 C0.67 3.35 0.34 1.7 0 0 Z " fill="#4BA374" transform="translate(711,267)"/>
<path d="M0 0 C-0.66 1.65 -1.32 3.3 -2 5 C-3.98 5 -5.96 5 -8 5 C-3.16129032 0 -3.16129032 0 0 0 Z " fill="#43A877" transform="translate(668,261)"/>
<path d="M0 0 C0.66 1.32 1.32 2.64 2 4 C1.01 4.495 1.01 4.495 0 5 C-0.72693904 6.97888961 -1.39816251 8.97954558 -2 11 C-2.33 11 -2.66 11 -3 11 C-3.36923077 3.49230769 -3.36923077 3.49230769 -1.5 1 C-1.005 0.67 -0.51 0.34 0 0 Z " fill="#1C6489" transform="translate(315,151)"/>
<path d="M0 0 C3.00617269 3.00617269 2.59585316 5.82381598 3 10 C2.01 9.67 1.02 9.34 0 9 C0 6.03 0 3.06 0 0 Z " fill="#44AC73" transform="translate(282,278)"/>
<path d="M0 0 C4.82360189 -0.19294408 8.49646738 0.24252386 13 2 C13 2.33 13 2.66 13 3 C10.69 3.33 8.38 3.66 6 4 C6 3.01 6 2.02 6 1 C4.02 1 2.04 1 0 1 C0 0.67 0 0.34 0 0 Z " fill="#43A773" transform="translate(252,258)"/>
<path d="M0 0 C-0.33 0.99 -0.66 1.98 -1 3 C-3.64 2.67 -6.28 2.34 -9 2 C-5.945634 -1.054366 -3.9532319 -1.22686507 0 0 Z " fill="#43AC77" transform="translate(321,332)"/>
<path d="M0 0 C1.32 1.32 2.64 2.64 4 4 C2.1875 5.0625 2.1875 5.0625 0 6 C-0.99 5.67 -1.98 5.34 -3 5 C-2.01 3.35 -1.02 1.7 0 0 Z " fill="#F4780E" transform="translate(141,202)"/>
<path d="M0 0 C0.99 0.33 1.98 0.66 3 1 C0.36 2.98 -2.28 4.96 -5 7 C-5 6.01 -5 5.02 -5 4 C-4.0409375 3.8453125 -4.0409375 3.8453125 -3.0625 3.6875 C-2.381875 3.460625 -1.70125 3.23375 -1 3 C-0.67 2.01 -0.34 1.02 0 0 Z " fill="#286580" transform="translate(380,190)"/>
<path d="M0 0 C2.97 0 5.94 0 9 0 C6.37801226 2.15377564 4.35595828 3.40072174 1 4 C0.67 2.68 0.34 1.36 0 0 Z " fill="#96C65C" transform="translate(91,178)"/>
<path d="M0 0 C2.475 0.99 2.475 0.99 5 2 C4.34 3.98 3.68 5.96 3 8 C0.4345406 5.4345406 0.45953913 3.52313332 0 0 Z " fill="#206384" transform="translate(320,80)"/>
<path d="M0 0 C-3.51187196 2.40814077 -5.72656908 3.36629408 -10 3 C-4.375 -1.3125 -4.375 -1.3125 0 0 Z " fill="#256484" transform="translate(298,78)"/>
<path d="M0 0 C-0.33 0.66 -0.66 1.32 -1 2 C-3.64 2 -6.28 2 -9 2 C-9 1.34 -9 0.68 -9 0 C-5.67465243 -1.10844919 -3.37817425 -0.84454356 0 0 Z " fill="#42AB75" transform="translate(622,332)"/>
<path d="M0 0 C1.32 0 2.64 0 4 0 C4.625 1.875 4.625 1.875 5 4 C4.34 4.66 3.68 5.32 3 6 C1.5 4.6875 1.5 4.6875 0 3 C0 2.01 0 1.02 0 0 Z " fill="#42AE76" transform="translate(651,316)"/>
<path d="M0 0 C0.99 1.32 1.98 2.64 3 4 C2.01 4.33 1.02 4.66 0 5 C-0.33 5.66 -0.66 6.32 -1 7 C-1.99 5.02 -2.98 3.04 -4 1 C-3.01 1.33 -2.02 1.66 -1 2 C-0.67 1.34 -0.34 0.68 0 0 Z " fill="#45AC76" transform="translate(554,280)"/>
<path d="M0 0 C1.98 0.66 3.96 1.32 6 2 C5.67 2.99 5.34 3.98 5 5 C3.02 5.33 1.04 5.66 -1 6 C-0.34 5.01 0.32 4.02 1 3 C0.67 2.01 0.34 1.02 0 0 Z " fill="#24678A" transform="translate(344,178)"/>
<path d="M0 0 C7.75 0.75 7.75 0.75 10 3 C8.5199159 2.88637738 7.04089926 2.75877092 5.5625 2.625 C4.73878906 2.55539063 3.91507813 2.48578125 3.06640625 2.4140625 C2.38449219 2.27742188 1.70257813 2.14078125 1 2 C0.67 1.34 0.34 0.68 0 0 Z " fill="#215F85" transform="translate(247,82)"/>
<path d="M0 0 C3.95820859 0.56545837 6.6659053 1.80902348 10 4 C8.375 4.75 8.375 4.75 6 5 C2.75 3.125 2.75 3.125 0 1 C0 0.67 0 0.34 0 0 Z " fill="#5B7991" transform="translate(103,5)"/>
<path d="M0 0 C1.32 0 2.64 0 4 0 C4.33 1.65 4.66 3.3 5 5 C3.35 5 1.7 5 0 5 C0.66 3.68 1.32 2.36 2 1 C1.34 0.67 0.68 0.34 0 0 Z " fill="#30B76A" transform="translate(620,330)"/>
<path d="M0 0 C1 3 1 3 0 6 C-0.99 6 -1.98 6 -3 6 C-3 6.66 -3 7.32 -3 8 C-3.66 7.67 -4.32 7.34 -5 7 C-3.35 4.69 -1.7 2.38 0 0 Z " fill="#4AA476" transform="translate(294,269)"/>
<path d="M0 0 C0 2.83967231 -0.40267181 5.23735711 -1 8 C-2.32 7.67 -3.64 7.34 -5 7 C-3.35 4.69 -1.7 2.38 0 0 Z " fill="#E97819" transform="translate(40,216)"/>
<path d="M0 0 C-5.41538462 4.06153846 -5.41538462 4.06153846 -8.375 3.75 C-8.91125 3.5025 -9.4475 3.255 -10 3 C-3.375 -1.125 -3.375 -1.125 0 0 Z " fill="#C6A32A" transform="translate(80,188)"/>
<path d="M0 0 C-0.33 0.99 -0.66 1.98 -1 3 C-3.64 3.33 -6.28 3.66 -9 4 C-6.10130984 1.70103884 -3.84906588 0 0 0 Z " fill="#96CA69" transform="translate(81,101)"/>
</svg>
