<svg xmlns="http://www.w3.org/2000/svg" xmlns:xlink="http://www.w3.org/1999/xlink" width="2000" zoomAndPan="magnify" viewBox="0 0 1500 1499.999933" height="2000" preserveAspectRatio="xMidYMid meet" version="1.0"><defs><g/><clipPath id="11577da549"><path d="M 124.453125 183.472656 L 402.574219 183.472656 L 402.574219 461.59375 L 124.453125 461.59375 Z M 124.453125 183.472656 " clip-rule="nonzero"/></clipPath><clipPath id="19563e91dc"><path d="M 263.515625 183.472656 C 186.714844 183.472656 124.453125 245.734375 124.453125 322.535156 C 124.453125 399.335938 186.714844 461.59375 263.515625 461.59375 C 340.316406 461.59375 402.574219 399.335938 402.574219 322.535156 C 402.574219 245.734375 340.316406 183.472656 263.515625 183.472656 Z M 263.515625 183.472656 " clip-rule="nonzero"/></clipPath><clipPath id="695790b0c4"><path d="M 0.453125 0.472656 L 278.574219 0.472656 L 278.574219 278.59375 L 0.453125 278.59375 Z M 0.453125 0.472656 " clip-rule="nonzero"/></clipPath><clipPath id="a37e3165a2"><path d="M 139.515625 0.472656 C 62.714844 0.472656 0.453125 62.734375 0.453125 139.535156 C 0.453125 216.335938 62.714844 278.59375 139.515625 278.59375 C 216.316406 278.59375 278.574219 216.335938 278.574219 139.535156 C 278.574219 62.734375 216.316406 0.472656 139.515625 0.472656 Z M 139.515625 0.472656 " clip-rule="nonzero"/></clipPath><clipPath id="c2d4f4d21c"><rect x="0" width="279" y="0" height="279"/></clipPath><clipPath id="2268440c2f"><path d="M 29 1077.46875 L 497.964844 1077.46875 L 497.964844 1316.515625 L 29 1316.515625 Z M 29 1077.46875 " clip-rule="nonzero"/></clipPath><clipPath id="63e9905be8"><path d="M 29.0625 1077.46875 C 29.0625 1207.675781 135.8125 1316.515625 263.515625 1316.515625 C 391.214844 1316.515625 497.964844 1207.675781 497.964844 1077.46875 Z M 29.0625 1077.46875 " clip-rule="nonzero"/></clipPath><clipPath id="b1e84d7799"><path d="M 0.0390625 0.46875 L 468.964844 0.46875 L 468.964844 239.515625 L 0.0390625 239.515625 Z M 0.0390625 0.46875 " clip-rule="nonzero"/></clipPath><clipPath id="0e07520858"><path d="M 0.0625 0.46875 C 0.0625 130.675781 106.8125 239.515625 234.515625 239.515625 C 362.214844 239.515625 468.964844 130.675781 468.964844 0.46875 Z M 0.0625 0.46875 " clip-rule="nonzero"/></clipPath><clipPath id="2ce5b7fe58"><rect x="0" width="469" y="0" height="240"/></clipPath><clipPath id="e5f2c3f774"><path d="M 82 581.042969 L 444.390625 581.042969 L 444.390625 925.25 L 82 925.25 Z M 82 581.042969 " clip-rule="nonzero"/></clipPath><clipPath id="295e43ffb0"><path d="M 369.390625 925.25 L 157.679688 925.25 C 137.789062 925.25 118.714844 917.347656 104.648438 903.28125 C 90.582031 889.21875 82.679688 870.140625 82.679688 850.25 L 82.679688 656.042969 C 82.679688 636.152344 90.582031 617.074219 104.648438 603.007812 C 118.714844 588.945312 137.789062 581.042969 157.679688 581.042969 L 369.390625 581.042969 C 389.28125 581.042969 408.359375 588.945312 422.425781 603.007812 C 436.488281 617.074219 444.390625 636.152344 444.390625 656.042969 L 444.390625 850.25 C 444.390625 870.140625 436.488281 889.21875 422.425781 903.28125 C 408.359375 917.347656 389.28125 925.25 369.390625 925.25 Z M 369.390625 925.25 " clip-rule="nonzero"/></clipPath><clipPath id="49fd190e32"><path d="M 0.558594 0.0429688 L 362.390625 0.0429688 L 362.390625 344.25 L 0.558594 344.25 Z M 0.558594 0.0429688 " clip-rule="nonzero"/></clipPath><clipPath id="b2d9745cf9"><path d="M 287.390625 344.25 L 75.679688 344.25 C 55.789062 344.25 36.714844 336.347656 22.648438 322.28125 C 8.582031 308.21875 0.679688 289.140625 0.679688 269.25 L 0.679688 75.042969 C 0.679688 55.152344 8.582031 36.074219 22.648438 22.007812 C 36.714844 7.945312 55.789062 0.0429688 75.679688 0.0429688 L 287.390625 0.0429688 C 307.28125 0.0429688 326.359375 7.945312 340.425781 22.007812 C 354.488281 36.074219 362.390625 55.152344 362.390625 75.042969 L 362.390625 269.25 C 362.390625 289.140625 354.488281 308.21875 340.425781 322.28125 C 326.359375 336.347656 307.28125 344.25 287.390625 344.25 Z M 287.390625 344.25 " clip-rule="nonzero"/></clipPath><clipPath id="a690532deb"><rect x="0" width="363" y="0" height="345"/></clipPath><clipPath id="5ce12bf802"><path d="M 82.636719 488.484375 L 444.394531 488.484375 L 444.394531 850.242188 L 82.636719 850.242188 Z M 82.636719 488.484375 " clip-rule="nonzero"/></clipPath><clipPath id="c7719f7042"><path d="M 263.515625 488.484375 C 163.617188 488.484375 82.636719 569.464844 82.636719 669.363281 C 82.636719 769.261719 163.617188 850.242188 263.515625 850.242188 C 363.410156 850.242188 444.394531 769.261719 444.394531 669.363281 C 444.394531 569.464844 363.410156 488.484375 263.515625 488.484375 Z M 263.515625 488.484375 " clip-rule="nonzero"/></clipPath><clipPath id="0f39b13c7c"><path d="M 0.636719 0.484375 L 362.394531 0.484375 L 362.394531 362.242188 L 0.636719 362.242188 Z M 0.636719 0.484375 " clip-rule="nonzero"/></clipPath><clipPath id="e6c430795c"><path d="M 181.515625 0.484375 C 81.617188 0.484375 0.636719 81.464844 0.636719 181.363281 C 0.636719 281.261719 81.617188 362.242188 181.515625 362.242188 C 281.410156 362.242188 362.394531 281.261719 362.394531 181.363281 C 362.394531 81.464844 281.410156 0.484375 181.515625 0.484375 Z M 181.515625 0.484375 " clip-rule="nonzero"/></clipPath><clipPath id="04a267c3a2"><rect x="0" width="363" y="0" height="363"/></clipPath><clipPath id="faa776c9c3"><path d="M 82.636719 669.363281 L 444.394531 669.363281 L 444.394531 1031.121094 L 82.636719 1031.121094 Z M 82.636719 669.363281 " clip-rule="nonzero"/></clipPath><clipPath id="0d0879d750"><path d="M 263.515625 669.363281 C 163.617188 669.363281 82.636719 750.34375 82.636719 850.242188 C 82.636719 950.140625 163.617188 1031.121094 263.515625 1031.121094 C 363.410156 1031.121094 444.394531 950.140625 444.394531 850.242188 C 444.394531 750.34375 363.410156 669.363281 263.515625 669.363281 Z M 263.515625 669.363281 " clip-rule="nonzero"/></clipPath><clipPath id="be885ce75c"><path d="M 0.636719 0.363281 L 362.394531 0.363281 L 362.394531 362.121094 L 0.636719 362.121094 Z M 0.636719 0.363281 " clip-rule="nonzero"/></clipPath><clipPath id="71f3189fd4"><path d="M 181.515625 0.363281 C 81.617188 0.363281 0.636719 81.34375 0.636719 181.242188 C 0.636719 281.140625 81.617188 362.121094 181.515625 362.121094 C 281.410156 362.121094 362.394531 281.140625 362.394531 181.242188 C 362.394531 81.34375 281.410156 0.363281 181.515625 0.363281 Z M 181.515625 0.363281 " clip-rule="nonzero"/></clipPath><clipPath id="de0f498dd0"><rect x="0" width="363" y="0" height="363"/></clipPath></defs><g clip-path="url(#11577da549)"><g clip-path="url(#19563e91dc)"><g transform="matrix(1, 0, 0, 1, 124, 183)"><g clip-path="url(#c2d4f4d21c)"><g clip-path="url(#695790b0c4)"><g clip-path="url(#a37e3165a2)"><path fill="#1c6c97" d="M 0.453125 0.472656 L 278.574219 0.472656 L 278.574219 278.59375 L 0.453125 278.59375 Z M 0.453125 0.472656 " fill-opacity="1" fill-rule="nonzero"/></g></g></g></g></g></g><g clip-path="url(#2268440c2f)"><g clip-path="url(#63e9905be8)"><g transform="matrix(1, 0, 0, 1, 29, 1077)"><g clip-path="url(#2ce5b7fe58)"><g clip-path="url(#b1e84d7799)"><g clip-path="url(#0e07520858)"><path fill="#fc7300" d="M 468.964844 239.515625 L 0.207031 239.515625 L 0.207031 0.46875 L 468.964844 0.46875 Z M 468.964844 239.515625 " fill-opacity="1" fill-rule="nonzero"/></g></g></g></g></g></g><g clip-path="url(#e5f2c3f774)"><g clip-path="url(#295e43ffb0)"><g transform="matrix(1, 0, 0, 1, 82, 581)"><g clip-path="url(#a690532deb)"><g clip-path="url(#49fd190e32)"><g clip-path="url(#b2d9745cf9)"><path fill="#a3e635" d="M 362.390625 0.0429688 L 362.390625 344.25 L 0.703125 344.25 L 0.703125 0.0429688 Z M 362.390625 0.0429688 " fill-opacity="1" fill-rule="nonzero"/></g></g></g></g></g></g><g clip-path="url(#5ce12bf802)"><g clip-path="url(#c7719f7042)"><g transform="matrix(1, 0, 0, 1, 82, 488)"><g clip-path="url(#04a267c3a2)"><g clip-path="url(#0f39b13c7c)"><g clip-path="url(#e6c430795c)"><path fill="#a3e635" d="M 0.636719 0.484375 L 362.394531 0.484375 L 362.394531 362.242188 L 0.636719 362.242188 Z M 0.636719 0.484375 " fill-opacity="1" fill-rule="nonzero"/></g></g></g></g></g></g><g clip-path="url(#faa776c9c3)"><g clip-path="url(#0d0879d750)"><g transform="matrix(1, 0, 0, 1, 82, 669)"><g clip-path="url(#de0f498dd0)"><g clip-path="url(#be885ce75c)"><g clip-path="url(#71f3189fd4)"><path fill="#a3e635" d="M 0.636719 0.363281 L 362.394531 0.363281 L 362.394531 362.121094 L 0.636719 362.121094 Z M 0.636719 0.363281 " fill-opacity="1" fill-rule="nonzero"/></g></g></g></g></g></g><g fill="#ffffff" fill-opacity="1"><g transform="translate(497.965766, 825.374957)"><g><path d="M 14.214844 0 L 14.214844 -144.707031 L 68.160156 -144.707031 L 68.160156 -127.304688 L 65.730469 -127.304688 L 65.730469 -129.730469 L 66.285156 -129.730469 L 66.285156 -127.304688 L 64.570312 -129.019531 C 77.800781 -142.25 91.964844 -148.867188 107.058594 -148.867188 C 117.773438 -148.867188 127.824219 -146.664062 137.210938 -142.257812 C 146.765625 -137.773438 153.980469 -130.851562 158.855469 -121.492188 L 156.703125 -120.371094 L 154.835938 -121.917969 C 169.742188 -139.886719 186.082031 -148.867188 203.851562 -148.867188 C 219.570312 -148.867188 233.101562 -144.445312 244.449219 -135.597656 C 255.984375 -126.605469 261.75 -112.65625 261.75 -93.746094 L 261.75 2.425781 L 207.804688 2.425781 L 207.804688 -80.429688 C 207.804688 -87.433594 205.90625 -93.253906 202.113281 -97.894531 C 198.4375 -102.382812 192.824219 -104.628906 185.269531 -104.628906 C 178.792969 -104.628906 173.902344 -102.734375 170.597656 -98.945312 C 167.167969 -95.015625 165.285156 -90.273438 164.949219 -84.722656 L 162.527344 -84.867188 L 164.953125 -84.867188 L 164.953125 2.425781 L 111.007812 2.425781 L 111.007812 -80.429688 C 111.007812 -87.433594 109.113281 -93.253906 105.316406 -97.894531 C 101.644531 -102.382812 96.027344 -104.628906 88.476562 -104.628906 C 81.667969 -104.628906 76.613281 -102.574219 73.308594 -98.464844 C 69.875 -94.191406 68.160156 -89.105469 68.160156 -83.203125 L 68.160156 2.425781 L 14.214844 2.425781 Z M 19.066406 0 L 16.640625 0 L 16.640625 -2.425781 L 65.730469 -2.425781 L 65.730469 0 L 63.304688 0 L 63.304688 -83.203125 C 63.304688 -90.246094 65.378906 -96.347656 69.527344 -101.503906 C 73.800781 -106.824219 80.117188 -109.484375 88.476562 -109.484375 C 97.5625 -109.484375 104.429688 -106.644531 109.074219 -100.964844 C 113.601562 -95.433594 115.863281 -88.589844 115.863281 -80.429688 L 115.863281 0 L 113.4375 0 L 113.4375 -2.425781 L 162.527344 -2.425781 L 162.527344 0 L 160.101562 0 L 160.101562 -84.941406 L 160.105469 -85.015625 C 160.507812 -91.667969 162.785156 -97.375 166.9375 -102.132812 C 171.210938 -107.035156 177.324219 -109.484375 185.269531 -109.484375 C 194.355469 -109.484375 201.222656 -106.644531 205.871094 -100.964844 C 210.394531 -95.433594 212.65625 -88.589844 212.65625 -80.429688 L 212.65625 0 L 210.230469 0 L 210.230469 -2.425781 L 259.320312 -2.425781 L 259.320312 0 L 256.894531 0 L 256.894531 -93.746094 C 256.894531 -111.074219 251.753906 -123.75 241.464844 -131.769531 C 230.996094 -139.933594 218.457031 -144.015625 203.851562 -144.015625 C 187.601562 -144.015625 172.507812 -135.617188 158.570312 -118.820312 L 156.238281 -116.007812 L 154.550781 -119.25 C 150.179688 -127.640625 143.710938 -133.84375 135.148438 -137.863281 C 126.414062 -141.964844 117.050781 -144.015625 107.058594 -144.015625 C 93.304688 -144.015625 80.285156 -137.871094 68.003906 -125.585938 L 67.292969 -124.875 L 63.304688 -124.875 L 63.304688 -142.28125 L 65.730469 -142.28125 L 65.730469 -139.855469 L 16.640625 -139.855469 L 16.640625 -142.28125 L 19.066406 -142.28125 Z M 19.066406 0 "/></g></g></g><g fill="#ffffff" fill-opacity="1"><g transform="translate(757.287379, 825.374957)"><g><path d="M 160.585938 -61.917969 L 57.410156 -61.917969 L 57.410156 -64.34375 L 59.839844 -64.34375 C 59.839844 -55.175781 62.746094 -48.425781 68.566406 -44.105469 C 74.609375 -39.617188 81.152344 -37.371094 88.199219 -37.371094 C 95.792969 -37.371094 101.742188 -38.363281 106.042969 -40.339844 C 110.378906 -42.335938 115.398438 -46.359375 121.097656 -52.417969 L 122.335938 -53.734375 L 161.789062 -34.003906 L 160.449219 -31.761719 C 145.1875 -6.195312 119.902344 6.585938 84.589844 6.585938 C 62.492188 6.585938 43.535156 -0.988281 27.71875 -16.136719 C 11.875 -31.3125 3.953125 -49.601562 3.953125 -71 C 3.953125 -92.398438 11.875 -110.730469 27.714844 -126 C 43.53125 -141.246094 62.492188 -148.867188 84.589844 -148.867188 C 107.78125 -148.867188 126.679688 -142.136719 141.289062 -128.671875 C 155.957031 -115.15625 163.289062 -95.933594 163.289062 -71 C 163.289062 -67.539062 163.1875 -65.1875 162.980469 -63.945312 L 162.640625 -61.917969 Z M 160.585938 -66.773438 L 160.585938 -64.34375 L 158.191406 -64.746094 C 158.355469 -65.722656 158.4375 -67.808594 158.4375 -71 C 158.4375 -94.515625 151.625 -112.546875 138 -125.101562 C 124.320312 -137.710938 106.519531 -144.015625 84.589844 -144.015625 C 63.796875 -144.015625 45.960938 -136.84375 31.082031 -122.503906 C 16.230469 -108.191406 8.804688 -91.023438 8.804688 -71 C 8.804688 -50.984375 16.230469 -33.863281 31.078125 -19.640625 C 45.957031 -5.390625 63.792969 1.734375 84.589844 1.734375 C 118.066406 1.734375 141.960938 -10.261719 156.28125 -34.25 L 158.367188 -33.003906 L 157.28125 -30.835938 L 121.78125 -48.585938 L 122.867188 -50.753906 L 124.632812 -49.089844 C 118.5 -42.574219 112.980469 -38.1875 108.070312 -35.929688 C 103.125 -33.65625 96.503906 -32.519531 88.199219 -32.519531 C 80.082031 -32.519531 72.574219 -35.082031 65.671875 -40.210938 C 58.546875 -45.5 54.984375 -53.546875 54.984375 -64.34375 L 54.984375 -66.773438 Z M 58.796875 -93.953125 L 112.882812 -93.953125 L 112.882812 -91.527344 L 110.480469 -91.164062 C 109.460938 -97.957031 106.828125 -103.144531 102.582031 -106.726562 C 98.316406 -110.320312 92.785156 -112.117188 85.976562 -112.117188 C 78.457031 -112.117188 72.519531 -110.195312 68.171875 -106.347656 C 63.871094 -102.542969 61.554688 -97.558594 61.222656 -91.394531 L 58.796875 -91.527344 Z M 58.796875 -89.097656 L 56.238281 -89.097656 L 56.375 -91.65625 C 56.78125 -99.171875 59.640625 -105.28125 64.957031 -109.984375 C 70.222656 -114.644531 77.230469 -116.972656 85.976562 -116.972656 C 93.964844 -116.972656 100.542969 -114.792969 105.710938 -110.4375 C 110.890625 -106.070312 114.082031 -99.886719 115.28125 -91.886719 L 115.699219 -89.097656 Z M 58.796875 -89.097656 "/></g></g></g><g fill="#ffffff" fill-opacity="1"><g transform="translate(910.661518, 825.374957)"><g><path d="M 22.535156 -142.28125 L 22.535156 -197.679688 L 76.480469 -197.679688 L 76.480469 -142.28125 L 74.050781 -142.28125 L 74.050781 -144.707031 L 106.433594 -144.707031 L 106.433594 -102.410156 L 74.050781 -102.410156 L 74.050781 -104.839844 L 76.480469 -104.839844 L 76.480469 -59.628906 C 76.480469 -48.121094 79.367188 -42.363281 85.144531 -42.363281 C 86.710938 -42.363281 88.375 -42.6875 90.140625 -43.328125 C 91.992188 -44 93.390625 -44.652344 94.339844 -45.285156 L 98.710938 -48.199219 L 112.449219 -3.558594 L 110.742188 -2.597656 C 99.832031 3.523438 87.417969 6.585938 73.496094 6.585938 C 63.878906 6.585938 55.574219 4.886719 48.585938 1.488281 C 41.511719 -1.949219 36.140625 -6.59375 32.472656 -12.441406 C 28.914062 -18.113281 26.363281 -24.082031 24.824219 -30.34375 C 23.296875 -36.542969 22.535156 -43.164062 22.535156 -50.199219 L 22.535156 -104.839844 L 24.960938 -104.839844 L 24.960938 -102.410156 L 2.011719 -102.410156 L 2.011719 -144.707031 L 24.960938 -144.707031 L 24.960938 -142.28125 Z M 27.386719 -139.855469 L 4.4375 -139.855469 L 4.4375 -142.28125 L 6.863281 -142.28125 L 6.863281 -104.839844 L 4.4375 -104.839844 L 4.4375 -107.265625 L 27.386719 -107.265625 L 27.386719 -50.199219 C 27.386719 -43.554688 28.105469 -37.324219 29.535156 -31.503906 C 30.953125 -25.746094 33.304688 -20.253906 36.585938 -15.019531 C 39.761719 -9.957031 44.46875 -5.910156 50.707031 -2.875 C 57.027344 0.195312 64.625 1.734375 73.496094 1.734375 C 86.574219 1.734375 98.195312 -1.121094 108.363281 -6.832031 L 109.554688 -4.714844 L 107.234375 -4 L 95.03125 -43.664062 L 97.351562 -44.375 L 98.695312 -42.355469 L 97.03125 -41.246094 C 95.761719 -40.398438 94.015625 -39.574219 91.800781 -38.765625 C 89.5 -37.929688 87.28125 -37.511719 85.144531 -37.511719 C 76.132812 -37.511719 71.625 -44.882812 71.625 -59.628906 L 71.625 -107.265625 L 104.007812 -107.265625 L 104.007812 -104.839844 L 101.578125 -104.839844 L 101.578125 -142.28125 L 104.007812 -142.28125 L 104.007812 -139.855469 L 71.625 -139.855469 L 71.625 -195.253906 L 74.050781 -195.253906 L 74.050781 -192.828125 L 24.960938 -192.828125 L 24.960938 -195.253906 L 27.386719 -195.253906 Z M 27.386719 -139.855469 "/></g></g></g><g fill="#ffffff" fill-opacity="1"><g transform="translate(1006.346935, 825.374957)"><g><path d="M 14.214844 0 L 14.214844 -144.707031 L 68.160156 -144.707031 L 68.160156 -121.757812 L 65.730469 -121.757812 L 65.730469 -124.183594 L 66.285156 -124.183594 L 66.285156 -121.757812 L 64.117188 -122.84375 C 64.550781 -123.710938 65.226562 -124.761719 66.148438 -125.984375 C 67.050781 -127.1875 68.925781 -129.214844 71.78125 -132.070312 C 74.652344 -134.941406 77.71875 -137.527344 80.972656 -139.824219 C 84.300781 -142.175781 88.566406 -144.265625 93.769531 -146.09375 C 99.023438 -147.945312 104.378906 -148.867188 109.832031 -148.867188 C 115.417969 -148.867188 120.910156 -148.097656 126.304688 -146.554688 C 131.699219 -145.015625 135.691406 -143.445312 138.28125 -141.851562 L 137.011719 -139.785156 L 138.214844 -141.890625 L 144.082031 -138.539062 L 121.171875 -92.101562 L 118.800781 -94.113281 C 113.152344 -98.90625 105.167969 -101.300781 94.855469 -101.300781 C 89.390625 -101.300781 84.726562 -100.125 80.859375 -97.773438 C 77.019531 -95.4375 74.328125 -92.636719 72.777344 -89.375 C 71.078125 -85.796875 69.878906 -82.78125 69.175781 -80.320312 C 68.496094 -77.949219 68.160156 -76.136719 68.160156 -74.882812 L 68.160156 2.425781 L 14.214844 2.425781 Z M 19.066406 0 L 16.640625 0 L 16.640625 -2.425781 L 65.730469 -2.425781 L 65.730469 0 L 63.304688 0 L 63.304688 -74.882812 C 63.304688 -76.589844 63.707031 -78.847656 64.507812 -81.652344 C 65.285156 -84.371094 66.578125 -87.636719 68.394531 -91.457031 C 70.355469 -95.59375 73.671875 -99.078125 78.335938 -101.917969 C 82.976562 -104.742188 88.484375 -106.15625 94.855469 -106.15625 C 106.355469 -106.15625 115.386719 -103.375 121.941406 -97.8125 L 120.371094 -95.964844 L 118.195312 -97.035156 L 138.71875 -138.640625 L 140.894531 -137.566406 L 139.691406 -135.457031 L 135.773438 -137.695312 L 135.738281 -137.71875 C 133.523438 -139.082031 129.9375 -140.46875 124.972656 -141.886719 C 120.011719 -143.304688 114.964844 -144.015625 109.832031 -144.015625 C 104.929688 -144.015625 100.113281 -143.179688 95.382812 -141.515625 C 90.601562 -139.835938 86.730469 -137.949219 83.773438 -135.859375 C 80.742188 -133.722656 77.890625 -131.3125 75.214844 -128.636719 C 72.523438 -125.945312 70.792969 -124.089844 70.03125 -123.074219 C 69.285156 -122.082031 68.761719 -121.28125 68.457031 -120.671875 L 67.785156 -119.328125 L 63.304688 -119.328125 L 63.304688 -142.28125 L 65.730469 -142.28125 L 65.730469 -139.855469 L 16.640625 -139.855469 L 16.640625 -142.28125 L 19.066406 -142.28125 Z M 19.066406 0 "/></g></g></g><g fill="#ffffff" fill-opacity="1"><g transform="translate(1130.599411, 825.374957)"><g><path d="M 19.640625 -223.320312 C 25.84375 -229.523438 33.257812 -232.628906 41.878906 -232.628906 C 50.5 -232.628906 57.914062 -229.523438 64.121094 -223.320312 C 70.324219 -217.113281 73.429688 -209.699219 73.429688 -201.078125 C 73.429688 -192.457031 70.324219 -185.042969 64.121094 -178.839844 C 57.914062 -172.632812 50.5 -169.53125 41.878906 -169.53125 C 33.257812 -169.53125 25.84375 -172.632812 19.640625 -178.839844 C 13.433594 -185.042969 10.332031 -192.457031 10.332031 -201.078125 C 10.332031 -209.699219 13.433594 -217.113281 19.640625 -223.320312 Z M 23.070312 -219.886719 C 17.8125 -214.628906 15.183594 -208.359375 15.183594 -201.078125 C 15.183594 -193.796875 17.8125 -187.527344 23.070312 -182.269531 C 28.328125 -177.011719 34.597656 -174.382812 41.878906 -174.382812 C 49.160156 -174.382812 55.429688 -177.011719 60.6875 -182.269531 C 65.945312 -187.527344 68.574219 -193.796875 68.574219 -201.078125 C 68.574219 -208.359375 65.945312 -214.628906 60.6875 -219.886719 C 55.429688 -225.144531 49.160156 -227.773438 41.878906 -227.773438 C 34.597656 -227.773438 28.328125 -225.144531 23.070312 -219.886719 Z M 19.066406 -142.28125 L 19.066406 0 L 16.640625 0 L 16.640625 -2.425781 L 65.730469 -2.425781 L 65.730469 0 L 63.304688 0 L 63.304688 -142.28125 L 65.730469 -142.28125 L 65.730469 -139.855469 L 16.640625 -139.855469 L 16.640625 -142.28125 Z M 14.214844 -144.707031 L 68.160156 -144.707031 L 68.160156 2.425781 L 14.214844 2.425781 Z M 14.214844 -144.707031 "/></g></g></g><g fill="#ffffff" fill-opacity="1"><g transform="translate(1200.491358, 825.374957)"><g><path d="M 24.558594 -15.972656 C 10.820312 -30.949219 3.953125 -49.292969 3.953125 -71 C 3.953125 -92.707031 10.820312 -111.09375 24.554688 -126.164062 C 38.347656 -141.300781 55.863281 -148.867188 77.101562 -148.867188 C 96.617188 -148.867188 112.714844 -142.722656 125.386719 -130.433594 L 123.699219 -128.691406 L 121.269531 -128.691406 L 121.269531 -144.707031 L 175.214844 -144.707031 L 175.214844 2.425781 L 121.824219 2.425781 L 121.824219 -16.085938 L 124.253906 -16.085938 L 124.253906 -13.660156 L 123.699219 -13.660156 L 123.699219 -16.085938 L 125.5 -14.457031 C 112.8125 -0.429688 96.679688 6.585938 77.101562 6.585938 C 55.867188 6.585938 38.351562 -0.933594 24.558594 -15.972656 Z M 28.136719 -19.253906 C 40.96875 -5.261719 57.289062 1.734375 77.101562 1.734375 C 95.246094 1.734375 110.175781 -4.75 121.898438 -17.714844 L 122.621094 -18.511719 L 126.679688 -18.511719 L 126.679688 0 L 124.253906 0 L 124.253906 -2.425781 L 172.789062 -2.425781 L 172.789062 0 L 170.363281 0 L 170.363281 -142.28125 L 172.789062 -142.28125 L 172.789062 -139.855469 L 123.699219 -139.855469 L 123.699219 -142.28125 L 126.125 -142.28125 L 126.125 -122.957031 L 122.007812 -126.949219 C 110.277344 -138.324219 95.308594 -144.015625 77.101562 -144.015625 C 57.292969 -144.015625 40.972656 -136.972656 28.140625 -122.894531 C 15.25 -108.75 8.804688 -91.453125 8.804688 -71 C 8.804688 -50.550781 15.25 -33.304688 28.136719 -19.253906 Z M 69.792969 -93.402344 C 63.894531 -87.589844 60.949219 -80.125 60.949219 -71 C 60.949219 -61.863281 63.765625 -54.4375 69.402344 -48.714844 C 75.027344 -43.003906 82.496094 -40.144531 91.804688 -40.144531 C 100.742188 -40.144531 108.070312 -43.046875 113.789062 -48.851562 C 119.515625 -54.667969 122.378906 -62.050781 122.378906 -71 C 122.378906 -80.125 119.433594 -87.589844 113.535156 -93.402344 C 107.628906 -99.222656 100.382812 -102.132812 91.804688 -102.132812 C 83.035156 -102.132812 75.699219 -99.222656 69.792969 -93.402344 Z M 66.386719 -96.859375 C 73.238281 -103.613281 81.710938 -106.988281 91.804688 -106.988281 C 101.710938 -106.988281 110.089844 -103.613281 116.941406 -96.859375 C 123.804688 -90.097656 127.234375 -81.476562 127.234375 -71 C 127.234375 -60.722656 123.90625 -52.207031 117.246094 -45.445312 C 110.574219 -38.675781 102.09375 -35.292969 91.804688 -35.292969 C 81.140625 -35.292969 72.523438 -38.632812 65.945312 -45.308594 C 59.378906 -51.972656 56.09375 -60.539062 56.09375 -71 C 56.09375 -81.476562 59.523438 -90.097656 66.386719 -96.859375 Z M 66.386719 -96.859375 "/></g></g></g><g fill="#ffffff" fill-opacity="1"><g transform="translate(1376.053458, 825.374957)"><g><path d="M 48.257812 -61.78125 C 57.804688 -61.78125 65.910156 -58.445312 72.578125 -51.777344 C 79.246094 -45.109375 82.582031 -37.003906 82.582031 -27.457031 C 82.582031 -18.097656 79.246094 -10.082031 72.578125 -3.414062 C 65.910156 3.253906 57.804688 6.585938 48.257812 6.585938 C 38.898438 6.585938 30.882812 3.253906 24.214844 -3.414062 C 17.546875 -10.082031 14.214844 -18.097656 14.214844 -27.457031 C 14.214844 -37.003906 17.546875 -45.109375 24.214844 -51.777344 C 30.882812 -58.445312 38.898438 -61.78125 48.257812 -61.78125 Z M 48.257812 -56.925781 C 40.238281 -56.925781 33.367188 -54.066406 27.648438 -48.34375 C 21.929688 -42.625 19.066406 -35.664062 19.066406 -27.457031 C 19.066406 -19.4375 21.929688 -12.566406 27.648438 -6.847656 C 33.367188 -1.125 40.238281 1.734375 48.257812 1.734375 C 56.464844 1.734375 63.425781 -1.125 69.148438 -6.847656 C 74.867188 -12.566406 77.726562 -19.4375 77.726562 -27.457031 C 77.726562 -35.664062 74.867188 -42.625 69.148438 -48.34375 C 63.425781 -54.066406 56.464844 -56.925781 48.257812 -56.925781 Z M 48.257812 -56.925781 "/></g></g></g><g fill="#383e48" fill-opacity="1"><g transform="translate(497.965766, 825.374957)"><g><path d="M 16.640625 0 L 16.640625 -142.28125 L 65.734375 -142.28125 L 65.734375 -127.296875 L 66.28125 -127.296875 C 79.039062 -140.054688 92.632812 -146.4375 107.0625 -146.4375 C 117.414062 -146.4375 127.117188 -144.3125 136.171875 -140.0625 C 145.234375 -135.8125 152.078125 -129.25 156.703125 -120.375 C 171.117188 -137.75 186.832031 -146.4375 203.84375 -146.4375 C 219.007812 -146.4375 232.046875 -142.179688 242.953125 -133.671875 C 253.859375 -125.171875 259.3125 -111.863281 259.3125 -93.75 L 259.3125 0 L 210.234375 0 L 210.234375 -80.4375 C 210.234375 -88.007812 208.148438 -94.335938 203.984375 -99.421875 C 199.828125 -104.515625 193.585938 -107.0625 185.265625 -107.0625 C 178.054688 -107.0625 172.554688 -104.882812 168.765625 -100.53125 C 164.972656 -96.1875 162.894531 -90.96875 162.53125 -84.875 L 162.53125 0 L 113.4375 0 L 113.4375 -80.4375 C 113.4375 -88.007812 111.351562 -94.335938 107.1875 -99.421875 C 103.03125 -104.515625 96.789062 -107.0625 88.46875 -107.0625 C 80.894531 -107.0625 75.210938 -104.703125 71.421875 -99.984375 C 67.628906 -95.265625 65.734375 -89.671875 65.734375 -83.203125 L 65.734375 0 Z M 16.640625 0 "/></g></g></g><g fill="#383e48" fill-opacity="1"><g transform="translate(757.287379, 825.374957)"><g><path d="M 160.578125 -64.34375 L 57.40625 -64.34375 C 57.40625 -54.363281 60.640625 -46.96875 67.109375 -42.15625 C 73.585938 -37.351562 80.617188 -34.953125 88.203125 -34.953125 C 96.148438 -34.953125 102.429688 -36.015625 107.046875 -38.140625 C 111.671875 -40.265625 116.941406 -44.46875 122.859375 -50.75 L 158.359375 -33 C 143.566406 -8.226562 118.976562 4.15625 84.59375 4.15625 C 63.144531 4.15625 44.742188 -3.191406 29.390625 -17.890625 C 14.046875 -32.585938 6.375 -50.289062 6.375 -71 C 6.375 -91.707031 14.046875 -109.457031 29.390625 -124.25 C 44.742188 -139.039062 63.144531 -146.4375 84.59375 -146.4375 C 107.144531 -146.4375 125.492188 -139.914062 139.640625 -126.875 C 153.785156 -113.84375 160.859375 -95.21875 160.859375 -71 C 160.859375 -67.675781 160.765625 -65.457031 160.578125 -64.34375 Z M 58.796875 -91.53125 L 112.875 -91.53125 C 111.769531 -98.925781 108.859375 -104.609375 104.140625 -108.578125 C 99.429688 -112.554688 93.378906 -114.546875 85.984375 -114.546875 C 77.847656 -114.546875 71.375 -112.414062 66.5625 -108.15625 C 61.757812 -103.90625 59.171875 -98.363281 58.796875 -91.53125 Z M 58.796875 -91.53125 "/></g></g></g><g fill="#383e48" fill-opacity="1"><g transform="translate(910.661518, 825.374957)"><g><path d="M 24.96875 -142.28125 L 24.96875 -195.25 L 74.046875 -195.25 L 74.046875 -142.28125 L 104 -142.28125 L 104 -104.84375 L 74.046875 -104.84375 L 74.046875 -59.625 C 74.046875 -46.5 77.742188 -39.9375 85.140625 -39.9375 C 86.992188 -39.9375 88.9375 -40.304688 90.96875 -41.046875 C 93 -41.785156 94.570312 -42.523438 95.6875 -43.265625 L 97.34375 -44.375 L 109.546875 -4.71875 C 99.015625 1.195312 87 4.15625 73.5 4.15625 C 64.25 4.15625 56.296875 2.539062 49.640625 -0.6875 C 42.984375 -3.925781 37.945312 -8.269531 34.53125 -13.71875 C 31.113281 -19.175781 28.664062 -24.910156 27.1875 -30.921875 C 25.707031 -36.929688 24.96875 -43.359375 24.96875 -50.203125 L 24.96875 -104.84375 L 4.4375 -104.84375 L 4.4375 -142.28125 Z M 24.96875 -142.28125 "/></g></g></g><g fill="#383e48" fill-opacity="1"><g transform="translate(1006.346935, 825.374957)"><g><path d="M 16.640625 0 L 16.640625 -142.28125 L 65.734375 -142.28125 L 65.734375 -121.75 L 66.28125 -121.75 C 66.65625 -122.488281 67.257812 -123.410156 68.09375 -124.515625 C 68.925781 -125.628906 70.726562 -127.570312 73.5 -130.34375 C 76.269531 -133.125 79.226562 -135.625 82.375 -137.84375 C 85.519531 -140.0625 89.585938 -142.046875 94.578125 -143.796875 C 99.566406 -145.554688 104.648438 -146.4375 109.828125 -146.4375 C 115.191406 -146.4375 120.460938 -145.695312 125.640625 -144.21875 C 130.816406 -142.738281 134.609375 -141.257812 137.015625 -139.78125 L 140.890625 -137.5625 L 120.375 -95.96875 C 114.269531 -101.144531 105.765625 -103.734375 94.859375 -103.734375 C 88.941406 -103.734375 83.851562 -102.4375 79.59375 -99.84375 C 75.34375 -97.257812 72.335938 -94.117188 70.578125 -90.421875 C 68.828125 -86.722656 67.582031 -83.578125 66.84375 -80.984375 C 66.101562 -78.398438 65.734375 -76.367188 65.734375 -74.890625 L 65.734375 0 Z M 16.640625 0 "/></g></g></g><g fill="#383e48" fill-opacity="1"><g transform="translate(1130.599411, 825.374957)"><g><path d="M 21.359375 -221.59375 C 27.085938 -227.332031 33.925781 -230.203125 41.875 -230.203125 C 49.832031 -230.203125 56.675781 -227.332031 62.40625 -221.59375 C 68.132812 -215.863281 71 -209.023438 71 -201.078125 C 71 -193.128906 68.132812 -186.285156 62.40625 -180.546875 C 56.675781 -174.816406 49.832031 -171.953125 41.875 -171.953125 C 33.925781 -171.953125 27.085938 -174.816406 21.359375 -180.546875 C 15.628906 -186.285156 12.765625 -193.128906 12.765625 -201.078125 C 12.765625 -209.023438 15.628906 -215.863281 21.359375 -221.59375 Z M 16.640625 -142.28125 L 16.640625 0 L 65.734375 0 L 65.734375 -142.28125 Z M 16.640625 -142.28125 "/></g></g></g><g fill="#383e48" fill-opacity="1"><g transform="translate(1200.491358, 825.374957)"><g><path d="M 26.34375 -17.609375 C 13.03125 -32.128906 6.375 -49.925781 6.375 -71 C 6.375 -92.082031 13.03125 -109.925781 26.34375 -124.53125 C 39.65625 -139.132812 56.578125 -146.4375 77.109375 -146.4375 C 95.960938 -146.4375 111.492188 -140.519531 123.703125 -128.6875 L 123.703125 -142.28125 L 172.78125 -142.28125 L 172.78125 0 L 124.25 0 L 124.25 -16.09375 L 123.703125 -16.09375 C 111.492188 -2.59375 95.960938 4.15625 77.109375 4.15625 C 56.578125 4.15625 39.65625 -3.097656 26.34375 -17.609375 Z M 68.078125 -95.125 C 61.703125 -88.84375 58.515625 -80.800781 58.515625 -71 C 58.515625 -61.195312 61.566406 -53.195312 67.671875 -47 C 73.773438 -40.8125 81.816406 -37.71875 91.796875 -37.71875 C 101.410156 -37.71875 109.316406 -40.859375 115.515625 -47.140625 C 121.710938 -53.429688 124.8125 -61.382812 124.8125 -71 C 124.8125 -80.800781 121.617188 -88.84375 115.234375 -95.125 C 108.859375 -101.414062 101.046875 -104.5625 91.796875 -104.5625 C 82.367188 -104.5625 74.460938 -101.414062 68.078125 -95.125 Z M 68.078125 -95.125 "/></g></g></g><g fill="#383e48" fill-opacity="1"><g transform="translate(1376.053458, 825.374957)"><g><path d="M 48.265625 -59.359375 C 57.140625 -59.359375 64.671875 -56.257812 70.859375 -50.0625 C 77.054688 -43.863281 80.15625 -36.328125 80.15625 -27.453125 C 80.15625 -18.765625 77.054688 -11.320312 70.859375 -5.125 C 64.671875 1.0625 57.140625 4.15625 48.265625 4.15625 C 39.566406 4.15625 32.117188 1.0625 25.921875 -5.125 C 19.734375 -11.320312 16.640625 -18.765625 16.640625 -27.453125 C 16.640625 -36.328125 19.734375 -43.863281 25.921875 -50.0625 C 32.117188 -56.257812 39.566406 -59.359375 48.265625 -59.359375 Z M 48.265625 -59.359375 "/></g></g></g></svg>